<svg width="70" height="45" viewBox="0 0 70 45" fill="none" xmlns="http://www.w3.org/2000/svg">
<path d="M1.08993 5.46009C0 7.59921 0 10.3995 0 16V29C0 34.6005 0 37.4008 1.08993 39.5399C2.04867 41.4215 3.57847 42.9513 5.46009 43.9101C7.59921 45 10.3995 45 16 45H54C59.6005 45 62.4008 45 64.5399 43.9101C66.4215 42.9513 67.9513 41.4215 68.9101 39.5399C70 37.4008 70 34.6005 70 29V16C70 10.3995 70 7.59921 68.9101 5.46009C67.9513 3.57847 66.4215 2.04867 64.5399 1.08993C62.4008 0 59.6005 0 54 0H16C10.3995 0 7.59921 0 5.46009 1.08993C3.57847 2.04867 2.04867 3.57847 1.08993 5.46009Z" fill="white"/>
<path d="M19.3548 15.9504C19.9323 15.2563 20.3243 14.3238 20.221 13.3711C19.3756 13.4117 18.3439 13.9072 17.7465 14.6024C17.2105 15.1972 16.7355 16.1685 16.8595 17.081C17.8083 17.16 18.7566 16.6253 19.3548 15.9504Z" fill="#222222"/>
<path d="M20.2103 17.2593C19.3719 17.2115 18.6098 17.4999 17.9932 17.7333C17.5961 17.8836 17.2593 18.011 17.0015 18.011C16.7171 18.011 16.3678 17.8783 15.9748 17.7291C15.4575 17.5326 14.8648 17.3075 14.2453 17.3184C12.8262 17.3383 11.5096 18.1096 10.7896 19.3358C9.30866 21.7887 10.3987 25.4276 11.839 27.4258C12.5382 28.4144 13.3814 29.5026 14.4918 29.4635C14.9782 29.4452 15.3275 29.3036 15.6893 29.1568C16.1081 28.987 16.5437 28.8104 17.228 28.8104C17.8806 28.8104 18.2962 28.9815 18.6954 29.1459C19.076 29.3027 19.4418 29.4533 19.9837 29.4436C21.1356 29.424 21.856 28.4546 22.5555 27.4653C23.3195 26.3919 23.654 25.354 23.7017 25.206L23.7067 25.1907C23.7054 25.1894 23.6958 25.1852 23.6789 25.1777C23.422 25.0643 21.4845 24.2089 21.4651 21.9267C21.4456 20.0114 22.9905 19.04 23.2433 18.881C23.2594 18.8709 23.2702 18.8641 23.2751 18.8605C22.2879 17.4575 20.7448 17.2992 20.2103 17.2593Z" fill="#222222"/>
<path fill-rule="evenodd" clip-rule="evenodd" d="M39.0343 19.3767C39.0343 16.4874 36.9483 14.5029 33.9521 14.5029H28.1639V29.3403H30.5604V24.2712H33.8778C36.905 24.2712 39.0343 22.2766 39.0343 19.3767ZM33.3102 22.3382H30.5604V16.4464H33.3207C35.3965 16.4464 36.5838 17.5155 36.5838 19.3872C36.5838 21.2587 35.3965 22.3382 33.3102 22.3382Z" fill="#222222"/>
<path fill-rule="evenodd" clip-rule="evenodd" d="M39.6284 26.2662C39.6284 24.3636 41.1373 23.2736 43.9187 23.1091L46.9036 22.9342V22.1118C46.9036 20.9091 46.08 20.2509 44.6145 20.2509C43.4053 20.2509 42.5282 20.8472 42.3465 21.7623H40.1852C40.2496 19.8394 42.132 18.4414 44.6793 18.4414C47.4174 18.4414 49.2044 19.8191 49.2044 21.9579V29.3404H46.9895V27.562H46.936C46.3043 28.7238 44.9138 29.4534 43.4053 29.4534C41.1803 29.4534 39.6284 28.1786 39.6284 26.2662ZM46.9036 25.3099V24.4767L44.2402 24.6411C42.7427 24.7339 41.9609 25.2686 41.9609 26.2043C41.9609 27.1092 42.7747 27.6954 44.0476 27.6954C45.6737 27.6954 46.9036 26.6981 46.9036 25.3099Z" fill="#222222"/>
<path d="M51.2405 31.5312V33.3095C51.4011 33.3508 51.9891 33.3711 52.1712 33.3711C54.5036 33.3711 55.605 32.518 56.5685 29.9162L60.7728 18.575H58.3333L55.5093 27.3348H55.4554L52.631 18.575H50.1278L54.1825 29.3714L53.9684 30.0292C53.6043 31.1403 53.0061 31.5717 51.9465 31.5717C51.7536 31.5717 51.3898 31.5511 51.2405 31.5312Z" fill="#222222"/>
</svg>
