<svg width="70" height="45" viewBox="0 0 70 45" fill="none" xmlns="http://www.w3.org/2000/svg">
<path d="M1.08993 5.46009C0 7.59921 0 10.3995 0 16V29C0 34.6005 0 37.4008 1.08993 39.5399C2.04867 41.4215 3.57847 42.9513 5.46009 43.9101C7.59921 45 10.3995 45 16 45H54C59.6005 45 62.4008 45 64.5399 43.9101C66.4215 42.9513 67.9513 41.4215 68.9101 39.5399C70 37.4008 70 34.6005 70 29V16C70 10.3995 70 7.59921 68.9101 5.46009C67.9513 3.57847 66.4215 2.04867 64.5399 1.08993C62.4008 0 59.6005 0 54 0H16C10.3995 0 7.59921 0 5.46009 1.08993C3.57847 2.04867 2.04867 3.57847 1.08993 5.46009Z" fill="white"/>
<path d="M13.0625 35.3697V29.334H15.0032C16.4139 29.334 17.3214 29.8427 17.3214 30.8946C17.3214 31.4896 17.0339 31.9035 16.6295 32.1449C17.2135 32.4035 17.555 32.9036 17.555 33.5848C17.555 34.8006 16.6295 35.3697 15.1919 35.3697L13.0625 35.3697ZM14.3114 31.8431H15.2369C15.8029 31.8431 16.0455 31.5758 16.0455 31.0843C16.0455 30.5583 15.6052 30.3859 15.0122 30.3859H14.3114V31.8431ZM14.3114 34.3177H15.0841C15.8389 34.3177 16.2791 34.1367 16.2791 33.5676C16.2791 33.0071 15.9018 32.7743 15.1919 32.7743H14.3114V34.3177ZM19.9769 35.4731C18.746 35.4731 18.126 34.8954 18.126 34.1194C18.126 33.2658 18.8538 32.7657 19.932 32.7571C20.1999 32.7618 20.4671 32.7848 20.7316 32.8261V32.6191C20.7316 32.0932 20.4172 31.8431 19.8152 31.8431C19.4097 31.8382 19.0069 31.9085 18.6292 32.05L18.4045 31.1188C18.7909 30.9636 19.4109 30.8601 19.9589 30.8601C21.2797 30.8601 21.9356 31.5327 21.9356 32.6967V35.0938C21.5673 35.2748 20.8754 35.4731 19.9769 35.4731ZM20.7316 34.4988V33.5762C20.5222 33.5315 20.3083 33.5084 20.0937 33.5072C19.6804 33.5072 19.357 33.6624 19.357 34.0677C19.357 34.4298 19.6265 34.6195 20.1027 34.6195C20.3192 34.6263 20.5345 34.585 20.7316 34.4988ZM22.8086 35.3697V31.2395C23.4543 30.9906 24.1434 30.8619 24.8392 30.8601C26.151 30.8601 26.9057 31.4809 26.9057 32.6277V35.3697H25.6658V32.714C25.6658 32.119 25.3783 31.8431 24.8302 31.8431C24.558 31.8394 24.2883 31.8924 24.0395 31.9983V35.3697L22.8086 35.3697ZM31.2388 31.1188L31.0052 32.0587C30.6842 31.9252 30.3396 31.852 29.9899 31.8431C29.2621 31.8431 28.8668 32.3346 28.8668 33.1451C28.8668 34.0332 29.2801 34.4902 30.0528 34.4902C30.3976 34.4811 30.737 34.4049 31.0501 34.266L31.2478 35.2231C30.8409 35.3968 30.3992 35.4822 29.954 35.4731C28.4625 35.4731 27.5999 34.585 27.5999 33.1796C27.5999 31.7827 28.4535 30.8601 29.8821 30.8601C30.3479 30.8579 30.8093 30.9459 31.2388 31.1188H31.2388ZM33.9174 35.4731C32.5338 35.4731 31.6712 34.5505 31.6712 33.1623C31.6712 31.7827 32.5338 30.8601 33.9174 30.8601C35.3101 30.8601 36.1547 31.7827 36.1547 33.1623C36.1547 34.5505 35.3101 35.4731 33.9174 35.4731H33.9174ZM33.9174 34.4902C34.5554 34.4902 34.8878 33.9815 34.8878 33.1623C34.8878 32.3518 34.5554 31.8431 33.9174 31.8431C33.2885 31.8431 32.9381 32.3518 32.9381 33.1623C32.9381 33.9815 33.2885 34.4902 33.9174 34.4902H33.9174ZM36.8722 35.3697V31.2395C37.5179 30.9906 38.207 30.8619 38.9028 30.8601C40.2146 30.8601 40.9693 31.4809 40.9693 32.6277V35.3697H39.7294V32.714C39.7294 32.119 39.4419 31.8431 38.8938 31.8431C38.6217 31.8394 38.3519 31.8924 38.1031 31.9983V35.3697L36.8722 35.3697ZM43.7657 35.4731C42.6965 35.4731 42.1484 34.9127 42.1484 33.7745V31.9121H41.5374V30.9636H42.1484V30.0065L43.3883 29.9462V30.9636H44.3856V31.9121H43.3883V33.7573C43.3883 34.2574 43.6039 34.4902 44.0082 34.4902C44.1685 34.4898 44.3282 34.4725 44.4845 34.4385L44.5474 35.3956C44.2908 35.4501 44.0285 35.4761 43.7657 35.4731H43.7657ZM46.8953 35.4731C45.6644 35.4731 45.0444 34.8954 45.0444 34.1194C45.0444 33.2658 45.7722 32.7657 46.8504 32.7571C47.1183 32.7618 47.3855 32.7848 47.65 32.8261V32.6191C47.65 32.0932 47.3356 31.8431 46.7336 31.8431C46.328 31.8382 45.9253 31.9085 45.5476 32.05L45.3229 31.1188C45.7093 30.9636 46.3293 30.8601 46.8773 30.8601C48.1981 30.8601 48.854 31.5327 48.854 32.6967V35.0938C48.4856 35.2748 47.7938 35.4731 46.8953 35.4731H46.8953ZM47.65 34.4988V33.5762C47.4406 33.5315 47.2267 33.5084 47.0121 33.5072C46.5988 33.5072 46.2754 33.6624 46.2754 34.0677C46.2754 34.4298 46.5449 34.6195 47.0211 34.6195C47.2376 34.6263 47.4529 34.585 47.65 34.4988H47.65ZM53.0962 31.1188L52.8626 32.0587C52.5417 31.9252 52.197 31.852 51.8473 31.8431C51.1196 31.8431 50.7242 32.3346 50.7242 33.1451C50.7242 34.0332 51.1375 34.4902 51.9102 34.4902C52.2551 34.4811 52.5944 34.4049 52.9075 34.266L53.1052 35.2231C52.6984 35.3968 52.2566 35.4822 51.8114 35.4731C50.3199 35.4731 49.4573 34.585 49.4573 33.1796C49.4573 31.7827 50.3109 30.8601 51.7395 30.8601C52.2053 30.8579 52.6667 30.9459 53.0962 31.1188H53.0962ZM55.8223 35.4731C54.7531 35.4731 54.205 34.9127 54.205 33.7745V31.9121H53.5941V30.9636H54.205V30.0065L55.445 29.9462V30.9636H56.4423V31.9121H55.445V33.7573C55.445 34.2574 55.6606 34.4902 56.0649 34.4902C56.2252 34.4898 56.3849 34.4725 56.5411 34.4385L56.604 35.3956C56.3474 35.4501 56.0851 35.4761 55.8223 35.4731H55.8223Z" fill="#1E3764"/>
<path d="M21.7112 26.3164C28.2722 26.3164 31.5527 22.1188 34.8333 17.9213H13.0625V26.3164H21.7112Z" fill="url(#paint0_linear_261:23201)"/>
<path d="M47.9555 9.52625C41.3944 9.52625 38.1139 13.7238 34.8334 17.9213H56.6042V9.52625H47.9555Z" fill="url(#paint1_linear_261:23201)"/>
<defs>
<linearGradient id="paint0_linear_261:23201" x1="17.466" y1="22.5064" x2="33.2282" y2="16.4057" gradientUnits="userSpaceOnUse">
<stop stop-color="#005AB9"/>
<stop offset="1" stop-color="#1E3764"/>
</linearGradient>
<linearGradient id="paint1_linear_261:23201" x1="36.1516" y1="18.6495" x2="52.9119" y2="12.6908" gradientUnits="userSpaceOnUse">
<stop stop-color="#FBA900"/>
<stop offset="1" stop-color="#FFD800"/>
</linearGradient>
</defs>
</svg>
