<svg width="70" height="45" viewBox="0 0 70 45" fill="none" xmlns="http://www.w3.org/2000/svg">
<path d="M1.08993 5.46009C0 7.59921 0 10.3995 0 16V29C0 34.6005 0 37.4008 1.08993 39.5399C2.04867 41.4215 3.57847 42.9513 5.46009 43.9101C7.59921 45 10.3995 45 16 45H54C59.6005 45 62.4008 45 64.5399 43.9101C66.4215 42.9513 67.9513 41.4215 68.9101 39.5399C70 37.4008 70 34.6005 70 29V16C70 10.3995 70 7.59921 68.9101 5.46009C67.9513 3.57847 66.4215 2.04867 64.5399 1.08993C62.4008 0 59.6005 0 54 0H16C10.3995 0 7.59921 0 5.46009 1.08993C3.57847 2.04867 2.04867 3.57847 1.08993 5.46009Z" fill="white"/>
<g clip-path="url(#clip0_261:23202)">
<path fill-rule="evenodd" clip-rule="evenodd" d="M13.4084 13.2396H14.0853V32.6047H13.4084V13.2396Z" fill="#222222"/>
<path fill-rule="evenodd" clip-rule="evenodd" d="M11.9167 13.2396H13.1279V32.6047H11.9167V13.2396Z" fill="#222222"/>
<path fill-rule="evenodd" clip-rule="evenodd" d="M56.5403 13.2396H57.75V32.6047H56.5403V13.2396Z" fill="#222222"/>
<path d="M17.2521 13.2396H15.1744V21.7624H17.2521V13.2396Z" fill="#222222"/>
<path d="M18.6154 13.2396H17.94V21.7624H18.6154V13.2396Z" fill="#222222"/>
<path d="M20.4174 13.2396H19.2061V21.7624H20.4174V13.2396Z" fill="#222222"/>
<path d="M22.2601 13.2396H21.5847V21.7624H22.2601V13.2396Z" fill="#222222"/>
<path d="M23.0765 13.2396H22.5547V21.7624H23.0765V13.2396Z" fill="#222222"/>
<path d="M28.8758 13.2396H26.6914V21.7624H28.8758V13.2396Z" fill="#222222"/>
<path d="M30.239 13.2396H29.5636V21.7624H30.239V13.2396Z" fill="#222222"/>
<path d="M32.041 13.2396H30.8297V21.7624H32.041V13.2396Z" fill="#222222"/>
<path d="M33.8837 13.2396H33.2084V21.7624H33.8837V13.2396Z" fill="#222222"/>
<path d="M34.7001 13.2396H34.1783V21.7624H34.7001V13.2396Z" fill="#222222"/>
<path d="M25.709 13.2396H25.032V21.7624H25.709V13.2396Z" fill="#222222"/>
<path d="M24.7516 13.2396H23.5403V21.7624H24.7516V13.2396Z" fill="#222222"/>
<path d="M36.7685 13.2396H35.5573V21.7624H36.7685V13.2396Z" fill="#222222"/>
<path d="M38.6128 13.2396H37.9359V21.7624H38.6128V13.2396Z" fill="#222222"/>
<path d="M39.4276 13.2396H38.9074V21.7624H39.4276V13.2396Z" fill="#222222"/>
<path d="M42.0601 13.2396H41.3832V21.7624H42.0601V13.2396Z" fill="#222222"/>
<path d="M41.1027 13.2396H39.8914V21.7624H41.1027V13.2396Z" fill="#222222"/>
<path d="M43.6364 13.2396H42.9595V21.7624H43.6364V13.2396Z" fill="#222222"/>
<path d="M44.4528 13.2396H43.931V21.7624H44.4528V13.2396Z" fill="#222222"/>
<path d="M47.0838 13.2396H46.4084V21.7624H47.0838V13.2396Z" fill="#222222"/>
<path d="M46.1263 13.2396H44.9151V21.7624H46.1263V13.2396Z" fill="#222222"/>
<path d="M49.8573 13.2396H47.6745V21.7624H49.8573V13.2396Z" fill="#222222"/>
<path d="M51.2221 13.2396H50.5451V21.7624H51.2221V13.2396Z" fill="#222222"/>
<path d="M53.0225 13.2396H51.8112V21.7624H53.0225V13.2396Z" fill="#222222"/>
<path d="M54.8668 13.2396H54.1899V21.7624H54.8668V13.2396Z" fill="#222222"/>
<path d="M55.6816 13.2396H55.1598V21.7624H55.6816V13.2396Z" fill="#222222"/>
<path d="M15.1744 32.6106V22.7892H19.0635C19.714 22.7656 20.3627 22.8671 20.9705 23.0876C21.4359 23.2765 21.828 23.5975 22.0925 24.0065C22.3567 24.3925 22.4982 24.8424 22.4999 25.3025C22.4993 25.7209 22.375 26.1307 22.141 26.4856C21.8768 26.8769 21.5 27.1884 21.0552 27.3837C21.6269 27.5232 22.1345 27.8366 22.4999 28.2759C22.8407 28.7029 23.0191 29.2266 23.006 29.7618C23.0097 30.2068 22.904 30.6464 22.6973 31.0459C22.5248 31.4039 22.2642 31.7175 21.9373 31.9604C21.5966 32.1904 21.2118 32.3553 20.8044 32.4458C20.2553 32.5653 19.6927 32.6206 19.1294 32.6106H15.1744ZM16.5502 26.9176H18.7909C19.2304 26.9341 19.6704 26.8957 20.0993 26.8033C20.413 26.7274 20.6909 26.5545 20.8891 26.3119C21.0728 26.0599 21.1657 25.7584 21.1539 25.4524C21.1614 25.1485 21.0748 24.8491 20.9047 24.5914C20.7444 24.3435 20.4925 24.161 20.198 24.0793C19.6821 23.9661 19.1523 23.9196 18.6232 23.9412H16.5501L16.5502 26.9176ZM16.5502 31.4571H19.1325C19.4452 31.4653 19.758 31.4494 20.068 31.4096C20.3475 31.3698 20.6162 31.279 20.8593 31.1424C21.0815 31.0059 21.262 30.8165 21.3826 30.5931C21.5241 30.3375 21.5947 30.0519 21.5879 29.7633C21.5965 29.4223 21.4918 29.0874 21.2886 28.8058C21.0891 28.5333 20.7989 28.3321 20.4644 28.2343C19.9709 28.1075 19.4601 28.052 18.9492 28.0695H16.5502V31.4571Z" fill="#222222"/>
<path d="M24.2517 29.0507C24.2517 27.737 24.6387 26.7632 25.4128 26.1293C26.0702 25.5993 26.9113 25.3185 27.7742 25.341C28.2434 25.3251 28.7109 25.4023 29.1467 25.5677C29.5826 25.7331 29.977 25.9831 30.3048 26.3015C30.6456 26.6593 30.908 27.0776 31.0766 27.5322C31.2453 27.9869 31.3169 28.4687 31.2873 28.9498C31.3249 29.6907 31.1762 30.4295 30.8533 31.1053C30.5697 31.6233 30.1287 32.0488 29.5872 32.327C29.0322 32.6166 28.4078 32.7659 27.7742 32.7605C27.3023 32.7789 26.8316 32.7033 26.3925 32.5387C25.9533 32.374 25.5555 32.1239 25.2248 31.8045C24.5761 31.1676 24.2517 30.2497 24.2517 29.0507ZM25.5554 29.0522C25.4967 29.7828 25.72 30.5086 26.1838 31.0949C26.3821 31.3083 26.6262 31.4792 26.8997 31.5962C27.1733 31.7132 27.4701 31.7736 27.7702 31.7733C28.0704 31.773 28.367 31.7121 28.6403 31.5946C28.9137 31.4771 29.1574 31.3057 29.3553 31.0919C29.7752 30.6376 29.9852 29.9449 29.9852 29.0136C30.0392 28.2983 29.8133 27.5891 29.3506 27.0215C29.1529 26.8082 28.9095 26.6373 28.6367 26.5201C28.3639 26.4028 28.0678 26.342 27.7682 26.3416C27.4687 26.3411 27.1724 26.4011 26.8992 26.5176C26.626 26.6341 26.3821 26.8043 26.1838 27.017C25.7202 27.6005 25.4968 28.324 25.5554 29.0522" fill="#222222"/>
<path d="M32.7524 32.6105V22.7892H34.0263V32.6105H32.7524Z" fill="#222222"/>
<path d="M41.123 30.3051L42.4393 30.4699C42.2717 31.1409 41.8663 31.7372 41.2907 32.1592C40.6657 32.5793 39.9111 32.7908 39.1455 32.7604C38.6643 32.7833 38.1833 32.7095 37.7343 32.544C37.2852 32.3785 36.8781 32.1249 36.5397 31.8C35.8587 31.0578 35.5131 30.0916 35.5776 29.1101C35.5776 27.9166 35.9019 26.9903 36.5507 26.3312C36.8722 26.0043 37.2642 25.7467 37.7 25.5758C38.1358 25.405 38.6053 25.3249 39.0766 25.341C39.5351 25.3263 39.9915 25.4053 40.4149 25.5725C40.8383 25.7398 41.2188 25.9915 41.5304 26.3104C42.165 26.9561 42.4826 27.8656 42.4831 29.0388C42.4831 29.1101 42.48 29.217 42.4753 29.3595H36.8813C36.8782 30.0171 37.1264 30.6536 37.5801 31.1513C37.7802 31.3535 38.023 31.5134 38.2927 31.6206C38.5625 31.7278 38.8531 31.7798 39.1455 31.7733C39.573 31.7849 39.9924 31.6616 40.338 31.4229C40.7101 31.1316 40.9831 30.7428 41.123 30.3051ZM36.9534 28.3723H41.1371C41.1234 27.8879 40.9558 27.4186 40.6561 27.0259C40.469 26.8019 40.2294 26.6223 39.9564 26.5012C39.6833 26.3801 39.3842 26.3209 39.0829 26.3282C38.8108 26.3221 38.5402 26.3681 38.2874 26.4635C38.0345 26.5589 37.8046 26.7017 37.6115 26.8834C37.2023 27.2837 36.9673 27.8153 36.9534 28.3723" fill="#222222"/>
<path d="M46.8142 31.5328L46.9881 32.5987C46.6737 32.6652 46.3529 32.701 46.0307 32.7055C45.6596 32.7246 45.2894 32.6531 44.9558 32.4977C44.7196 32.3752 44.5316 32.1835 44.4199 31.9514C44.286 31.4872 44.2341 31.0051 44.2664 30.5248V26.4247H43.3246V25.491H44.2664V23.7319L45.5403 23.0074V25.491H46.8142V26.4247H45.5403V30.5931C45.5249 30.8168 45.5476 31.0414 45.6077 31.2582C45.6515 31.3571 45.7279 31.4399 45.8255 31.4942C45.9596 31.5589 46.1092 31.5891 46.2595 31.5818C46.4454 31.578 46.6308 31.5616 46.8142 31.5328" fill="#222222"/>
<path d="M47.593 29.0507C47.593 27.737 47.9801 26.7631 48.7541 26.1293C49.4116 25.5995 50.2527 25.3187 51.1155 25.341C51.5849 25.3252 52.0526 25.4025 52.4887 25.5679C52.9247 25.7333 53.3195 25.9831 53.6477 26.3015C53.9882 26.6594 54.2503 27.0778 54.419 27.5324C54.5876 27.987 54.6594 28.4687 54.6302 28.9498C54.6674 29.6908 54.5181 30.4296 54.1946 31.1052C53.911 31.6232 53.47 32.0488 52.9285 32.327C52.3735 32.6166 51.7491 32.7659 51.1155 32.7604C50.6436 32.7789 50.1729 32.7033 49.7338 32.5386C49.2946 32.374 48.8968 32.1238 48.5661 31.8044C47.9174 31.1676 47.593 30.2497 47.593 29.0507ZM48.8967 29.0522C48.8377 29.783 49.0616 30.5091 49.5266 31.0948C49.7248 31.3083 49.9687 31.4792 50.2422 31.5962C50.5156 31.7132 50.8123 31.7735 51.1123 31.7733C51.4124 31.773 51.7089 31.712 51.9821 31.5945C52.2553 31.477 52.4989 31.3057 52.6966 31.0919C53.1165 30.6376 53.3265 29.9449 53.3265 29.0136C53.3813 28.2981 53.1553 27.5887 52.6919 27.0214C52.4944 26.8082 52.2511 26.6373 51.9784 26.52C51.7057 26.4028 51.4098 26.3419 51.1103 26.3415C50.8109 26.3411 50.5147 26.4011 50.2417 26.5176C49.9686 26.6341 49.7248 26.8043 49.5266 27.017C49.0618 27.6 48.8378 28.3237 48.8967 29.0522" fill="#222222"/>
</g>
<defs>
<clipPath id="clip0_261:23202">
<rect width="45.8333" height="19.5208" fill="white" transform="translate(11.9167 13.2396)"/>
</clipPath>
</defs>
</svg>
