<svg width="70" height="45" viewBox="0 0 70 45" fill="none" xmlns="http://www.w3.org/2000/svg">
<path d="M1.08993 5.46009C0 7.59921 0 10.3995 0 16V29C0 34.6005 0 37.4008 1.08993 39.5399C2.04867 41.4215 3.57847 42.9513 5.46009 43.9101C7.59921 45 10.3995 45 16 45H54C59.6005 45 62.4008 45 64.5399 43.9101C66.4215 42.9513 67.9513 41.4215 68.9101 39.5399C70 37.4008 70 34.6005 70 29V16C70 10.3995 70 7.59921 68.9101 5.46009C67.9513 3.57847 66.4215 2.04867 64.5399 1.08993C62.4008 0 59.6005 0 54 0H16C10.3995 0 7.59921 0 5.46009 1.08993C3.57847 2.04867 2.04867 3.57847 1.08993 5.46009Z" fill="white"/>
<g clip-path="url(#clip0_261:23195)">
<path d="M42.1043 10.2515H27.8958L20.7917 22.5001L27.8958 34.7487H42.1043L49.2084 22.5001L42.1043 10.2515Z" fill="#0000B9"/>
<path d="M39.2776 21.6262C39.7424 21.4462 40.143 21.1328 40.4285 20.7256C40.7139 20.3185 40.8713 19.8361 40.8807 19.3397C40.9489 17.6784 39.691 16.5884 37.2929 16.5884H36.5657V13.7429H35.0643V16.5884H33.7507V13.7429H32.2493V16.5884H28.8411V18.1216H31.2406V26.758H29.4343L29.0612 28.2913H32.2493V31.1368H33.7507V28.2913H35.0643V31.1368H36.5657V28.2913H37.809C39.2869 28.2913 41.6722 27.5604 41.9181 24.8805C42.1191 22.6898 40.3822 21.7468 39.2776 21.6262ZM33.9149 18.1216H35.7681C36.7299 18.1216 37.7151 18.5022 37.7151 19.6844C37.7151 20.776 37.0583 21.34 35.815 21.34H33.9149V18.1216ZM36.2724 26.758H33.9149V22.8732H36.4249C37.4102 22.8732 38.63 23.3465 38.63 24.7647C38.63 26.2134 37.504 26.758 36.2724 26.758V26.758Z" fill="white"/>
</g>
<defs>
<clipPath id="clip0_261:23195">
<rect width="28.4167" height="24.4971" fill="white" transform="translate(20.7917 10.2515)"/>
</clipPath>
</defs>
</svg>
