<svg width="70" height="45" viewBox="0 0 70 45" fill="none" xmlns="http://www.w3.org/2000/svg">
<path d="M1.08993 5.46009C0 7.59921 0 10.3995 0 16V29C0 34.6005 0 37.4008 1.08993 39.5399C2.04867 41.4215 3.57847 42.9513 5.46009 43.9101C7.59921 45 10.3995 45 16 45H54C59.6005 45 62.4008 45 64.5399 43.9101C66.4215 42.9513 67.9513 41.4215 68.9101 39.5399C70 37.4008 70 34.6005 70 29V16C70 10.3995 70 7.59921 68.9101 5.46009C67.9513 3.57847 66.4215 2.04867 64.5399 1.08993C62.4008 0 59.6005 0 54 0H16C10.3995 0 7.59921 0 5.46009 1.08993C3.57847 2.04867 2.04867 3.57847 1.08993 5.46009Z" fill="white"/>
<path fill-rule="evenodd" clip-rule="evenodd" d="M32.9289 29.686V23.6702H36.2711C37.6416 23.6702 38.8014 23.2533 39.7397 22.4095C40.7097 21.5657 41.1946 20.5233 41.1946 19.2626C41.1946 18.0316 40.7097 16.9893 39.7397 16.1356C38.7908 15.2818 37.6311 14.855 36.2711 14.855H30.9047V29.686H32.9289ZM32.9289 21.8535V16.6915H36.3132C37.125 16.6915 37.7892 16.9496 38.3164 17.4757C38.8541 17.982 39.1282 18.5876 39.1282 19.2725C39.1282 19.9674 38.8541 20.5829 38.3164 21.0892C37.7892 21.5954 37.1145 21.8535 36.3132 21.8535H32.9289Z" fill="#222222"/>
<path fill-rule="evenodd" clip-rule="evenodd" d="M50.0297 20.3347C49.1651 19.5803 47.9843 19.203 46.4872 19.203C44.5684 19.203 43.1135 19.8681 42.133 21.2083L43.9147 22.2606C44.5684 21.3572 45.4646 20.9105 46.5927 20.9105C47.3412 20.9105 47.9949 21.1388 48.5537 21.6054C49.1124 22.0719 49.3865 22.6279 49.3865 23.293V23.7298C48.6169 23.3128 47.6259 23.1044 46.424 23.1044C45.0217 23.1044 43.8936 23.4121 43.0502 24.0375C42.2068 24.653 41.785 25.4869 41.785 26.5391C41.785 27.5318 42.1857 28.3558 42.9869 29.0209C43.7882 29.686 44.7793 30.0136 45.9706 30.0136C47.3623 30.0136 48.4798 29.4378 49.3127 28.2764H49.3971V29.686H51.3265V23.432C51.3265 22.1216 50.8942 21.0892 50.0297 20.3347ZM44.5473 27.8098C44.094 27.4822 43.8726 27.0653 43.8726 26.5689C43.8726 26.0229 44.1467 25.5563 44.7055 25.1692C45.2537 24.8019 45.939 24.6133 46.7613 24.6133C47.8894 24.6133 48.7645 24.8515 49.3971 25.3181C49.3971 26.1222 49.0597 26.8171 48.3955 27.4127C47.7313 28.0083 46.9722 28.3061 46.1182 28.3061C45.5173 28.3061 44.9901 28.1374 44.5473 27.8098Z" fill="#222222"/>
<path d="M55.5858 34.1432L62.3334 19.5306H60.1299L57.0091 26.8171H56.967L53.7619 19.5306H51.5584L56.0076 29.0308L53.4983 34.1432H55.5858Z" fill="#222222"/>
<path d="M26.2176 22.6095C26.2176 21.9721 26.1607 21.3622 26.055 20.7758H17.8736V24.1358L22.5854 24.1368C22.3943 25.2548 21.7793 26.2079 20.8369 26.8432V29.0232H23.6417C25.2794 27.5051 26.2176 25.2609 26.2176 22.6095Z" fill="#4285F4"/>
<path d="M20.8379 26.8434C20.0572 27.3708 19.0518 27.6793 17.8756 27.6793C15.6036 27.6793 13.6762 26.1459 12.9859 24.079H10.0928V26.3272C11.5261 29.1761 14.4722 31.1311 17.8756 31.1311C20.228 31.1311 22.2042 30.3562 23.6427 29.0224L20.8379 26.8434Z" fill="#34A853"/>
<path d="M12.7135 22.4111C12.7135 21.8307 12.8101 21.2696 12.9859 20.7422V18.494H10.0928C9.50012 19.6721 9.16669 21.0019 9.16669 22.4111C9.16669 23.8202 9.50114 25.15 10.0928 26.3281L12.9859 24.0799C12.8101 23.5525 12.7135 22.9914 12.7135 22.4111Z" fill="#FABB05"/>
<path d="M17.8756 17.1419C19.1596 17.1419 20.3093 17.5848 21.2171 18.4503L23.7026 15.9628C22.193 14.5546 20.2249 13.6902 17.8756 13.6902C14.4732 13.6902 11.5261 15.6451 10.0928 18.4941L12.9859 20.7423C13.6762 18.6753 15.6036 17.1419 17.8756 17.1419Z" fill="#E94235"/>
</svg>
