<svg width="70" height="45" viewBox="0 0 70 45" fill="none" xmlns="http://www.w3.org/2000/svg">
<path d="M1.08993 5.46009C0 7.59921 0 10.3995 0 16V29C0 34.6005 0 37.4008 1.08993 39.5399C2.04867 41.4215 3.57847 42.9513 5.46009 43.9101C7.59921 45 10.3995 45 16 45H54C59.6005 45 62.4008 45 64.5399 43.9101C66.4215 42.9513 67.9513 41.4215 68.9101 39.5399C70 37.4008 70 34.6005 70 29V16C70 10.3995 70 7.59921 68.9101 5.46009C67.9513 3.57847 66.4215 2.04867 64.5399 1.08993C62.4008 0 59.6005 0 54 0H16C10.3995 0 7.59921 0 5.46009 1.08993C3.57847 2.04867 2.04867 3.57847 1.08993 5.46009Z" fill="white"/>
<path d="M17.4166 9.31381V35.6863C17.4166 36.9487 18.4408 37.9815 19.6926 37.9815H35.3169C47.1291 37.9815 52.25 31.3138 52.25 22.4656C52.25 13.6633 47.1291 7.01855 35.3169 7.01855H19.6926C18.4408 7.01855 17.4166 8.05142 17.4166 9.31381Z" fill="white"/>
<path d="M27.8749 13.4913V32.978H36.2845C43.9203 32.978 47.2318 28.6285 47.2318 22.4772C47.2318 16.5899 43.9203 12.0223 36.2845 12.0223H29.3315C28.5235 12.0223 27.8749 12.688 27.8749 13.4913Z" fill="#CC0066"/>
<path d="M35.3171 35.8813H21.7297C20.5235 35.8813 19.5448 34.8943 19.5448 33.6779V11.3336C19.5448 10.1171 20.5235 9.13013 21.7297 9.13013H35.3171C48.2103 9.13013 50.1335 17.4963 50.1335 22.477C50.1335 31.1187 44.8647 35.8813 35.3171 35.8813ZM21.7297 9.86461C20.9217 9.86461 20.2731 10.5188 20.2731 11.3336V33.6779C20.2731 34.4927 20.9217 35.1468 21.7297 35.1468H35.3171C44.3981 35.1468 49.4052 30.6481 49.4052 22.477C49.4052 11.5057 40.5745 9.86461 35.3171 9.86461H21.7297Z" fill="black"/>
<path d="M30.833 19.849C31.1289 19.849 31.402 19.8949 31.6638 19.9867C31.9255 20.0785 32.1417 20.2277 32.3352 20.4113C32.5172 20.6064 32.6652 20.8474 32.779 21.1229C32.8814 21.4098 32.9383 21.7426 32.9383 22.1328C32.9383 22.4771 32.8928 22.7869 32.8131 23.0738C32.7221 23.3607 32.5969 23.6132 32.4262 23.8198C32.2555 24.0264 32.0393 24.187 31.7776 24.3133C31.5158 24.428 31.2086 24.4969 30.8558 24.4969H28.8643V19.8375H30.833V19.849ZM30.7648 23.6476C30.9127 23.6476 31.0493 23.6247 31.1972 23.5788C31.3337 23.5329 31.4589 23.4525 31.5613 23.3378C31.6638 23.223 31.7548 23.0853 31.8231 22.9017C31.8914 22.7181 31.9255 22.5115 31.9255 22.2475C31.9255 22.018 31.9027 21.8 31.8572 21.6163C31.8117 21.4327 31.732 21.2606 31.6296 21.1343C31.5272 21.0081 31.3906 20.8933 31.22 20.8245C31.0493 20.7556 30.8444 20.7212 30.5941 20.7212H29.8658V23.6591H30.7648V23.6476Z" fill="white"/>
<path d="M37.0466 19.849V20.7097H34.6113V21.7082H36.8531V22.5H34.6113V23.6362H37.1035V24.4969H33.5985V19.8375H37.0466V19.849Z" fill="white"/>
<path d="M40.5288 19.849L42.2585 24.5084H41.2002L40.8474 23.4755H39.1177L38.7535 24.5084H37.7294L39.4705 19.849H40.5288ZM40.5857 22.7066L40.0053 20.9966H39.9939L39.3908 22.7066H40.5857Z" fill="white"/>
<path d="M43.9085 19.849V23.6476H46.1617V24.5084H42.8957V19.849H43.9085Z" fill="white"/>
<path d="M24.0736 24.3247C25.2489 24.3247 26.2016 23.3639 26.2016 22.1787C26.2016 20.9934 25.2489 20.0326 24.0736 20.0326C22.8983 20.0326 21.9456 20.9934 21.9456 22.1787C21.9456 23.3639 22.8983 24.3247 24.0736 24.3247Z" fill="black"/>
<path d="M25.6783 32.9779C23.8917 32.9779 22.4579 31.5204 22.4579 29.7301V27.1938C22.4579 26.2987 23.1748 25.5642 24.0738 25.5642C24.9614 25.5642 25.6897 26.2872 25.6897 27.1938V32.9779H25.6783Z" fill="black"/>
</svg>
