<svg width="70" height="45" viewBox="0 0 70 45" fill="none" xmlns="http://www.w3.org/2000/svg">
<path d="M1.08993 5.46009C0 7.59921 0 10.3995 0 16V29C0 34.6005 0 37.4008 1.08993 39.5399C2.04867 41.4215 3.57847 42.9513 5.46009 43.9101C7.59921 45 10.3995 45 16 45H54C59.6005 45 62.4008 45 64.5399 43.9101C66.4215 42.9513 67.9513 41.4215 68.9101 39.5399C70 37.4008 70 34.6005 70 29V16C70 10.3995 70 7.59921 68.9101 5.46009C67.9513 3.57847 66.4215 2.04867 64.5399 1.08993C62.4008 0 59.6005 0 54 0H16C10.3995 0 7.59921 0 5.46009 1.08993C3.57847 2.04867 2.04867 3.57847 1.08993 5.46009Z" fill="white"/>
<path d="M40.2053 13.1266H29.7946V31.8749H40.2053V13.1266Z" fill="#FF5F00"/>
<path d="M30.4562 22.5001C30.4546 20.6945 30.8629 18.9121 31.6502 17.288C32.4375 15.664 33.5832 14.2407 35.0006 13.1259C33.2454 11.7433 31.1374 10.8835 28.9177 10.6448C26.6979 10.406 24.4559 10.7979 22.4479 11.7757C20.4399 12.7535 18.747 14.2778 17.5625 16.1742C16.3781 18.0706 15.75 20.2628 15.75 22.5001C15.75 24.7373 16.3781 26.9295 17.5625 28.8259C18.747 30.7224 20.4399 32.2466 22.4479 33.2244C24.4559 34.2022 26.6979 34.5941 28.9177 34.3554C31.1374 34.1166 33.2454 33.2568 35.0006 31.8742C33.5832 30.7595 32.4375 29.3361 31.6502 27.7121C30.8629 26.088 30.4546 24.3057 30.4562 22.5001Z" fill="#EB001B"/>
<path d="M54.25 22.5001C54.2501 24.7373 53.622 26.9294 52.4377 28.8259C51.2533 30.7223 49.5604 32.2466 47.5524 33.2244C45.5445 34.2022 43.3025 34.5941 41.0828 34.3554C38.8631 34.1166 36.7551 33.2568 35 31.8742C36.4161 30.7583 37.5609 29.3348 38.3481 27.711C39.1353 26.0871 39.5443 24.3054 39.5443 22.5001C39.5443 20.6947 39.1353 18.913 38.3481 17.2891C37.5609 15.6653 36.4161 14.2418 35 13.1259C36.7551 11.7433 38.8631 10.8835 41.0828 10.6448C43.3025 10.406 45.5445 10.7979 47.5524 11.7757C49.5604 12.7536 51.2533 14.2778 52.4377 16.1742C53.622 18.0707 54.2501 20.2628 54.25 22.5001Z" fill="#F79E1B"/>
<path d="M53.1149 29.8909V29.5071H53.2694V29.4289H52.876V29.5071H53.0305V29.8909H53.1149ZM53.8785 29.8909V29.4281H53.758L53.6193 29.7464L53.4806 29.4281H53.36V29.8909H53.4451V29.5418L53.5751 29.8428H53.6634L53.7935 29.541V29.8909H53.8785Z" fill="#F79E1B"/>
</svg>
