<svg width="70" height="45" viewBox="0 0 70 45" fill="none" xmlns="http://www.w3.org/2000/svg">
<path d="M1.08993 5.46009C0 7.59921 0 10.3995 0 16V29C0 34.6005 0 37.4008 1.08993 39.5399C2.04867 41.4215 3.57847 42.9513 5.46009 43.9101C7.59921 45 10.3995 45 16 45H54C59.6005 45 62.4008 45 64.5399 43.9101C66.4215 42.9513 67.9513 41.4215 68.9101 39.5399C70 37.4008 70 34.6005 70 29V16C70 10.3995 70 7.59921 68.9101 5.46009C67.9513 3.57847 66.4215 2.04867 64.5399 1.08993C62.4008 0 59.6005 0 54 0H16C10.3995 0 7.59921 0 5.46009 1.08993C3.57847 2.04867 2.04867 3.57847 1.08993 5.46009Z" fill="white"/>
<g clip-path="url(#clip0_261:23198)">
<path fill-rule="evenodd" clip-rule="evenodd" d="M34.7095 30.8956H44.7661C47.0609 30.8956 47.0848 28.584 46.8504 27.4434C46.7228 26.6759 45.3465 26.688 45.195 27.4434V28.3333C45.1946 28.5295 45.1122 28.7175 44.9657 28.8563C44.8193 28.995 44.6207 29.0732 44.4136 29.0735H25.1362C24.9291 29.0732 24.7306 28.995 24.5841 28.8563C24.4377 28.7175 24.3552 28.5295 24.3548 28.3333V27.4434C24.2033 26.688 22.827 26.6759 22.6994 27.4434C22.465 28.584 22.4889 30.8956 24.7838 30.8956H34.7095ZM27.6017 8.75H43.1059C44.1951 8.75 45.0866 9.64441 45.0866 10.7367V11.6855C45.0866 13.0271 43.1729 13.0211 43.1729 11.6946V11.1779C43.1729 11.0176 43.1057 10.8639 42.9861 10.7506C42.8664 10.6372 42.7042 10.5736 42.535 10.5736H26.9989C26.8297 10.5736 26.6675 10.6372 26.5478 10.7506C26.4282 10.8639 26.361 11.0176 26.361 11.1779V11.6855C26.361 13.0196 24.5334 13.0105 24.5334 11.7142V10.7382C24.5382 9.64592 25.4281 8.75 26.5173 8.75H27.6017Z" fill="#3D73B9"/>
<path fill-rule="evenodd" clip-rule="evenodd" d="M44.6959 19.6596C45.2282 19.8848 45.6817 20.2492 46.0032 20.71C46.3246 21.1708 46.5007 21.709 46.5107 22.2612C46.5107 23.8597 45.0371 25.168 43.2367 25.168H38.1861C37.967 25.1742 37.7541 25.0984 37.5936 24.957C37.433 24.8157 37.3376 24.6201 37.3281 24.4126V15.3054C37.3289 15.0938 37.4181 14.8912 37.5762 14.7417C37.7343 14.5922 37.9484 14.5081 38.1717 14.5077H42.3771C43.0076 14.5063 43.6246 14.6809 44.1511 15.0096C44.6776 15.3383 45.0902 15.8066 45.3375 16.3561C45.5849 16.9056 45.6559 17.5119 45.5418 18.0994C45.4277 18.6869 45.1335 19.2295 44.6959 19.6596ZM40.9275 18.9193H42.5302V18.9027C42.8899 18.8492 43.2177 18.6762 43.455 18.4146C43.6922 18.153 43.8235 17.8199 43.8251 17.4749C43.8239 17.0923 43.6628 16.7256 43.3772 16.455C43.0915 16.1844 42.7045 16.0318 42.3005 16.0306H39.0712V23.5847H43.1649C43.5826 23.5973 43.9884 23.4522 44.2931 23.1813C44.5979 22.9104 44.7765 22.5359 44.7898 22.1403C44.8031 21.7446 44.65 21.3601 44.364 21.0714C44.0781 20.7827 43.6828 20.6134 43.2651 20.6008C43.2317 20.5998 43.1983 20.5998 43.1649 20.6008H40.9275C40.6927 20.601 40.4675 20.5127 40.3015 20.3556C40.1354 20.1984 40.042 19.9852 40.0419 19.7628C40.0417 19.5404 40.1348 19.3271 40.3007 19.1698C40.4666 19.0124 40.6917 18.924 40.9264 18.9238H40.9275" fill="#1D1D1B"/>
<path d="M28.2412 33.6907C28.2412 33.6225 28.2698 33.5572 28.3206 33.509C28.3715 33.4609 28.4404 33.4338 28.5123 33.4338C28.5842 33.4338 28.6532 33.4609 28.704 33.509C28.7549 33.5572 28.7834 33.6225 28.7834 33.6907V35.0776C28.783 35.3825 28.6551 35.6749 28.4276 35.8907C28.2001 36.1064 27.8917 36.228 27.5698 36.2288C27.2479 36.2284 26.9393 36.1072 26.7116 35.8917C26.4838 35.6763 26.3555 35.384 26.3546 35.0791V33.6922C26.3518 33.6569 26.3566 33.6214 26.3689 33.588C26.3812 33.5546 26.4006 33.5239 26.426 33.498C26.4514 33.472 26.4822 33.4513 26.5164 33.4371C26.5506 33.423 26.5876 33.4156 26.6249 33.4156C26.6623 33.4156 26.6992 33.423 26.7335 33.4371C26.7677 33.4513 26.7985 33.472 26.8238 33.498C26.8492 33.5239 26.8687 33.5546 26.881 33.588C26.8932 33.6214 26.8981 33.6569 26.8952 33.6922V35.0791C26.8969 35.2484 26.9687 35.4102 27.0952 35.5298C27.2217 35.6493 27.3927 35.717 27.5714 35.7182C27.7503 35.7174 27.9217 35.6496 28.048 35.5296C28.1744 35.4096 28.2456 35.2471 28.246 35.0776L28.2412 33.6907Z" fill="#1D1D1B"/>
<path d="M30.8055 35.7166C30.8411 35.7166 30.8764 35.7232 30.9093 35.736C30.9422 35.7489 30.9722 35.7677 30.9974 35.7915C31.0226 35.8153 31.0426 35.8436 31.0563 35.8747C31.07 35.9059 31.0771 35.9393 31.0772 35.973C31.0772 36.0067 31.0703 36.0401 31.0567 36.0713C31.0432 36.1025 31.0232 36.1309 30.9981 36.1547C30.973 36.1786 30.9431 36.1976 30.9103 36.2106C30.8774 36.2236 30.8422 36.2303 30.8066 36.2303H30.0528C29.7834 36.2303 29.525 36.1289 29.3345 35.9484C29.144 35.768 29.037 35.5232 29.037 35.2679V33.6906C29.037 33.6229 29.0654 33.558 29.1159 33.5101C29.1664 33.4622 29.235 33.4353 29.3065 33.4353C29.3779 33.4353 29.4465 33.4622 29.497 33.5101C29.5476 33.558 29.576 33.6229 29.576 33.6906V35.2649C29.576 35.3851 29.6264 35.5004 29.7161 35.5854C29.8058 35.6704 29.9275 35.7182 30.0544 35.7182H30.8055V35.7166Z" fill="#1D1D1B"/>
<path d="M36.5259 24.26C36.545 24.3849 36.5379 24.5121 36.5051 24.6344C36.4722 24.7567 36.4143 24.8716 36.3345 24.9727C36.2548 25.0738 36.1548 25.159 36.0403 25.2235C35.9259 25.2879 35.7991 25.3304 35.6673 25.3485C35.5354 25.3665 35.4011 25.3598 35.2721 25.3287C35.143 25.2976 35.0216 25.2427 34.9149 25.1672C34.8082 25.0916 34.7183 24.9969 34.6502 24.8884C34.5822 24.78 34.5373 24.6599 34.5183 24.535C34.5146 24.5109 34.5119 24.4867 34.5102 24.4624L33.6761 17.2241L30.7402 24.3023V24.3355V24.3733V24.3884C30.6758 24.4951 30.5896 24.5886 30.4866 24.6634L30.4706 24.6754C30.4173 24.7211 30.3584 24.7607 30.2952 24.7933L30.2761 24.8024L30.2585 24.8114H30.1581C30.0627 24.8437 29.9626 24.8615 29.8615 24.8643H29.7881C29.6744 24.8612 29.5621 24.8392 29.4564 24.7993H29.3735L29.3559 24.7903L29.34 24.7812H29.3304C29.2738 24.7526 29.2204 24.7187 29.1709 24.68L29.1374 24.6513L29.1119 24.6286L29.0513 24.6135L29.021 24.5818C28.9801 24.5349 28.9443 24.4843 28.9142 24.4307V24.4216L28.9046 24.4065L28.895 24.3899V24.3325V24.3189L25.9049 17.2241L25.074 24.4624C25.0457 24.7155 24.9124 24.9475 24.7035 25.1074C24.4946 25.2673 24.2272 25.3421 23.9601 25.3153C23.693 25.2884 23.4481 25.1622 23.2792 24.9643C23.1104 24.7663 23.0315 24.513 23.0598 24.26L24.039 15.7269C24.0807 15.3736 24.2458 15.0437 24.5082 14.7896C24.7706 14.5356 25.1152 14.372 25.487 14.3248H25.5413C25.6267 14.3188 25.7126 14.3188 25.798 14.3248C25.9012 14.3287 26.0037 14.3418 26.1042 14.3641C26.3687 14.4215 26.6144 14.5393 26.8199 14.7073C27.0253 14.8754 27.1842 15.0884 27.2827 15.328L29.7929 21.338L32.2982 15.3084C32.4161 15.0225 32.6192 14.7755 32.8829 14.5973C33.1466 14.4191 33.4593 14.3176 33.783 14.3052C33.8684 14.2992 33.9542 14.2992 34.0397 14.3052H34.0939C34.3581 14.3389 34.6101 14.4315 34.8291 14.5754C35.0481 14.7194 35.2279 14.9105 35.3538 15.1331C35.4027 15.2224 35.4438 15.3154 35.4766 15.4111C35.5088 15.5095 35.5307 15.6107 35.542 15.7133L36.5259 24.26Z" fill="#1D1D1B"/>
<path d="M26.2494 35.9447C26.256 35.9792 26.2551 36.0146 26.2467 36.0488C26.2383 36.0829 26.2226 36.115 26.2006 36.1432C26.1786 36.1714 26.1508 36.195 26.1188 36.2126C26.0868 36.2302 26.0513 36.2414 26.0146 36.2456C25.9778 36.2497 25.9406 36.2467 25.9051 36.2366C25.8697 36.2266 25.8368 36.2098 25.8084 36.1873C25.7801 36.1648 25.7569 36.137 25.7403 36.1057C25.7237 36.0744 25.7141 36.0402 25.712 36.0052L25.4807 34.1574L24.653 35.9704C24.6246 36.0329 24.5712 36.0821 24.5046 36.1073C24.4379 36.1325 24.3634 36.1316 24.2974 36.1049C24.234 36.079 24.1837 36.0308 24.1571 35.9704L23.3294 34.1574L23.0966 36.0052C23.0944 36.0402 23.0848 36.0744 23.0682 36.1057C23.0516 36.137 23.0284 36.1648 23.0001 36.1873C22.9717 36.2098 22.9388 36.2266 22.9034 36.2366C22.8679 36.2467 22.8307 36.2497 22.7939 36.2456C22.7572 36.2414 22.7217 36.2302 22.6897 36.2126C22.6577 36.195 22.6299 36.1714 22.6079 36.1432C22.5859 36.115 22.5702 36.0829 22.5618 36.0488C22.5535 36.0146 22.5525 35.9792 22.5591 35.9447L22.8318 33.7994C22.8406 33.7318 22.8669 33.6673 22.9083 33.6117C22.9498 33.556 23.0051 33.511 23.0694 33.4806C23.0864 33.4718 23.104 33.4643 23.1221 33.4579H23.1428C23.1686 33.4494 23.1954 33.4439 23.2225 33.4413C23.2905 33.4324 23.3596 33.4379 23.425 33.4575C23.4904 33.4771 23.5504 33.5103 23.6005 33.5546C23.6206 33.5725 23.6388 33.5922 23.6547 33.6135C23.6665 33.629 23.6771 33.6451 23.6866 33.6619C23.6925 33.6711 23.6979 33.6807 23.7026 33.6906L24.4043 35.2316L25.1059 33.6785C25.1348 33.6168 25.1788 33.5625 25.2343 33.5202C25.2897 33.4779 25.3551 33.4488 25.4249 33.4353C25.4512 33.4301 25.4778 33.4266 25.5046 33.4247H25.5876C25.6566 33.432 25.7229 33.4542 25.7815 33.4896C25.8401 33.5249 25.8894 33.5725 25.9256 33.6286C25.9408 33.6519 25.9531 33.6768 25.9623 33.7027C25.969 33.7188 25.9738 33.7355 25.9767 33.7525C25.9774 33.7636 25.9774 33.7747 25.9767 33.7858L26.2494 35.9447Z" fill="#1D1D1B"/>
<path d="M31.9857 35.9735C31.9857 36.0416 31.9571 36.107 31.9063 36.1551C31.8554 36.2033 31.7865 36.2304 31.7146 36.2304C31.6427 36.2304 31.5737 36.2033 31.5229 36.1551C31.472 36.107 31.4435 36.0416 31.4435 35.9735V33.9475H30.6732C30.6013 33.9475 30.5323 33.9205 30.4815 33.8723C30.4307 33.8241 30.4021 33.7588 30.4021 33.6907C30.4021 33.6226 30.4307 33.5572 30.4815 33.5091C30.5323 33.4609 30.6013 33.4338 30.6732 33.4338H32.756C32.8279 33.4338 32.8968 33.4609 32.9477 33.5091C32.9985 33.5572 33.0271 33.6226 33.0271 33.6907C33.0271 33.7588 32.9985 33.8241 32.9477 33.8723C32.8968 33.9205 32.8279 33.9475 32.756 33.9475H31.9857V35.9735Z" fill="#1D1D1B"/>
<path d="M33.6761 35.9735C33.6761 36.0416 33.6475 36.107 33.5967 36.1551C33.5458 36.2033 33.4769 36.2304 33.405 36.2304C33.3331 36.2304 33.2641 36.2033 33.2133 36.1551C33.1624 36.107 33.1339 36.0416 33.1339 35.9735V33.6907C33.1339 33.6226 33.1624 33.5572 33.2133 33.5091C33.2641 33.4609 33.3331 33.4338 33.405 33.4338C33.4769 33.4338 33.5458 33.4609 33.5967 33.5091C33.6475 33.5572 33.6761 33.6226 33.6761 33.6907V35.9735Z" fill="#1D1D1B"/>
<path d="M39.2275 35.9449C39.232 36.0104 39.2099 36.0751 39.1657 36.1257C39.1215 36.1763 39.0585 36.2089 38.9897 36.2168C38.9209 36.2247 38.8515 36.2074 38.7957 36.1683C38.74 36.1293 38.7022 36.0715 38.69 36.0068L38.5943 35.2816H37.663C37.6258 35.2843 37.5883 35.2797 37.5531 35.2681C37.5178 35.2565 37.4854 35.238 37.458 35.214C37.4306 35.1899 37.4087 35.1608 37.3938 35.1284C37.3788 35.0959 37.3711 35.0609 37.3711 35.0255C37.3711 34.9902 37.3788 34.9552 37.3938 34.9227C37.4087 34.8903 37.4306 34.8611 37.458 34.8371C37.4854 34.8131 37.5178 34.7946 37.5531 34.783C37.5883 34.7714 37.6258 34.7668 37.663 34.7695H38.5337L38.5082 34.5806V34.5625C38.5012 34.5181 38.4911 34.4742 38.4779 34.431C38.4633 34.3848 38.4447 34.3398 38.4221 34.2966C38.3747 34.1956 38.2979 34.1094 38.2008 34.0482C38.1037 33.9869 37.9902 33.9531 37.8735 33.9506C37.8274 33.9509 37.7814 33.956 37.7364 33.9657C37.6942 33.9756 37.6536 33.9903 37.6152 34.0095C37.5079 34.0683 37.4175 34.1511 37.3519 34.2507C37.2863 34.3502 37.2474 34.4635 37.2388 34.5806L37.0698 36.0068C37.066 36.0402 37.0552 36.0726 37.0382 36.102C37.0212 36.1315 36.9982 36.1575 36.9706 36.1785C36.943 36.1996 36.9112 36.2152 36.8772 36.2246C36.8432 36.234 36.8075 36.237 36.7723 36.2333C36.737 36.2296 36.7029 36.2194 36.6718 36.2032C36.6408 36.187 36.6134 36.1652 36.5913 36.139C36.5691 36.1127 36.5527 36.0826 36.5428 36.0504C36.533 36.0181 36.53 35.9843 36.5339 35.9509L36.703 34.5247C36.7209 34.3229 36.7913 34.1284 36.9079 33.9586C37.0245 33.7888 37.1837 33.6491 37.3712 33.5517C37.4473 33.5155 37.5276 33.4876 37.6104 33.4686C37.6967 33.4496 37.7849 33.44 37.8735 33.4399C38.0907 33.4411 38.3031 33.501 38.4856 33.6126C38.6681 33.7242 38.8132 33.8829 38.9037 34.07C38.9407 34.14 38.9716 34.2128 38.9962 34.2875C39.017 34.3564 39.0325 34.4265 39.0425 34.4975C39.044 34.505 39.044 34.5127 39.0425 34.5202L39.2275 35.9449Z" fill="#1D1D1B"/>
<path d="M40.0552 35.9735C40.058 36.0088 40.0532 36.0443 40.0409 36.0777C40.0286 36.1111 40.0091 36.1418 39.9838 36.1677C39.9584 36.1937 39.9276 36.2144 39.8934 36.2286C39.8591 36.2427 39.8222 36.25 39.7848 36.25C39.7475 36.25 39.7105 36.2427 39.6763 36.2286C39.6421 36.2144 39.6113 36.1937 39.5859 36.1677C39.5605 36.1418 39.5411 36.1111 39.5288 36.0777C39.5165 36.0443 39.5117 36.0088 39.5145 35.9735V33.8584C39.5129 33.8438 39.5129 33.8291 39.5145 33.8146C39.518 33.7862 39.525 33.7583 39.5353 33.7315L39.5576 33.6861C39.6043 33.6075 39.6797 33.5479 39.7697 33.5184L39.8064 33.5094H39.9068C39.9622 33.5116 40.0164 33.5252 40.0657 33.5492C40.115 33.5732 40.1582 33.607 40.1923 33.6484L41.6276 35.3904V33.6907C41.6276 33.6226 41.6562 33.5572 41.707 33.5091C41.7578 33.4609 41.8268 33.4338 41.8987 33.4338C41.9706 33.4338 42.0396 33.4609 42.0904 33.5091C42.1412 33.5572 42.1698 33.6226 42.1698 33.6907V35.8058C42.1696 35.8595 42.1567 35.9124 42.1321 35.9607C42.1076 36.0091 42.072 36.0517 42.0279 36.0853C42.0106 36.0991 41.9919 36.1113 41.9721 36.1216C41.9614 36.1275 41.9502 36.1326 41.9386 36.1367L41.9162 36.1458C41.8212 36.1772 41.7168 36.1718 41.626 36.1307L41.5909 36.114C41.572 36.1027 41.5543 36.0896 41.5383 36.0748C41.5258 36.0644 41.5141 36.0533 41.5032 36.0415L41.4936 36.0309L40.0552 34.2829V35.9735Z" fill="#1D1D1B"/>
<path d="M44.2845 35.7166C44.3564 35.7165 44.4254 35.7434 44.4763 35.7915C44.5273 35.8396 44.556 35.9048 44.5561 35.9729C44.5562 36.0411 44.5278 36.1064 44.477 36.1547C44.4263 36.203 44.3574 36.2301 44.2855 36.2303H43.4871C43.2041 36.2303 42.9328 36.1238 42.7327 35.9342C42.5326 35.7447 42.4202 35.4876 42.4202 35.2195V34.4475C42.421 34.1797 42.5337 33.9231 42.7336 33.7337C42.9335 33.5443 43.2044 33.4376 43.4871 33.4368H44.2845C44.3564 33.4368 44.4253 33.4638 44.4762 33.512C44.527 33.5602 44.5556 33.6255 44.5556 33.6936C44.5556 33.7617 44.527 33.8271 44.4762 33.8752C44.4253 33.9234 44.3564 33.9504 44.2845 33.9504H43.4871C43.3465 33.952 43.2123 34.0063 43.1139 34.1015C43.064 34.1472 43.0242 34.2019 42.9968 34.2623C42.9694 34.3228 42.955 34.3878 42.9544 34.4535V35.2256C42.9553 35.358 43.0112 35.4847 43.11 35.5783C43.2088 35.6719 43.3426 35.7249 43.4823 35.7257H44.2797L44.2845 35.7166Z" fill="#1D1D1B"/>
<path d="M45.8521 33.9459C45.6615 33.9452 45.478 34.0145 45.3402 34.1393C45.2748 34.1975 45.2226 34.2677 45.1867 34.3456C45.1508 34.4235 45.1319 34.5075 45.1313 34.5925V35.0715C45.1316 35.1564 45.1502 35.2403 45.1858 35.3182C45.2215 35.3961 45.2735 35.4664 45.3386 35.5247C45.4764 35.6495 45.6599 35.7188 45.8505 35.7181C46.0411 35.7188 46.2246 35.6495 46.3624 35.5247C46.4278 35.4665 46.48 35.3963 46.5159 35.3184C46.5518 35.2405 46.5707 35.1565 46.5714 35.0715V34.5925C46.5706 34.5077 46.5519 34.4238 46.5163 34.346C46.4807 34.2681 46.4289 34.1978 46.364 34.1393C46.2254 34.0148 46.0415 33.9456 45.8505 33.9459H45.8521ZM45.8505 33.4337C46.1808 33.4326 46.4986 33.5528 46.7372 33.7691C46.8551 33.875 46.9491 34.0024 47.0135 34.1437C47.0779 34.2849 47.1114 34.4371 47.112 34.591V35.0699C47.1114 35.2238 47.0779 35.376 47.0135 35.5173C46.9491 35.6585 46.8551 35.786 46.7372 35.8918C46.4986 36.1081 46.1808 36.2284 45.8505 36.2272C45.5203 36.2284 45.2024 36.1081 44.9638 35.8918C44.8465 35.7857 44.7529 35.6582 44.6888 35.5169C44.6246 35.3757 44.5913 35.2237 44.5907 35.0699V34.591C44.5913 34.4373 44.6246 34.2852 44.6888 34.144C44.7529 34.0028 44.8465 33.8753 44.9638 33.7691C45.2024 33.5528 45.5203 33.4326 45.8505 33.4337Z" fill="#1D1D1B"/>
<path d="M34.4433 33.9475V35.7167H35.4894C35.5795 35.7167 35.6659 35.6828 35.7296 35.6224C35.7933 35.5621 35.8291 35.4802 35.8291 35.3949V35.3934C35.8293 35.3128 35.7974 35.2351 35.7398 35.1758L35.7286 35.1667C35.6976 35.1362 35.6605 35.112 35.6194 35.0954C35.5783 35.0788 35.5341 35.0701 35.4894 35.07H35.129C35.0571 35.07 34.9881 35.043 34.9373 34.9948C34.8864 34.9466 34.8579 34.8813 34.8579 34.8132C34.8579 34.7451 34.8864 34.6798 34.9373 34.6316C34.9881 34.5834 35.0571 34.5564 35.129 34.5564H35.2518C35.3287 34.5499 35.4008 34.5184 35.4559 34.4672C35.4862 34.4391 35.5103 34.4054 35.5268 34.3683C35.5432 34.3312 35.5516 34.2914 35.5516 34.2512C35.5516 34.171 35.518 34.0942 35.4582 34.0375C35.3984 33.9808 35.3172 33.949 35.2327 33.949H34.4433V33.9475ZM33.901 34.8162V33.7012C33.9009 33.6664 33.9085 33.6319 33.9234 33.6C33.9383 33.567 33.9594 33.5369 33.9856 33.5109C34.0339 33.4671 34.0974 33.4413 34.1642 33.4384H35.2247C35.4535 33.4384 35.6729 33.5245 35.8347 33.6778C35.9965 33.831 36.0874 34.0389 36.0874 34.2557C36.0869 34.4096 36.0411 34.5603 35.9551 34.6908C36.0127 34.7231 36.0663 34.7617 36.1146 34.8056L36.1321 34.8238C36.2869 34.9783 36.3731 35.1833 36.3729 35.3964C36.3725 35.6174 36.2796 35.8293 36.1146 35.9856C35.9496 36.142 35.7259 36.23 35.4926 36.2304H34.1721C34.1002 36.2304 34.0313 36.2033 33.9804 36.1551C33.9296 36.107 33.901 36.0416 33.901 35.9735V34.8162Z" fill="#1D1D1B"/>
</g>
<defs>
<clipPath id="clip0_261:23198">
<rect width="24.5572" height="27.5" fill="white" transform="translate(22.5547 8.75)"/>
</clipPath>
</defs>
</svg>
