<svg width="70" height="45" viewBox="0 0 70 45" fill="none" xmlns="http://www.w3.org/2000/svg">
<path d="M1.08993 5.46009C0 7.59921 0 10.3995 0 16V29C0 34.6005 0 37.4008 1.08993 39.5399C2.04867 41.4215 3.57847 42.9513 5.46009 43.9101C7.59921 45 10.3995 45 16 45H54C59.6005 45 62.4008 45 64.5399 43.9101C66.4215 42.9513 67.9513 41.4215 68.9101 39.5399C70 37.4008 70 34.6005 70 29V16C70 10.3995 70 7.59921 68.9101 5.46009C67.9513 3.57847 66.4215 2.04867 64.5399 1.08993C62.4008 0 59.6005 0 54 0H16C10.3995 0 7.59921 0 5.46009 1.08993C3.57847 2.04867 2.04867 3.57847 1.08993 5.46009Z" fill="white"/>
<path fill-rule="evenodd" clip-rule="evenodd" d="M59.9808 18.0164C59.9842 17.6416 59.9876 17.2683 59.9674 16.9138C59.7241 16.9188 59.4848 16.9145 59.2488 16.9104C58.4866 16.897 57.7593 16.8842 57.0452 17.1823C55.9982 17.5817 55.3088 18.5276 55.3136 19.5956C55.3189 20.6595 55.3171 21.7395 55.3153 22.8219C55.3125 24.4515 55.3098 26.0866 55.3314 27.6807C55.824 27.7191 56.3498 27.7139 56.8725 27.7087C57.209 27.7053 57.5444 27.702 57.8688 27.7103L57.9848 27.6762C57.9715 25.9322 57.9715 24.1788 57.9848 22.4338C58.2808 22.3948 58.5956 22.4024 58.908 22.41C59.1011 22.4146 59.2933 22.4193 59.4797 22.4129L59.5245 22.3248C59.5245 22.1275 59.5262 21.9289 59.528 21.7298C59.5325 21.2122 59.5371 20.691 59.5112 20.181C59.1948 20.1391 58.8569 20.147 58.5234 20.1547C58.3521 20.1587 58.1819 20.1626 58.0163 20.1598C57.9177 19.8275 58.0745 19.3229 58.4685 19.2094C58.6942 19.1615 58.9473 19.1707 59.1999 19.1798C59.4778 19.1899 59.7551 19.1999 59.9945 19.1338C59.974 18.7715 59.9774 18.3931 59.9808 18.0164ZM10.6344 17.4184C11.355 17.4142 11.9591 17.8137 12.2812 18.4109C12.5731 18.9546 12.8766 19.5121 13.1813 20.0721C13.6849 20.9973 14.1922 21.9293 14.6574 22.8172L14.769 22.8969C14.7501 21.9763 14.7525 21.0537 14.7549 20.1313C14.7571 19.3174 14.7592 18.5037 14.7467 17.6918L14.7916 17.5866C15.3528 17.5786 15.9175 17.5825 16.4814 17.5864C16.8032 17.5886 17.1247 17.5908 17.445 17.5908L17.4721 17.7001V26.4789C17.4539 26.9755 17.1904 27.4422 16.7334 27.6978C16.3894 27.9123 15.9239 27.9252 15.5344 27.82C14.9302 27.6264 14.5407 27.0295 14.2371 26.5374C13.4361 25.1124 12.6392 23.6871 11.8472 22.2621C11.821 22.2227 11.8001 22.1742 11.7789 22.1248C11.7278 22.0058 11.6744 21.8816 11.5384 21.8668C11.5696 23.7926 11.5696 25.7644 11.5384 27.6901C10.9853 27.736 10.4225 27.7284 9.86237 27.7208C9.65239 27.718 9.4427 27.7152 9.23411 27.7152L9.16666 27.6355C9.18133 25.7176 9.17899 23.7979 9.17665 21.8789C9.17539 20.8403 9.17412 19.8019 9.17555 18.764C9.20261 18.0491 9.85569 17.3975 10.6344 17.4184ZM30.3921 20.1431C30.9918 19.9961 31.6226 19.979 32.2268 20.1093C34.1241 20.4878 35.5963 22.1531 35.5559 23.9862C35.5785 26.0882 33.5826 27.9551 31.3406 27.8879C29.179 27.9005 27.2731 26.1262 27.219 24.1039C27.1204 22.2833 28.5303 20.593 30.3921 20.1431ZM30.1593 24.9826C30.6467 25.5794 31.5681 25.7309 32.2401 25.3106C33.077 24.7935 33.2475 23.637 32.5982 22.9182C32.1593 22.4094 31.3984 22.2412 30.759 22.4975C29.7653 22.9224 29.4658 24.192 30.1593 24.9826ZM51.1307 20.2112C51.5554 20.2105 51.9802 20.2098 52.4048 20.2148C52.46 20.4086 52.4482 20.6193 52.4364 20.8302C52.4263 21.0126 52.4161 21.1951 52.4492 21.3668C52.5323 21.2829 52.5893 21.1802 52.6466 21.077C52.713 20.9573 52.7798 20.837 52.8881 20.7445C53.3755 20.2611 54.1097 20.1894 54.7854 20.2231C54.7838 20.4778 54.7848 20.7335 54.7858 20.9892V20.9897C54.7878 21.4894 54.7897 21.9899 54.7721 22.4843C54.2661 22.4885 53.5997 22.5013 53.1787 22.7956C52.8218 23.0639 52.7998 23.5064 52.7801 23.9038L52.78 23.9051C52.7788 23.9307 52.7775 23.9562 52.7761 23.9814C52.7778 24.4256 52.777 24.8703 52.7763 25.3155V25.3186C52.775 26.0984 52.7737 26.8794 52.785 27.6602L52.682 27.7065C52.3394 27.6979 51.9891 27.7007 51.638 27.7034C51.1318 27.7073 50.6241 27.7112 50.1357 27.6814C50.1114 26.2239 50.115 24.7173 50.1186 23.2173V23.2165C50.121 22.2371 50.1233 21.2604 50.1179 20.3022L50.1623 20.2103C50.4851 20.2122 50.8079 20.2117 51.1307 20.2112ZM43.4185 20.2112C43.0592 20.2117 42.6997 20.2122 42.3402 20.2103L42.3087 20.3113V24.7012C42.358 25.7859 42.8236 26.8624 43.8484 27.4342C44.6631 27.9008 45.5756 27.9555 46.5022 27.8503C47.4555 27.7159 48.3325 27.1862 48.7887 26.3748C49.1112 25.8236 49.2543 25.2096 49.2498 24.5831C49.248 24.0056 49.2491 23.424 49.2502 22.8419V22.8395C49.2518 21.9646 49.2534 21.0886 49.2454 20.2231C48.8097 20.212 48.3728 20.2137 47.9353 20.2154C47.5369 20.2169 47.138 20.2184 46.7391 20.2103L46.6812 20.3029C46.6956 21.1973 46.6933 22.0952 46.6909 22.9933C46.6896 23.484 46.6883 23.9751 46.6898 24.4654C46.699 24.86 46.5738 25.2643 46.1753 25.4621C45.7995 25.6512 45.3117 25.5376 45.07 25.2096C44.9425 25.0226 44.8758 24.805 44.8777 24.5831C44.8759 24.0133 44.877 23.4435 44.878 22.874V22.8714C44.8796 22.0171 44.8812 21.1636 44.8732 20.3116L44.8373 20.2148C44.3643 20.2098 43.8914 20.2105 43.4185 20.2112ZM38.5411 20.2148C39.4181 20.2103 40.2995 20.2103 41.1768 20.2148C41.2487 20.858 41.2213 21.56 41.1901 22.2078C40.7645 22.2381 40.3277 22.2333 39.8915 22.2284C39.6071 22.2252 39.3229 22.2221 39.0422 22.2287C38.8547 22.2412 38.6753 22.3338 38.5856 22.4891C38.5192 22.6656 38.7189 22.7872 38.8661 22.8769C38.8874 22.8899 38.9077 22.9023 38.9258 22.914C39.1149 23.0002 39.3048 23.0771 39.4938 23.1537C39.9043 23.3201 40.3104 23.4847 40.6935 23.7379C41.1453 24.0197 41.5348 24.44 41.6419 24.9533C41.7494 25.6637 41.6286 26.433 41.0871 26.9755C40.5637 27.5052 39.7898 27.6988 39.0422 27.7114H36.0081L35.9232 27.6525C35.9366 26.9916 35.9366 26.3282 35.9232 25.6637L36.0126 25.6007C36.3652 25.599 36.7178 25.6 37.0702 25.601H37.0707C37.5992 25.6025 38.127 25.604 38.653 25.5965C38.8854 25.5585 39.0778 25.2768 38.8717 25.0919C38.6652 24.9114 38.3762 24.8117 38.0929 24.7139C37.9472 24.6636 37.803 24.6138 37.6723 24.5539C36.9429 24.2676 36.3209 23.8013 36.1063 23.0568C35.954 22.4178 35.9629 21.6861 36.4103 21.1439C36.8851 20.5376 37.7531 20.2148 38.5411 20.2148ZM26.4491 22.3418C25.9525 21.5639 25.3661 20.8831 24.4981 20.4582C23.3524 19.8916 21.8891 19.8697 20.7382 20.4335C19.8287 20.8562 19.1059 21.5663 18.6975 22.439C18.223 23.4391 18.2453 24.6416 18.7556 25.6254C19.4628 27.034 21.0789 28.0095 22.7568 27.8959C24.6634 27.8204 26.2205 26.6137 26.9947 25.0202L26.9766 24.9826C26.6639 24.8061 26.3319 24.6517 25.9994 24.4969C25.713 24.3637 25.4262 24.2303 25.1508 24.0824L25.0522 24.1245C24.6719 24.8182 24.0677 25.4154 23.2623 25.6592C22.6852 25.8357 22.0451 25.7222 21.6022 25.3228C20.6711 24.5156 20.716 23.0275 21.6604 22.2492C22.1882 21.8205 22.9221 21.8543 23.5262 22.1064L23.5803 22.2116C23.3228 22.3773 23.0431 22.5429 22.7611 22.71C22.3129 22.9754 21.8586 23.2445 21.4769 23.5234C21.5676 23.6547 21.6592 23.794 21.7525 23.9357C21.9906 24.2975 22.239 24.6748 22.5058 24.9738C22.9198 24.7084 23.3351 24.4431 23.7506 24.1776L23.7521 24.1766C24.6526 23.6012 25.554 23.0251 26.4447 22.447L26.4491 22.3418Z" fill="#F53392"/>
</svg>
