<svg width="70" height="45" viewBox="0 0 70 45" fill="none" xmlns="http://www.w3.org/2000/svg">
<path d="M1.08993 5.46009C0 7.59921 0 10.3995 0 16V29C0 34.6005 0 37.4008 1.08993 39.5399C2.04867 41.4215 3.57847 42.9513 5.46009 43.9101C7.59921 45 10.3995 45 16 45H54C59.6005 45 62.4008 45 64.5399 43.9101C66.4215 42.9513 67.9513 41.4215 68.9101 39.5399C70 37.4008 70 34.6005 70 29V16C70 10.3995 70 7.59921 68.9101 5.46009C67.9513 3.57847 66.4215 2.04867 64.5399 1.08993C62.4008 0 59.6005 0 54 0H16C10.3995 0 7.59921 0 5.46009 1.08993C3.57847 2.04867 2.04867 3.57847 1.08993 5.46009Z" fill="white"/>
<path d="M60.4452 18.7155C59.7677 18.2645 58.7423 18.0371 57.3982 18.0371H53.8782L52.5696 24.9392H47.9582L48.2546 23.3733H51.0324L51.3616 21.6145L48.5854 21.6183L48.8826 20.0594H51.7439L52.1245 18.0375H46.3139L45.0716 24.5846H42.9393L44.19 18.0372H41.1526L39.9102 24.5842H37.833L39.0849 18.0372H36.0491L34.7388 24.9393H30.0944L30.388 23.3733H33.1769L33.5065 21.6245L30.7202 21.6218L31.0158 20.0597H33.9091L34.2874 18.037H16.1805L15.1499 23.5064L13.0975 18.037H9.94612L8.25 26.963H11.2596L12.2862 21.3428L14.2779 26.963H25.064L26.3755 20.0589H28.0624L26.751 26.963H55.1315L55.9544 22.6049L57.2854 26.963H60.2966L58.9172 23.4019L59.2328 23.3359C59.867 23.2256 60.4396 22.8987 60.8474 22.4142C61.2414 21.8943 61.4421 21.2598 61.4167 20.6146C61.4167 19.7701 61.0987 19.1488 60.4444 18.715L60.4452 18.7155ZM22.445 24.9392H17.8381L18.1357 23.3733H21.0253L21.3529 21.6095H18.4911L18.7667 20.0598H23.3669L22.4442 24.9392L22.445 24.9392ZM57.9641 21.9326C57.6613 22.1383 57.2223 22.2384 56.6219 22.2384H56.0267L56.4833 19.8431H56.9211C57.4196 19.8431 57.7831 19.9207 58.034 20.079C58.1743 20.1696 58.2877 20.2943 58.3629 20.4407C58.4381 20.5871 58.4725 20.7501 58.4626 20.9134C58.4743 21.1104 58.4347 21.307 58.3474 21.4852C58.2601 21.6633 58.128 21.8172 57.9633 21.9326L57.9641 21.9326Z" fill="#83BA3B"/>
</svg>
