<svg width="70" height="45" viewBox="0 0 70 45" fill="none" xmlns="http://www.w3.org/2000/svg">
<path d="M1.08993 5.46009C0 7.59921 0 10.3995 0 16V29C0 34.6005 0 37.4008 1.08993 39.5399C2.04867 41.4215 3.57847 42.9513 5.46009 43.9101C7.59921 45 10.3995 45 16 45H54C59.6005 45 62.4008 45 64.5399 43.9101C66.4215 42.9513 67.9513 41.4215 68.9101 39.5399C70 37.4008 70 34.6005 70 29V16C70 10.3995 70 7.59921 68.9101 5.46009C67.9513 3.57847 66.4215 2.04867 64.5399 1.08993C62.4008 0 59.6005 0 54 0H16C10.3995 0 7.59921 0 5.46009 1.08993C3.57847 2.04867 2.04867 3.57847 1.08993 5.46009Z" fill="white"/>
<path d="M35.5478 20.6899H37.5379C37.6081 20.6899 37.6769 20.7112 37.7344 20.7507C37.8907 20.8583 37.9295 21.0711 37.8208 21.2259L31.2023 30.688C31.0947 30.841 30.9183 30.9325 30.7299 30.9322H28.7423C28.6707 30.9322 28.6009 30.9102 28.5426 30.8693C28.3874 30.7599 28.3507 30.5468 28.4612 30.3931L30.5218 27.512L28.3299 21.1413C28.3176 21.1057 28.3116 21.0683 28.3116 21.0305C28.3119 20.8419 28.4668 20.6895 28.657 20.6899H30.6128C30.8668 20.6899 31.0908 20.8552 31.1642 21.0959L32.3273 24.9437L35.0719 20.9397C35.1792 20.7839 35.3573 20.6902 35.5478 20.6899Z" fill="#003284"/>
<path fill-rule="evenodd" clip-rule="evenodd" d="M25.0109 20.6899H26.9911C27.0095 20.6899 27.0278 20.6913 27.0458 20.6944C27.2331 20.7241 27.3605 20.8985 27.3305 21.084L26.2602 27.7964C26.2164 28.0735 25.9755 28.2775 25.6922 28.2775H23.9085C23.8905 28.2775 23.8725 28.2758 23.8545 28.2733C23.6669 28.2433 23.5388 28.0683 23.5688 27.882L23.657 27.3373C23.657 27.3373 22.6794 28.4603 20.9162 28.4603C19.8889 28.4603 19.0253 28.1668 18.4217 27.4624C17.7638 26.6966 17.4949 25.5981 17.684 24.4497C18.0481 22.1468 19.9171 20.5054 22.1054 20.5054C23.0597 20.5054 24.0154 20.7116 24.4444 21.3279L24.5827 21.5267L24.6705 20.9781C24.697 20.8122 24.8413 20.6899 25.0109 20.6899ZM21.9968 26.3797C23.1419 26.3797 24.0397 25.6274 24.2309 24.507C24.3174 23.9647 24.1978 23.4721 23.8958 23.1195C23.5949 22.7705 23.1377 22.5853 22.5753 22.5853C21.4475 22.5853 20.5345 23.362 20.356 24.4731C20.2629 25.0178 20.3743 25.5072 20.6668 25.8507C20.9621 26.1969 21.4214 26.3797 21.9968 26.3797Z" fill="#003284"/>
<path fill-rule="evenodd" clip-rule="evenodd" d="M10.4943 16.9015H14.6296C16.014 16.9015 17.0564 17.2631 17.6442 17.9472C18.1793 18.5702 18.3564 19.4594 18.1716 20.591C17.7609 23.1782 16.1886 24.4835 13.4647 24.4835H12.1556C11.8726 24.4839 11.632 24.6879 11.5883 24.9646L11.1374 27.7971C11.0937 28.0742 10.8524 28.2782 10.5695 28.2779H8.5953C8.57731 28.2782 8.55932 28.2768 8.54168 28.274C8.35329 28.245 8.22488 28.0704 8.25416 27.8841L9.9267 17.3819C9.9708 17.1052 10.2117 16.9015 10.4943 16.9015ZM12.6509 22.2069C13.747 22.2069 14.8808 22.2069 15.1069 20.7374C15.1899 20.221 15.1232 19.8472 14.9062 19.596C14.5421 19.1743 13.8376 19.1743 13.0912 19.1743H12.805C12.6354 19.1743 12.4911 19.2965 12.4646 19.4621L12.0268 22.2069H12.6509Z" fill="#003284"/>
<path d="M57.1243 27.8839L58.8219 17.1895C58.8483 17.0235 58.9922 16.9012 59.1616 16.9009H61.0722C61.0902 16.9009 61.1079 16.9023 61.1255 16.9051C61.3135 16.9344 61.442 17.1091 61.4123 17.2953L59.7384 27.7969C59.695 28.0743 59.454 28.2776 59.1708 28.2776H57.4643C57.4464 28.2776 57.4284 28.2762 57.4107 28.2738C57.2227 28.2441 57.0946 28.0697 57.1243 27.8839Z" fill="#009DDB"/>
<path fill-rule="evenodd" clip-rule="evenodd" d="M54.508 20.6896H56.4871C56.5048 20.6896 56.5224 20.691 56.5401 20.6938C56.7284 20.7225 56.8579 20.8972 56.829 21.0837L55.7579 27.7962C55.7142 28.0729 55.4736 28.2769 55.1907 28.2773H53.4074C53.389 28.2773 53.3707 28.2759 53.3523 28.2731C53.1643 28.243 53.0366 28.068 53.0666 27.8821L53.1548 27.3371C53.1548 27.3371 52.1772 28.46 50.414 28.46C49.3863 28.46 48.5241 28.1665 47.9195 27.4622C47.2615 26.6963 46.9938 25.5978 47.1825 24.4494C47.5466 22.1466 49.4149 20.5052 51.6032 20.5052C52.5575 20.5052 53.5128 20.7113 53.9415 21.3276L54.0805 21.5264L54.1683 20.9779C54.1941 20.8116 54.3383 20.6893 54.508 20.6896ZM51.4925 26.3794C52.6379 26.3794 53.5372 25.6272 53.727 24.5067C53.8145 23.9644 53.6949 23.4718 53.3918 23.1193C53.0906 22.7702 52.6337 22.5851 52.0714 22.5851C50.9435 22.5851 50.0316 23.3617 49.852 24.4728C49.7599 25.0175 49.8704 25.507 50.1628 25.8508C50.4581 26.1967 50.9188 26.3794 51.4925 26.3794Z" fill="#009DDB"/>
<path fill-rule="evenodd" clip-rule="evenodd" d="M39.9903 16.9012H44.1264C45.5107 16.9012 46.5524 17.2628 47.1395 17.9469C47.6746 18.5699 47.8532 19.4591 47.6672 20.5908C47.2562 23.178 45.6846 24.4833 42.9601 24.4833H41.6516C41.3687 24.4836 41.1281 24.6877 41.0843 24.9644L40.6098 27.9412C40.5791 28.1347 40.4109 28.2776 40.213 28.2776H38.0906C38.0726 28.2776 38.0546 28.2762 38.0366 28.2738C37.849 28.2441 37.7209 28.0697 37.7505 27.8839L38.5868 22.6328L39.4231 17.3816C39.4672 17.1053 39.7078 16.9016 39.9903 16.9012ZM42.1473 22.2067C43.2441 22.2067 44.3779 22.2067 44.6033 20.7372C44.6862 20.2208 44.6206 19.8469 44.4033 19.5957C44.0392 19.174 43.3344 19.174 42.5879 19.174H42.3021C42.1324 19.174 41.9882 19.2963 41.962 19.4619L41.5239 22.2067H42.1473Z" fill="#009DDB"/>
</svg>
