<svg width="70" height="45" viewBox="0 0 70 45" fill="none" xmlns="http://www.w3.org/2000/svg">
<path d="M1.08993 5.46009C0 7.59921 0 10.3995 0 16V29C0 34.6005 0 37.4008 1.08993 39.5399C2.04867 41.4215 3.57847 42.9513 5.46009 43.9101C7.59921 45 10.3995 45 16 45H54C59.6005 45 62.4008 45 64.5399 43.9101C66.4215 42.9513 67.9513 41.4215 68.9101 39.5399C70 37.4008 70 34.6005 70 29V16C70 10.3995 70 7.59921 68.9101 5.46009C67.9513 3.57847 66.4215 2.04867 64.5399 1.08993C62.4008 0 59.6005 0 54 0H16C10.3995 0 7.59921 0 5.46009 1.08993C3.57847 2.04867 2.04867 3.57847 1.08993 5.46009Z" fill="white"/>
<path fill-rule="evenodd" clip-rule="evenodd" d="M12.6104 28.6445C12.6104 28.5298 12.6091 28.4187 12.5951 28.3053C12.5804 28.1714 12.5513 28.039 12.5047 27.9129C12.3738 27.5661 12.1294 27.3465 11.7704 27.2557C11.6422 27.2217 11.512 27.2041 11.3811 27.2041H9.4163C9.36735 27.2041 9.31808 27.2067 9.2701 27.2168C9.05244 27.2531 8.85828 27.3443 8.67716 27.4678C8.58253 27.5331 8.51074 27.6178 8.45526 27.7161C8.39717 27.822 8.35214 27.9331 8.32179 28.0491C8.27023 28.241 8.25 28.439 8.25 28.6357V34.5773C8.25261 34.6002 8.26012 34.6077 8.28655 34.6104H9.53117C9.56478 34.6077 9.57131 34.6028 9.57392 34.5724C9.57479 34.5531 9.5745 34.5367 9.57421 34.52C9.57406 34.5117 9.57392 34.5032 9.57392 34.4943V32.716C9.57392 32.6908 9.57392 32.664 9.57522 32.6389C9.57653 32.6049 9.58403 32.5973 9.61406 32.5947H11.1661C11.2653 32.5947 11.3661 32.5947 11.4656 32.5846C11.6331 32.5696 11.792 32.5228 11.9378 32.4421C12.055 32.3777 12.1584 32.2895 12.2528 32.1938C12.4906 31.9578 12.613 31.6729 12.6117 31.3324C12.6091 30.6868 12.6096 30.0425 12.6101 29.3976C12.6102 29.1467 12.6104 28.8957 12.6104 28.6445ZM11.2829 29.8994V30.8706C11.2829 30.9249 11.2803 30.9817 11.2512 31.0284C11.1798 31.1445 11.0842 31.2275 10.9354 31.2275H9.99194C9.92146 31.2275 9.85456 31.215 9.7906 31.1886C9.68487 31.1454 9.62026 31.0673 9.59252 30.9562C9.57881 30.9046 9.57392 30.8503 9.57392 30.7961C9.57479 30.6353 9.5745 30.4739 9.57421 30.3135C9.57406 30.2337 9.57392 30.1541 9.57392 30.0749C9.57392 29.9571 9.57406 29.839 9.57421 29.7208V29.7199C9.5745 29.4826 9.57479 29.2449 9.57392 29.0102C9.57392 28.9511 9.57751 28.8942 9.59121 28.8373C9.62156 28.7076 9.70086 28.6204 9.83204 28.5841C9.87838 28.5713 9.92668 28.5638 9.97563 28.5638H10.9618C10.9944 28.5638 11.03 28.5661 11.0636 28.5762C11.1759 28.6001 11.2402 28.6746 11.2666 28.7831C11.2803 28.8324 11.2842 28.8841 11.2842 28.9357C11.2829 29.2563 11.2829 29.5778 11.2829 29.8994Z" fill="#008AC9"/>
<path d="M36.4858 26.5481C36.3826 26.5873 36.3121 26.6592 36.2818 26.7651C36.2717 26.7991 36.2625 26.837 36.2606 26.8736C36.258 26.9706 36.258 27.0641 36.2606 27.1576C36.2606 27.1938 36.2678 27.2014 36.3069 27.2014H37.156C37.187 27.204 37.1975 27.2118 37.1975 27.2406C37.1998 27.2556 37.1998 27.2696 37.1998 27.2847V28.4869C37.1998 28.5263 37.1998 28.5461 37.1898 28.5561C37.1797 28.5663 37.1594 28.5663 37.1182 28.5663H36.3572L36.338 28.5663C36.2998 28.5661 36.2806 28.566 36.271 28.5756C36.2612 28.5853 36.2613 28.6049 36.2615 28.6446L36.2616 28.6647V32.4875C36.2616 32.495 36.2618 32.5024 36.2621 32.5099C36.2626 32.5249 36.2631 32.54 36.2616 32.5571C36.2593 32.5884 36.2541 32.5933 36.2201 32.5959L35.0197 32.5959C34.975 32.596 34.9529 32.596 34.9423 32.5849C34.9319 32.5741 34.9325 32.5527 34.9337 32.5103L34.9341 32.4966V26.5014C34.9341 26.3677 34.9478 26.238 34.9781 26.1092C35.0375 25.8886 35.1556 25.703 35.3296 25.5504C35.5538 25.355 35.8168 25.2491 36.1079 25.2099C36.1885 25.1975 36.2743 25.1923 36.3562 25.1923C36.6117 25.19 36.8698 25.19 37.1257 25.1923C37.2011 25.1923 37.2037 25.1923 37.2037 25.2668V26.4347C37.2037 26.5141 37.2011 26.5141 37.1257 26.5141H36.6858C36.6166 26.5141 36.5523 26.5229 36.4858 26.5481Z" fill="#008AC9"/>
<path fill-rule="evenodd" clip-rule="evenodd" d="M17.67 27.5018C17.8388 27.6518 17.9409 27.8436 17.9925 28.0629C18.0277 28.208 18.044 28.3557 18.044 28.507C18.044 28.739 18.0441 28.9712 18.0442 29.2036C18.0444 29.9011 18.0447 30.5999 18.0427 31.298C18.0427 31.5176 18.0049 31.7297 17.9092 31.9287C17.8022 32.1546 17.6446 32.3274 17.4279 32.4509C17.2944 32.5291 17.1512 32.5709 16.9975 32.5833C16.8976 32.596 16.7984 32.596 16.6976 32.596H15.0513C14.846 32.5934 14.6407 32.5735 14.4417 32.514C14.2795 32.465 14.1307 32.3866 14.0047 32.2706C13.8624 32.1369 13.7743 31.9667 13.7267 31.7748C13.6924 31.6438 13.6758 31.5114 13.6745 31.3761C13.6735 31.0044 13.6725 30.6322 13.6745 30.2602C13.6771 30.0847 13.6999 29.9131 13.7541 29.7429C13.8611 29.4125 14.0791 29.1932 14.4077 29.0808C14.5575 29.0292 14.7125 29.0066 14.8698 28.9975C14.9116 28.9952 14.9556 28.9952 14.9984 28.9952H16.6105C16.6256 28.9952 16.6388 28.9954 16.6503 28.9956C16.6883 28.9963 16.7076 28.9966 16.7172 28.9871C16.7271 28.9774 16.727 28.9574 16.7267 28.9169C16.7266 28.9046 16.7265 28.8904 16.7266 28.8739C16.7279 28.8324 16.7253 28.7883 16.7126 28.7455C16.6888 28.671 16.6408 28.6217 16.5716 28.5952C16.525 28.5775 16.4783 28.5687 16.4293 28.5687C16.4016 28.5661 16.3726 28.5661 16.3435 28.5661H13.8145C13.8065 28.5661 13.7986 28.5664 13.7908 28.5667C13.7753 28.5673 13.7598 28.5678 13.744 28.5661C13.7022 28.5661 13.6989 28.5612 13.6976 28.5145C13.6968 28.5028 13.6971 28.4916 13.6973 28.4803C13.6975 28.4746 13.6976 28.4688 13.6976 28.4628C13.6976 28.3355 13.6975 28.2085 13.6974 28.0816L13.6973 28.0788C13.6971 27.8235 13.6968 27.5688 13.6976 27.3126L13.6976 27.2986L13.6975 27.2846C13.6972 27.2426 13.697 27.2222 13.7071 27.2124C13.7166 27.2032 13.7352 27.2034 13.7714 27.2038C13.7801 27.2039 13.7899 27.2041 13.8008 27.2041H16.7002C16.8666 27.2041 17.0311 27.2191 17.1913 27.2609C17.3688 27.3073 17.5327 27.3818 17.67 27.5018ZM16.7113 31.0347C16.7214 31.003 16.7253 30.9677 16.7253 30.9337C16.7266 30.8415 16.7266 30.7533 16.7266 30.6651C16.7261 30.6484 16.726 30.6314 16.7259 30.6143C16.7257 30.5885 16.7256 30.5621 16.724 30.5363C16.7139 30.404 16.6369 30.3118 16.5086 30.2801C16.4607 30.2703 16.413 30.2628 16.3651 30.2628C16.1924 30.2651 16.0214 30.2651 15.8498 30.2651H15.3371C15.297 30.2651 15.2578 30.2677 15.219 30.2752C15.0653 30.2981 15.0389 30.3536 15.0137 30.4873C15.0111 30.4948 15.0111 30.5049 15.0111 30.5138C15.0107 30.5655 15.0101 30.6173 15.0095 30.669C15.0084 30.772 15.0072 30.875 15.0072 30.9765C15.0072 31.0258 15.0274 31.0673 15.0614 31.1C15.141 31.1794 15.2327 31.2314 15.3498 31.2288C15.4405 31.2272 15.5318 31.2277 15.6232 31.2283C15.6689 31.2285 15.7147 31.2288 15.7604 31.2288H16.3866C16.4519 31.2288 16.5174 31.2186 16.5778 31.1896C16.6473 31.1608 16.6924 31.1101 16.7113 31.0347Z" fill="#008AC9"/>
<path fill-rule="evenodd" clip-rule="evenodd" d="M42.2554 27.9774C42.1422 27.5999 41.8991 27.3617 41.5173 27.2584C41.3727 27.2166 41.2252 27.2016 41.0767 27.2016H39.2741C39.2225 27.2016 39.171 27.2016 39.1207 27.2065C38.9533 27.2192 38.7921 27.2532 38.6381 27.3176C38.3813 27.4274 38.1985 27.6101 38.0928 27.8715C38.0161 28.0643 37.9897 28.2636 37.9871 28.4679C37.9846 28.7895 37.9893 29.11 37.994 29.4313L37.9946 29.4731C37.9972 29.6653 37.9977 29.8581 37.9982 30.0514C37.999 30.3361 37.9997 30.6217 38.0073 30.9073C38.0079 30.9589 38.0076 31.0106 38.0072 31.0623C38.0063 31.2077 38.0054 31.3538 38.0249 31.4988C38.035 31.5871 38.0487 31.674 38.0716 31.7596C38.1143 31.9223 38.1998 32.0563 38.3082 32.1834C38.4733 32.3717 38.6772 32.4965 38.9217 32.5504C39.0904 32.5873 39.2591 32.5949 39.433 32.5972H42.2277C42.2806 32.5972 42.3052 32.5972 42.3166 32.5848C42.3266 32.5741 42.3265 32.554 42.3263 32.5164L42.3263 32.4988V31.3309C42.3263 31.3247 42.3263 31.3189 42.3264 31.3134L42.3265 31.2991C42.327 31.2635 42.3273 31.245 42.3184 31.2359C42.3093 31.2267 42.2905 31.2269 42.2526 31.2273C42.2431 31.2275 42.2325 31.2276 42.2205 31.2276H39.6017C39.5401 31.2276 39.4908 31.1998 39.4568 31.1505C39.4472 31.1395 39.4398 31.1281 39.4324 31.1167C39.4263 31.1073 39.4202 31.0979 39.4128 31.0887C39.3436 30.9979 39.3361 30.892 39.3436 30.7861C39.3436 30.7721 39.3511 30.7649 39.3612 30.7596C39.374 30.7521 39.3851 30.7469 39.4004 30.742C39.6307 30.6504 39.8617 30.5588 40.0925 30.4673L40.1021 30.4635C40.2848 30.391 40.4675 30.3186 40.6496 30.2463C41.003 30.1087 41.3547 29.9701 41.7071 29.8312L41.7087 29.8306L41.71 29.8301L41.7108 29.8297L41.7183 29.8268C41.8987 29.7557 42.0794 29.6845 42.2607 29.6133C42.2679 29.61 42.2745 29.6072 42.2809 29.6046C42.2899 29.6009 42.2983 29.5974 42.307 29.593C42.3197 29.5891 42.3276 29.579 42.3276 29.5665C42.3302 29.5512 42.3302 29.5375 42.3302 29.5247V28.4754C42.3302 28.3078 42.3044 28.1398 42.2554 27.9774ZM40.8394 28.8834C40.8067 28.8963 40.7739 28.9092 40.7406 28.9218C40.6066 28.9725 40.473 29.0232 40.3396 29.0738L40.3391 29.074C40.0376 29.1884 39.7371 29.3025 39.4343 29.4152C39.4175 29.422 39.3993 29.4274 39.3809 29.4328C39.3689 29.4364 39.3568 29.44 39.3449 29.444C39.3309 29.4466 39.3211 29.4365 39.3211 29.4237L39.3207 29.421C39.3183 29.4021 39.3159 29.3839 39.3159 29.3646V29.1401C39.3159 29.1144 39.3162 29.0886 39.3165 29.0628C39.317 29.0113 39.3176 28.9591 39.3159 28.9081C39.3159 28.83 39.3436 28.7656 39.4004 28.7087C39.496 28.6104 39.6122 28.561 39.7515 28.5636C39.9518 28.5654 40.1536 28.5648 40.3542 28.5642C40.454 28.5639 40.5534 28.5636 40.6522 28.5636C40.7253 28.5636 40.7948 28.5764 40.8561 28.613C40.9283 28.6532 40.9697 28.71 40.972 28.7934C40.972 28.8185 40.9645 28.8349 40.9381 28.845C40.9048 28.8576 40.8721 28.8705 40.8394 28.8834Z" fill="#008AC9"/>
<path d="M26.0581 28.5814C26.0232 28.5889 25.9863 28.6004 25.9524 28.6154C25.8692 28.6546 25.8264 28.7213 25.8215 28.8098C25.8189 28.8588 25.8202 28.9082 25.8215 28.9572C25.8251 29.0507 25.8731 29.1199 25.9589 29.1592C26.0105 29.1804 26.066 29.1954 26.1237 29.2007C26.1691 29.2033 26.2144 29.2033 26.2598 29.2033H27.3755C27.6186 29.2059 27.8454 29.2699 28.0396 29.4199C28.284 29.602 28.4511 29.8389 28.5219 30.1392C28.5408 30.2222 28.551 30.3068 28.551 30.3925C28.551 30.5044 28.5508 30.6161 28.5507 30.7279C28.5504 30.9512 28.5501 31.1743 28.551 31.398C28.551 31.5114 28.5294 31.6225 28.489 31.7257C28.3806 32.0094 28.2021 32.2391 27.9652 32.4231C27.8657 32.5002 27.7537 32.5443 27.6291 32.5682C27.5103 32.5858 27.3922 32.596 27.2711 32.596C26.3757 32.596 25.4828 32.596 24.5861 32.5986L24.5784 32.5986C24.537 32.5986 24.5171 32.5986 24.5075 32.5887C24.4986 32.5794 24.4987 32.5615 24.4989 32.527L24.4989 32.5104V31.3173L24.4989 31.3064C24.4989 31.2677 24.4988 31.2488 24.5082 31.2396C24.5172 31.2309 24.5348 31.231 24.569 31.2312L24.5883 31.2313H26.8266C26.8994 31.2313 26.9689 31.2251 27.0355 31.1999C27.1001 31.1748 27.1504 31.1356 27.1768 31.0686C27.1768 31.0672 27.1773 31.0657 27.178 31.0641C27.178 31.0641 27.1789 31.0621 27.1794 31.0611C27.2019 30.9274 27.2169 30.8 27.1337 30.6787C27.0861 30.6094 27.0257 30.5755 26.9399 30.5781C26.709 30.5798 26.478 30.5792 26.2475 30.5786C26.1323 30.5784 26.017 30.5781 25.9022 30.5781H25.7912C25.4613 30.5702 25.1715 30.4568 24.9248 30.2376C24.8442 30.1631 24.7646 30.0885 24.7019 30.0003C24.5848 29.8301 24.5201 29.6408 24.5179 29.4366C24.5143 29.0784 24.5143 28.7213 24.5188 28.3621C24.5188 28.2092 24.5466 28.0569 24.5985 27.9092C24.6993 27.6203 24.8931 27.4236 25.1767 27.3125C25.3353 27.2481 25.504 27.2167 25.6754 27.2066C25.7308 27.204 25.785 27.204 25.8401 27.204H28.4475L28.4676 27.2039C28.5097 27.2037 28.5306 27.2036 28.541 27.2141C28.5513 27.2244 28.5512 27.2451 28.551 27.2863L28.551 27.305V28.4729L28.551 28.4876C28.5511 28.5282 28.5512 28.548 28.5413 28.5576C28.5319 28.5668 28.5136 28.5666 28.4778 28.5664L28.4589 28.5664H26.2458C26.1828 28.5664 26.1201 28.5687 26.0581 28.5814Z" fill="#008AC9"/>
<path d="M23.3504 27.2015H22.2608C22.2469 27.2015 22.2347 27.2013 22.2239 27.2012C22.1835 27.2006 22.1634 27.2003 22.1536 27.2103C22.1438 27.2201 22.1441 27.2399 22.1446 27.2795L22.1448 27.2967C22.1449 27.3025 22.1449 27.3087 22.1449 27.3152V30.887C22.1426 30.9461 22.126 31.003 22.0885 31.0471C22.004 31.1556 21.8956 31.2252 21.752 31.2275H20.7822C20.6122 31.2252 20.5051 31.1344 20.4634 30.969C20.4461 30.8994 20.4461 30.8291 20.4461 30.7569V27.3038C20.4461 27.2958 20.4461 27.2885 20.4461 27.2818C20.4464 27.2428 20.4465 27.2229 20.4367 27.2128C20.4265 27.2024 20.4056 27.2025 20.363 27.2027L20.3426 27.2028H19.2178L19.2051 27.2028L19.192 27.2027C19.1519 27.2024 19.132 27.2022 19.1222 27.2121C19.1126 27.2218 19.1128 27.2414 19.1132 27.2802L19.1133 27.2976L19.1133 27.3087V31.1746C19.1133 31.317 19.1208 31.4559 19.1512 31.5932C19.1965 31.8 19.2886 31.9879 19.4246 32.1497C19.597 32.3539 19.8074 32.5013 20.0731 32.5582C20.199 32.5873 20.326 32.5974 20.4558 32.5974H22.1035C22.1335 32.6 22.1426 32.6072 22.1426 32.6415C22.1439 32.731 22.1449 32.8245 22.1426 32.915C22.1413 32.9882 22.1149 33.0464 22.0653 33.0993C21.9974 33.1761 21.9158 33.2255 21.8163 33.2369C21.771 33.2444 21.7256 33.247 21.6802 33.247H19.2103L19.1961 33.247C19.1545 33.2469 19.1341 33.2468 19.124 33.2571C19.1143 33.267 19.1144 33.2867 19.1146 33.3255L19.1146 33.3451V34.5156C19.1146 34.5206 19.1145 34.5257 19.1144 34.531C19.1141 34.5417 19.1138 34.5531 19.1146 34.565C19.1146 34.5989 19.1221 34.6065 19.1525 34.6091H22.1564C22.2445 34.6091 22.3326 34.6065 22.4207 34.5914C22.6501 34.5574 22.8531 34.464 23.0228 34.3039C23.2003 34.1349 23.3112 33.929 23.3807 33.6996C23.4408 33.5003 23.46 33.2961 23.46 33.0892C23.4609 32.4499 23.4606 31.8102 23.4603 31.1708V31.1701C23.4602 30.8507 23.46 30.5313 23.46 30.2122V27.31L23.4601 27.302L23.4605 27.2821C23.4613 27.2412 23.4617 27.2205 23.4517 27.2105C23.4418 27.2006 23.4218 27.2008 23.382 27.2013C23.3726 27.2014 23.3621 27.2015 23.3504 27.2015Z" fill="#008AC9"/>
<path fill-rule="evenodd" clip-rule="evenodd" d="M33.818 28.068C33.7638 27.8461 33.6633 27.6516 33.4884 27.4993C33.3523 27.3794 33.1921 27.3049 33.0169 27.2608C32.856 27.2167 32.6922 27.2013 32.5244 27.2013H29.6077C29.6032 27.2013 29.5989 27.2013 29.5949 27.2013C29.5566 27.2012 29.5371 27.2011 29.5271 27.2109C29.5169 27.221 29.5169 27.2416 29.517 27.2835C29.517 27.2871 29.517 27.2909 29.517 27.2948V28.5346C29.517 28.5509 29.5297 28.5637 29.5496 28.5637H32.1831C32.2399 28.5637 32.2967 28.5663 32.3534 28.5813C32.4618 28.6117 32.531 28.6735 32.546 28.8134C32.5488 28.8394 32.5483 28.8661 32.5477 28.8935C32.5475 28.9046 32.5473 28.9158 32.5473 28.9271C32.546 28.9937 32.5447 28.9937 32.4794 28.9937H30.8762C30.7665 28.9937 30.6582 28.9937 30.5498 29.0091C30.3987 29.029 30.2512 29.063 30.1129 29.1251C29.8782 29.2336 29.7121 29.4052 29.6116 29.6421C29.5297 29.83 29.4994 30.0267 29.4968 30.2287C29.4915 30.6159 29.4928 31.0018 29.4968 31.3888C29.4968 31.5126 29.5118 31.6374 29.5421 31.761C29.5898 31.9554 29.6769 32.127 29.8205 32.2655C29.9464 32.3842 30.0988 32.4649 30.2653 32.5139C30.4666 32.576 30.6732 32.5959 30.882 32.5959H32.5284C32.6266 32.5959 32.7212 32.5959 32.8194 32.5835C32.9741 32.5668 33.1206 32.524 33.2626 32.4446C33.4617 32.3286 33.6092 32.1659 33.7149 31.9642C33.8285 31.7521 33.8673 31.5214 33.8673 31.2842V28.5183C33.8673 28.3683 33.8523 28.218 33.818 28.068ZM32.5434 30.9525C32.5398 31.0901 32.469 31.177 32.3368 31.2113C32.2928 31.2237 32.249 31.229 32.202 31.229H31.6897C31.6315 31.229 31.5737 31.2284 31.5161 31.2278C31.4018 31.2266 31.2884 31.2255 31.1744 31.229C31.0586 31.2313 30.9665 31.1845 30.8846 31.1051C30.8497 31.0675 30.8266 31.0257 30.8266 30.9741C30.8266 30.8251 30.8279 30.6751 30.8292 30.5277C30.8292 30.4908 30.8393 30.4532 30.8497 30.4192C30.8683 30.346 30.9163 30.3019 30.9904 30.2865C31.0374 30.2741 31.085 30.264 31.1343 30.2663C31.4916 30.2663 31.8483 30.2663 32.2059 30.264C32.251 30.264 32.2954 30.2741 32.3394 30.2865C32.4628 30.3205 32.5349 30.4113 32.5434 30.5401C32.5447 30.5868 32.5447 30.6309 32.5447 30.6777C32.5447 30.7685 32.5447 30.8581 32.5434 30.9525Z" fill="#008AC9"/>
<path d="M55.9326 26.9744L56.1003 26.9947L56.1267 27.1888V27.614L55.943 27.6682C55.9087 27.6721 55.8784 27.6734 55.852 27.6734L55.6532 27.6721L55.5599 27.6734C55.4225 27.6757 55.3142 27.6885 55.2159 27.7149C55.1393 27.7326 55.0701 27.763 54.9967 27.8032C54.8785 27.8738 54.7927 27.976 54.7359 28.1084C54.6958 28.2005 54.6706 28.3038 54.654 28.4299C54.6416 28.526 54.6416 28.6205 54.6416 28.7152V32.4912C54.6416 32.5733 54.6416 32.6553 54.5662 32.7184C54.5042 32.7854 54.4187 32.7854 54.3773 32.7854H53.9765L53.9325 32.4952V28.6747C53.9325 28.4427 53.9589 28.2345 54.0069 28.0404C54.0699 27.8032 54.1733 27.6051 54.3257 27.4349C54.4967 27.2457 54.7222 27.1159 54.9957 27.045C55.1203 27.0097 55.2564 26.9895 55.4114 26.981C55.4312 26.9795 55.4509 26.9779 55.4708 26.9764C55.6215 26.9644 55.7758 26.9522 55.9326 26.9744Z" fill="#008AC9"/>
<path fill-rule="evenodd" clip-rule="evenodd" d="M52.7524 28.7098C52.7524 28.6167 52.7488 28.5219 52.7384 28.4324C52.7133 28.2118 52.6542 28.0014 52.5586 27.8043C52.4577 27.5926 52.3341 27.4236 52.1895 27.2886C52.0345 27.1422 51.8495 27.0501 51.6429 27.0174C51.4412 26.9847 51.2197 26.9681 50.9739 26.9681C50.0961 26.9658 49.217 26.9658 48.3391 26.9658L48.2585 26.9681C48.081 26.9909 48.0494 27.1233 48.0468 27.2053V27.4426C48.0546 27.5736 48.1326 27.6569 48.2585 27.6671C48.2902 27.6693 48.3225 27.6707 48.3542 27.6707L50.2172 27.6693L51.1417 27.6707C51.2624 27.6707 51.3773 27.6821 51.5055 27.7086C51.59 27.7236 51.6579 27.7602 51.7297 27.8233C51.8305 27.9105 51.9108 28.0239 51.9754 28.169C52.0296 28.2938 52.056 28.4376 52.0583 28.6105C52.0609 28.666 52.0609 28.7213 52.0609 28.7768H49.6702C49.6112 28.7768 49.5521 28.7794 49.4901 28.7834C49.2888 28.7909 49.0972 28.8298 48.9197 28.8994C48.6276 29.0115 48.4031 29.202 48.2559 29.4644C48.174 29.6016 48.1199 29.748 48.0882 29.9095C48.0546 30.0722 48.034 30.2464 48.034 30.4278V31.0839C48.034 31.2013 48.0366 31.3182 48.0494 31.4405C48.0745 31.6146 48.1088 31.7535 48.1629 31.881C48.3225 32.2555 48.6074 32.5228 49.0016 32.6754C49.1954 32.7499 49.4069 32.7839 49.6513 32.7839H51.2294C51.343 32.7839 51.4566 32.7764 51.5649 32.7525C51.9966 32.6679 52.3256 32.4385 52.5534 32.0702C52.6405 31.9251 52.6947 31.7826 52.7159 31.6349C52.7384 31.4496 52.7524 31.2692 52.7524 31.0977L52.7488 29.5059L52.7524 28.7098ZM52.0508 31.249C52.0508 31.399 52.027 31.5329 51.9777 31.6601C51.9095 31.8316 51.7953 31.9476 51.6214 32.0133C51.5055 32.0574 51.3783 32.08 51.2321 32.08C50.9348 32.0826 50.6378 32.0826 50.3418 32.0826H49.6301C49.387 32.0826 49.1703 32.0032 48.9712 31.8378C48.9122 31.7888 48.8694 31.7483 48.843 31.7055C48.8153 31.6689 48.7986 31.6274 48.7862 31.5846C48.7598 31.4735 48.7422 31.3715 48.7422 31.2767C48.7399 30.9575 48.7399 30.6372 48.7422 30.318C48.7422 30.2006 48.7663 30.0859 48.8065 29.9787C48.9021 29.7203 49.0835 29.5641 49.3593 29.5033C49.4474 29.4833 49.5394 29.4742 49.6399 29.4742C50.4489 29.4742 51.2487 29.4742 52.0508 29.4755V31.249Z" fill="#008AC9"/>
<path fill-rule="evenodd" clip-rule="evenodd" d="M60.9595 25.2124H61.1745C61.3246 25.2124 61.4114 25.2997 61.4167 25.4483V31.0524C61.4167 31.3285 61.3752 31.5857 61.2868 31.8141C61.137 32.2279 60.8462 32.5141 60.4305 32.6628C60.2804 32.721 60.113 32.7537 59.9064 32.7713C59.7752 32.7827 59.6506 32.7854 59.5223 32.7854H58.3217C58.138 32.7801 57.9507 32.7615 57.7689 32.7285C57.6482 32.7046 57.5425 32.6703 57.4443 32.6138C57.0624 32.4079 56.8144 32.0965 56.7159 31.688C56.6695 31.4949 56.6444 31.3096 56.6444 31.123V28.7188C56.6444 28.478 56.6757 28.2482 56.74 28.0391C56.8118 27.7992 56.9238 27.6012 57.081 27.4375C57.254 27.2597 57.4733 27.1333 57.7314 27.0578C57.9178 27.0022 58.1243 26.9771 58.3759 26.9771H60.7124L60.715 25.4483C60.7124 25.3006 60.7996 25.2124 60.9595 25.2124ZM60.6687 31.4292C60.6997 31.3109 60.7177 31.1861 60.7177 31.0459V27.6747H58.6141C58.4934 27.6747 58.3772 27.6747 58.2604 27.6809C58.1547 27.6885 58.0551 27.7048 57.9618 27.7287C57.8662 27.7541 57.783 27.7943 57.7086 27.86C57.6443 27.9153 57.5875 27.9773 57.5333 28.0404C57.4792 28.1084 57.4377 28.1777 57.4113 28.2473C57.3708 28.3695 57.3496 28.4816 57.3496 28.5888V31.1887C57.3496 31.2576 57.3496 31.2932 57.3522 31.3298C57.3571 31.4406 57.3787 31.5354 57.4064 31.6197C57.4606 31.7661 57.5461 31.8632 57.6772 31.9275C57.7262 31.9514 57.783 31.9769 57.8398 31.9968C58.0186 32.055 58.201 32.0828 58.3851 32.0828H59.4818C59.6205 32.0828 59.7553 32.0726 59.8751 32.0537C60.1042 32.0122 60.2882 31.9302 60.4429 31.8053L60.4495 31.7994C60.4755 31.7758 60.504 31.75 60.5248 31.722C60.5891 31.6439 60.6384 31.5465 60.6687 31.4292Z" fill="#008AC9"/>
<path d="M45.1891 32.0827H46.9914C47.1024 32.0827 47.2333 32.1268 47.2333 32.3464V32.5582C47.2258 32.6869 47.1465 32.7725 47.0244 32.7853H45.1372C44.8941 32.7853 44.6788 32.7601 44.4761 32.7072C44.3237 32.6755 44.1713 32.6036 44.0189 32.4977C43.7458 32.3007 43.5581 32.0347 43.4671 31.7092C43.4155 31.5314 43.3891 31.3523 43.3891 31.1772V28.4528C43.3891 28.3204 43.3979 28.1992 43.4208 28.0832C43.4625 27.8649 43.5591 27.6694 43.6991 27.5018C43.8903 27.2796 44.0972 27.1309 44.3387 27.0515C44.4787 27.0074 44.621 26.9907 44.7417 26.9809C44.902 26.9682 45.0619 26.9669 45.2192 26.9669H46.9121C46.9412 26.9669 46.9761 26.9682 47.0051 26.9708L47.1778 26.9871L47.2094 27.1914V27.6391L46.9849 27.6681C46.9712 27.6694 46.9373 27.6708 46.9069 27.6708L45.6362 27.6694L45.0038 27.6708C44.8112 27.6708 44.6399 27.6972 44.4914 27.7551C44.4007 27.7933 44.3387 27.8309 44.2872 27.8763C44.2092 27.9469 44.155 28.039 44.125 28.1603C44.1057 28.2332 44.0959 28.3077 44.0884 28.3848C44.0797 28.4939 44.0801 28.6015 44.0804 28.7101C44.0805 28.7319 44.0806 28.7537 44.0806 28.7756L44.078 29.5148L44.0806 30.9906C44.0806 31.1719 44.1008 31.3232 44.1374 31.4595C44.1765 31.5945 44.2405 31.7157 44.325 31.8141C44.3994 31.9023 44.5051 31.9667 44.6677 32.0232C44.7355 32.0448 44.8077 32.0549 44.8856 32.0624C44.9862 32.0752 45.0896 32.0827 45.1891 32.0827Z" fill="#008AC9"/>
<path d="M39.1172 13.2931C39.0892 13.0345 39.0451 12.7799 38.9751 12.5332C38.5664 11.0799 37.4175 9.94076 35.9641 9.55015C35.7301 9.48782 35.4957 9.44367 35.2555 9.4177C35.2519 9.4177 35.248 9.41789 35.2441 9.41809C35.2227 9.4192 35.199 9.42041 35.1876 9.38965H34.395C34.395 9.39626 34.3955 9.40175 34.3959 9.40667C34.3962 9.41063 34.3966 9.41422 34.3966 9.4177C34.3392 9.42794 34.281 9.43675 34.2228 9.44556C34.1452 9.4573 34.0676 9.46905 33.992 9.48418C32.9852 9.69247 32.1542 10.1958 31.5053 10.9957C31.025 11.5832 30.7226 12.2605 30.5986 13.0121C30.564 13.2324 30.5523 13.4523 30.5405 13.6732C30.538 13.7201 30.5355 13.7671 30.5328 13.8141C30.5295 13.889 30.5314 13.9636 30.5334 14.0401C30.5339 14.0602 30.5344 14.0804 30.5348 14.1009C30.5328 14.1211 30.5545 14.1351 30.5727 14.1211C30.5853 14.1141 30.5979 14.1033 30.6105 14.0925L30.6147 14.0889C30.803 13.9445 31.0011 13.8183 31.2211 13.7243C31.3616 13.6619 31.5074 13.61 31.6578 13.5716C31.6998 13.5638 31.7154 13.5435 31.7258 13.5014C31.7579 13.3653 31.7979 13.2272 31.8477 13.0984C32.3347 11.7915 33.6299 10.9292 35.0491 11.0238C35.4936 11.0518 35.9138 11.1599 36.3023 11.3681C37.1514 11.8154 37.7017 12.5031 37.946 13.4355L37.9478 13.4422C37.9802 13.5617 37.9803 13.5622 38.098 13.5877C38.4684 13.6739 38.8045 13.8302 39.0913 14.077C39.0945 14.0794 39.0976 14.0826 39.1008 14.0859C39.1129 14.0983 39.1263 14.112 39.153 14.0931C39.1537 14.0766 39.1545 14.0596 39.1553 14.0422C39.1573 14.0026 39.1593 13.961 39.1593 13.9206C39.1593 13.7123 39.139 13.5056 39.1172 13.2931Z" fill="#E3001B"/>
<path d="M39.3553 15.821C39.3252 15.5722 39.2713 15.3219 39.1696 15.0871C38.9689 14.6321 38.6343 14.3235 38.1623 14.1713C37.9123 14.0893 37.6498 14.0571 37.3853 14.0571H32.1905C32.1101 14.0571 32.0261 14.0571 31.9462 14.0732C31.5536 14.1433 31.2034 14.3074 30.8933 14.5542C30.8253 14.6103 30.7667 14.6726 30.719 14.7427C30.5748 14.9552 30.4809 15.1858 30.4166 15.4284C30.3746 15.5966 30.3465 15.7649 30.3305 15.9374C30.3293 15.9483 30.3289 15.9594 30.3284 15.9704C30.3266 16.0135 30.3249 16.0553 30.2807 16.0839V20.5863C30.3244 20.62 30.3269 20.6706 30.3294 20.719C30.3297 20.7257 30.33 20.7324 30.3305 20.739C30.3403 20.8714 30.3606 21.0054 30.3906 21.1358C30.4487 21.3986 30.5385 21.6449 30.6827 21.8713L30.6851 21.8749C30.7366 21.9522 30.7881 22.0291 30.8611 22.09C31.2631 22.423 31.7154 22.6235 32.2445 22.6235C33.9376 22.6276 35.6308 22.6276 37.3265 22.6276H37.3277C37.5554 22.6276 37.7842 22.6032 38.0041 22.5492C38.3325 22.4671 38.625 22.3227 38.8589 22.0682C39.0451 21.8698 39.1696 21.6329 39.2495 21.3763C39.347 21.0558 39.3859 20.727 39.3859 20.3899V16.3924C39.3859 16.1997 39.3818 16.0137 39.3553 15.821Z" fill="#E3001B"/>
</svg>
