<svg width="70" height="45" viewBox="0 0 70 45" fill="none" xmlns="http://www.w3.org/2000/svg">
<path d="M1.08993 5.46009C0 7.59921 0 10.3995 0 16V29C0 34.6005 0 37.4008 1.08993 39.5399C2.04867 41.4215 3.57847 42.9513 5.46009 43.9101C7.59921 45 10.3995 45 16 45H54C59.6005 45 62.4008 45 64.5399 43.9101C66.4215 42.9513 67.9513 41.4215 68.9101 39.5399C70 37.4008 70 34.6005 70 29V16C70 10.3995 70 7.59921 68.9101 5.46009C67.9513 3.57847 66.4215 2.04867 64.5399 1.08993C62.4008 0 59.6005 0 54 0H16C10.3995 0 7.59921 0 5.46009 1.08993C3.57847 2.04867 2.04867 3.57847 1.08993 5.46009Z" fill="white"/>
<path fill-rule="evenodd" clip-rule="evenodd" d="M63.4539 21.1298C63.4539 21.987 62.7438 22.6822 61.8682 22.6822C60.9927 22.6822 60.2825 21.987 60.2825 21.1298C60.2825 20.2726 60.9927 19.5774 61.8682 19.5774C62.7438 19.5774 63.4539 20.2726 63.4539 21.1298Z" fill="#7983C0"/>
<path fill-rule="evenodd" clip-rule="evenodd" d="M63.4539 25.9883C63.4539 26.8455 62.7438 27.5407 61.8682 27.5407C60.9927 27.5407 60.2825 26.8455 60.2825 25.9883C60.2825 25.1311 60.9927 24.4359 61.8682 24.4359C62.7438 24.4359 63.4539 25.1311 63.4539 25.9883Z" fill="#F05174"/>
<path fill-rule="evenodd" clip-rule="evenodd" d="M58.6997 24.0362V23.4421C58.6997 21.2121 57.1068 19.5772 54.9436 19.5772C52.7808 19.5772 51.1052 21.2624 51.1052 23.6036C51.1052 26.0047 52.6894 27.5405 55.218 27.5405V27.541C55.9229 27.541 57.317 27.4162 58.3924 26.6873L57.7126 25.2089C56.984 25.6138 56.2451 25.7959 55.5833 25.7959C55.5257 25.7959 55.4692 25.7939 55.4137 25.7904C55.4009 25.7899 55.388 25.7894 55.3757 25.7884C55.3228 25.7843 55.2704 25.7798 55.219 25.7728C55.2072 25.7713 55.1959 25.7692 55.184 25.7677C55.1424 25.7617 55.1013 25.7542 55.0612 25.7461C55.0468 25.7431 55.0319 25.7406 55.0181 25.7376C54.9764 25.7285 54.9359 25.7174 54.8958 25.7059C54.8737 25.6998 54.8521 25.6933 54.831 25.6862C54.8017 25.6772 54.7735 25.6666 54.7457 25.6561C54.7134 25.644 54.682 25.6314 54.6517 25.6173C54.643 25.6138 54.6337 25.6093 54.625 25.6053C54.5757 25.5821 54.5279 25.557 54.4827 25.5303C54.4811 25.5298 54.4801 25.5288 54.4785 25.5283C54.3778 25.4679 54.2869 25.399 54.2062 25.323C54.2052 25.322 54.2036 25.3205 54.2026 25.3195C54.1692 25.2878 54.1379 25.2551 54.1081 25.2209C54.0963 25.2078 54.0849 25.1948 54.0736 25.1812C54.0562 25.1601 54.0392 25.1389 54.0233 25.1168C53.9961 25.0801 53.9693 25.0423 53.9447 25.0021C53.9442 25.0011 53.9431 25.0001 53.9426 24.9986C53.789 24.7455 53.6867 24.4276 53.6492 24.0362H53.6487H58.6997ZM54.9436 21.2473C55.6141 21.2473 56.147 21.7695 56.2384 22.7837H53.6487C53.7402 21.7695 54.2735 21.2473 54.9436 21.2473ZM33.7437 21.9038C33.7437 21.5456 34.1091 21.3223 34.7185 21.3223C35.3582 21.3223 36.0283 21.5456 36.5159 21.7544L37.2013 20.1889C36.5616 19.8755 35.5869 19.5772 34.5967 19.5772C32.7839 19.5772 31.3215 20.3826 31.3215 21.9934C31.3215 24.5282 34.9775 24.0659 34.9775 25.1847C34.9775 25.6022 34.551 25.811 33.8347 25.811C33.1035 25.811 32.4031 25.5721 31.8549 25.3039L31.078 26.8397C31.9916 27.3171 33.0583 27.5405 34.0484 27.5405C35.815 27.5405 37.3385 26.6461 37.3385 25.0056C37.3385 22.5004 33.7437 22.918 33.7437 21.9038ZM19.6605 19.5772C18.1524 19.5772 16.9644 20.0395 16.2333 20.4872L16.9038 21.844C17.3452 21.6503 18.2747 21.3072 19.0665 21.3072C19.6302 21.3072 20.1328 21.5009 20.1328 22.0829V22.59C16.7733 22.3556 15.8078 23.8028 15.8078 25.1389C15.8078 26.4448 16.9367 27.5405 18.4232 27.5405C19.0095 27.5405 19.6462 27.3237 20.1328 27.0249V27.3619H22.5699V22.0678C22.5699 20.3529 21.4579 19.5772 19.6605 19.5772ZM20.2237 25.6918C19.9956 25.8558 19.6451 25.9901 19.2644 25.9901C18.655 25.9901 18.2434 25.647 18.2434 25.0952C18.2434 24.4689 18.7475 23.8562 20.2237 24.0961V25.6918ZM41.9148 19.5772C40.4072 19.5772 39.2187 20.0395 38.4875 20.4872L39.158 21.844C39.5994 21.6503 40.5289 21.3072 41.3208 21.3072C41.8844 21.3072 42.387 21.5009 42.387 22.0829V22.59C39.0275 22.3556 38.062 23.8028 38.062 25.1389C38.062 26.4448 39.1914 27.5405 40.6774 27.5405C41.2642 27.5405 41.9004 27.3237 42.387 27.0249V27.3619H44.8246V22.0678C44.8246 20.3529 43.7122 19.5772 41.9148 19.5772ZM42.387 25.6918C42.1588 25.8558 41.8084 25.9901 41.4276 25.9901C40.8182 25.9901 40.4072 25.647 40.4072 25.0952C40.4072 24.4689 40.9112 23.8562 42.387 24.0961V25.6918ZM46.8173 19.4429V19.7563H45.5224V21.3817H46.8173V27.3619H49.239V21.3817H50.9146V19.7563H49.239V19.3534C49.239 18.6823 49.5134 18.2054 50.26 18.2054C50.4881 18.2054 50.7774 18.2502 50.9757 18.3095V16.6097C50.6402 16.5202 50.26 16.4603 49.8181 16.4603C47.8532 16.4603 46.8173 17.6385 46.8173 19.4429ZM28.8145 19.7563L27.1389 24.3008L25.2146 19.7563H22.7194L26.0054 27.0037L24.9803 29.4953H27.2997L31.2362 19.7563H28.8145ZM12.1298 17.072H8.09308V27.3619H10.5908V23.6036H12.1298C14.1553 23.6036 15.6788 22.3661 15.6788 20.2629C15.6788 18.4438 14.5361 17.072 12.1298 17.072ZM11.8549 21.8138H10.5908V18.8619H11.8549C12.7541 18.8619 13.2566 19.4726 13.2566 20.3529C13.2566 21.2926 12.6929 21.8138 11.8549 21.8138Z" fill="#372C55"/>
</svg>
