<svg width="70" height="45" viewBox="0 0 70 45" fill="none" xmlns="http://www.w3.org/2000/svg">
<path d="M1.08993 5.46009C0 7.59921 0 10.3995 0 16V29C0 34.6005 0 37.4008 1.08993 39.5399C2.04867 41.4215 3.57847 42.9513 5.46009 43.9101C7.59921 45 10.3995 45 16 45H54C59.6005 45 62.4008 45 64.5399 43.9101C66.4215 42.9513 67.9513 41.4215 68.9101 39.5399C70 37.4008 70 34.6005 70 29V16C70 10.3995 70 7.59921 68.9101 5.46009C67.9513 3.57847 66.4215 2.04867 64.5399 1.08993C62.4008 0 59.6005 0 54 0H16C10.3995 0 7.59921 0 5.46009 1.08993C3.57847 2.04867 2.04867 3.57847 1.08993 5.46009Z" fill="white"/>
<path d="M29.2913 30.8203C29.2483 30.8203 29.2058 30.8123 29.1661 30.7968C29.1264 30.7813 29.0904 30.7585 29.06 30.7298C29.0296 30.7012 29.0056 30.6671 28.9891 30.6296C28.9727 30.5921 28.9642 30.552 28.9642 30.5114V20.4808C28.9654 19.513 29.373 18.5851 30.0976 17.9007C30.8222 17.2163 31.8047 16.8313 32.8294 16.8302L35.9656 16.8346C36.9876 16.838 37.9666 17.2234 38.6885 17.9066C39.4104 18.5898 39.8166 19.5151 39.8182 20.4803V22.6153C39.817 23.5832 39.4094 24.5112 38.6848 25.1956C37.9601 25.88 36.9776 26.265 35.9528 26.2661H31.5219C31.4352 26.2661 31.352 26.2335 31.2906 26.1756C31.2293 26.1177 31.1948 26.0391 31.1948 25.9571C31.1948 25.8752 31.2293 25.7966 31.2906 25.7387C31.352 25.6808 31.4352 25.6482 31.5219 25.6482H35.9528C36.8042 25.6473 37.6204 25.3275 38.2224 24.7589C38.8244 24.1903 39.1631 23.4194 39.164 22.6154V20.4803C39.1627 19.6787 38.8254 18.9102 38.2258 18.3428C37.6263 17.7754 36.8133 17.4553 35.9645 17.4524L32.829 17.448C31.9777 17.449 31.1616 17.7689 30.5597 18.3375C29.9578 18.906 29.6193 19.6768 29.6184 20.4808V30.5114C29.6184 30.5933 29.5839 30.6719 29.5226 30.7298C29.4612 30.7878 29.378 30.8203 29.2913 30.8203Z" fill="#939598"/>
<path d="M43.1795 26.3109C43.1366 26.3109 43.0941 26.3029 43.0544 26.2874C43.0147 26.2718 42.9786 26.2491 42.9483 26.2204C42.9179 26.1917 42.8938 26.1576 42.8774 26.1202C42.8609 26.0827 42.8525 26.0425 42.8525 26.0019V18.5091C42.8521 18.2274 42.7335 17.9573 42.5226 17.7581C42.3118 17.5589 42.0258 17.4469 41.7276 17.4465H40.3674C40.3244 17.4466 40.2818 17.4387 40.242 17.4232C40.2022 17.4077 40.1661 17.385 40.1357 17.3563C40.1052 17.3276 40.0811 17.2935 40.0646 17.256C40.0481 17.2185 40.0396 17.1783 40.0396 17.1376C40.0396 17.097 40.0481 17.0568 40.0646 17.0193C40.0811 16.9817 40.1052 16.9477 40.1357 16.919C40.1661 16.8903 40.2022 16.8675 40.242 16.8521C40.2818 16.8366 40.3244 16.8286 40.3674 16.8287H41.7276C42.1993 16.8293 42.6515 17.0065 42.985 17.3215C43.3185 17.6365 43.5061 18.0636 43.5066 18.5091V26.0019C43.5066 26.0425 43.4982 26.0827 43.4817 26.1202C43.4653 26.1576 43.4412 26.1917 43.4108 26.2204C43.3805 26.2491 43.3444 26.2718 43.3047 26.2874C43.265 26.3029 43.2225 26.3109 43.1795 26.3109Z" fill="#939598"/>
<path d="M42.888 15.9768L42.2712 15.3942C42.2347 15.3598 42.2059 15.319 42.1862 15.2741C42.1665 15.2292 42.1563 15.181 42.1563 15.1324C42.1563 15.0838 42.1665 15.0357 42.1862 14.9907C42.2059 14.9458 42.2347 14.905 42.2712 14.8707L42.8876 14.2884C42.924 14.254 42.9673 14.2267 43.0149 14.208C43.0625 14.1894 43.1136 14.1798 43.1651 14.1798C43.2167 14.1798 43.2677 14.1894 43.3153 14.208C43.3629 14.2267 43.4062 14.254 43.4426 14.2884L44.0591 14.8707C44.0955 14.905 44.1244 14.9458 44.1441 14.9907C44.1638 15.0357 44.1739 15.0838 44.1739 15.1324C44.1739 15.181 44.1638 15.2292 44.1441 15.2741C44.1244 15.319 44.0955 15.3598 44.0591 15.3942L43.4423 15.9768C43.3687 16.0462 43.2691 16.0852 43.1651 16.0852C43.0612 16.0852 42.9615 16.0462 42.888 15.9768" fill="#32BCAD"/>
<path d="M52.8833 21.4331C52.7029 21.4336 52.5241 21.4002 52.3574 21.335C52.1907 21.2698 52.0393 21.1739 51.9121 21.0531L48.757 18.0732C48.5448 17.8717 48.2925 17.7121 48.0147 17.6034C47.7368 17.4946 47.4388 17.4391 47.1381 17.4398H45.7891C45.7461 17.4399 45.7035 17.432 45.6638 17.4165C45.624 17.401 45.5879 17.3783 45.5574 17.3496C45.527 17.3209 45.5028 17.2868 45.4863 17.2493C45.4698 17.2118 45.4614 17.1716 45.4614 17.1309C45.4614 17.0903 45.4698 17.0501 45.4863 17.0126C45.5028 16.975 45.527 16.941 45.5574 16.9123C45.5879 16.8836 45.624 16.8608 45.6638 16.8454C45.7035 16.8299 45.7461 16.8219 45.7891 16.822H47.138C47.5248 16.821 47.9078 16.8925 48.2651 17.0323C48.6224 17.172 48.9468 17.3773 49.2195 17.6363L52.3746 20.6163C52.5095 20.7437 52.6926 20.8153 52.8834 20.8153C53.0742 20.8153 53.2573 20.7437 53.3922 20.6163L56.5357 17.6472C56.8084 17.3883 57.1328 17.183 57.4901 17.0432C57.8474 16.9034 58.2305 16.832 58.6172 16.833H59.7139C59.7569 16.8329 59.7995 16.8408 59.8393 16.8563C59.879 16.8718 59.9152 16.8945 59.9456 16.9232C59.976 16.9519 60.0002 16.986 60.0167 17.0235C60.0332 17.061 60.0416 17.1012 60.0416 17.1419C60.0416 17.1825 60.0332 17.2227 60.0167 17.2602C60.0002 17.2978 59.976 17.3318 59.9456 17.3605C59.9152 17.3892 59.879 17.412 59.8393 17.4275C59.7995 17.4429 59.7569 17.4509 59.7139 17.4508H58.6172C58.3164 17.45 58.0184 17.5056 57.7406 17.6143C57.4627 17.723 57.2104 17.8827 56.9983 18.0841L53.8546 21.0531C53.7274 21.174 53.576 21.2698 53.4093 21.335C53.2426 21.4002 53.0638 21.4336 52.8833 21.4331Z" fill="#939598"/>
<path d="M47.1381 26.2452H45.7892C45.7024 26.2452 45.6192 26.2126 45.5579 26.1547C45.4966 26.0968 45.4621 26.0182 45.4621 25.9363C45.4621 25.8543 45.4966 25.7758 45.5579 25.7178C45.6192 25.6599 45.7024 25.6274 45.7892 25.6274H47.1381C47.4389 25.6281 47.7368 25.5726 48.0147 25.4639C48.2926 25.3552 48.5449 25.1955 48.757 24.9941L51.9121 22.0142C52.0397 21.8937 52.1911 21.7981 52.3577 21.7329C52.5244 21.6677 52.703 21.6342 52.8834 21.6342C53.0638 21.6342 53.2424 21.6677 53.4091 21.7329C53.5757 21.7981 53.7271 21.8937 53.8547 22.0142L56.9984 24.9831C57.2105 25.1846 57.4628 25.3442 57.7406 25.453C58.0185 25.5617 58.3164 25.6173 58.6172 25.6165H59.7139C59.8007 25.6165 59.8839 25.649 59.9452 25.707C60.0065 25.7649 60.041 25.8435 60.041 25.9254C60.041 26.0073 60.0065 26.0859 59.9452 26.1438C59.8839 26.2018 59.8007 26.2343 59.7139 26.2343H58.6172C58.2305 26.2353 57.8474 26.1638 57.4902 26.0241C57.1329 25.8843 56.8086 25.679 56.5359 25.4201L53.3922 22.451C53.3254 22.3879 53.2461 22.3378 53.1588 22.3037C53.0715 22.2695 52.9779 22.252 52.8834 22.252C52.789 22.252 52.6954 22.2695 52.6081 22.3037C52.5208 22.3378 52.4415 22.3879 52.3747 22.451L49.2195 25.431C48.9468 25.6899 48.6224 25.8952 48.2651 26.035C47.9079 26.1747 47.5248 26.2462 47.1381 26.2452Z" fill="#939598"/>
<path d="M21.249 26.85C20.916 26.8509 20.5861 26.7894 20.2785 26.6691C19.9708 26.5487 19.6914 26.372 19.4565 26.1491L16.8683 23.7046C16.7767 23.6218 16.6549 23.5757 16.5283 23.5757C16.4016 23.5757 16.2798 23.6218 16.1882 23.7046L13.5905 26.158C13.3556 26.381 13.0763 26.5577 12.7686 26.678C12.4609 26.7983 12.131 26.8598 11.798 26.8589H11.288L14.566 29.9549C15.0577 30.4192 15.7244 30.6801 16.4197 30.6801C17.115 30.6801 17.7817 30.4192 18.2734 29.9549L21.5608 26.85H21.249Z" fill="#32BCAD"/>
<path d="M11.798 18.2036C12.131 18.2028 12.4609 18.2643 12.7686 18.3846C13.0762 18.5049 13.3556 18.6816 13.5905 18.9046L16.1882 21.3584C16.2784 21.4435 16.4007 21.4912 16.5283 21.4912C16.6558 21.4912 16.7781 21.4433 16.8683 21.3582L19.4565 18.9135C19.6914 18.6906 19.9707 18.5139 20.2784 18.3935C20.5861 18.2732 20.916 18.2117 21.249 18.2126H21.5607L18.2734 15.1078C18.03 14.8779 17.741 14.6955 17.4229 14.571C17.1049 14.4466 16.764 14.3826 16.4197 14.3826C16.0754 14.3826 15.7345 14.4466 15.4165 14.571C15.0984 14.6955 14.8094 14.8779 14.566 15.1078L11.2881 18.2037L11.798 18.2036Z" fill="#32BCAD"/>
<path d="M24.2799 20.7806L22.2934 18.9043C22.2486 18.9217 22.2007 18.9308 22.1522 18.9312H21.249C20.7789 18.9324 20.3282 19.1088 19.995 19.4219L17.4068 21.8664C17.1737 22.0862 16.8578 22.2096 16.5285 22.2096C16.1991 22.2097 15.8832 22.0863 15.65 21.8666L13.0521 19.413C12.7188 19.0998 12.2682 18.9235 11.7981 18.9223H10.6874C10.6417 18.9215 10.5965 18.9129 10.554 18.8969L8.55953 20.7806C8.3161 21.0105 8.12299 21.2834 7.99124 21.5838C7.8595 21.8842 7.79169 22.2062 7.79169 22.5313C7.79169 22.8565 7.8595 23.1784 7.99124 23.4788C8.12299 23.7792 8.3161 24.0521 8.55953 24.282L10.5539 26.1657C10.5964 26.1496 10.6417 26.141 10.6874 26.1403H11.7981C12.2682 26.1391 12.7188 25.9627 13.0521 25.6496L15.6498 23.1962C15.8865 22.9828 16.2011 22.8638 16.5283 22.8638C16.8556 22.8639 17.1702 22.983 17.4068 23.1964L19.995 25.6407C20.3283 25.9538 20.7789 26.1302 21.249 26.1314H22.1523C22.2007 26.1318 22.2486 26.1409 22.2934 26.1583L24.2799 24.282C24.7715 23.8177 25.0477 23.1879 25.0477 22.5313C25.0477 21.8746 24.7715 21.2449 24.2799 20.7806" fill="#32BCAD"/>
</svg>
