<svg width="70" height="45" viewBox="0 0 70 45" fill="none" xmlns="http://www.w3.org/2000/svg">
<path d="M1.08993 5.46009C0 7.59921 0 10.3995 0 16V29C0 34.6005 0 37.4008 1.08993 39.5399C2.04867 41.4215 3.57847 42.9513 5.46009 43.9101C7.59921 45 10.3995 45 16 45H54C59.6005 45 62.4008 45 64.5399 43.9101C66.4215 42.9513 67.9513 41.4215 68.9101 39.5399C70 37.4008 70 34.6005 70 29V16C70 10.3995 70 7.59921 68.9101 5.46009C67.9513 3.57847 66.4215 2.04867 64.5399 1.08993C62.4008 0 59.6005 0 54 0H16C10.3995 0 7.59921 0 5.46009 1.08993C3.57847 2.04867 2.04867 3.57847 1.08993 5.46009Z" fill="white"/>
<path fill-rule="evenodd" clip-rule="evenodd" d="M7.33331 17.245H33.8556L30.7635 27.7551H7.33331V17.245Z" fill="#ED1C24"/>
<path fill-rule="evenodd" clip-rule="evenodd" d="M62.3333 17.245L59.2032 27.7551H30.7635L33.8556 17.245H62.3333Z" fill="#2E3092"/>
<path d="M37.8335 22.2354C37.8897 21.944 37.9134 21.6477 37.9041 21.3516C37.8988 21.1445 37.8567 20.9398 37.7795 20.746C37.7223 20.6016 37.6295 20.4723 37.5087 20.3689C37.4037 20.2802 37.2797 20.214 37.1452 20.1749C37.0107 20.1368 36.8709 20.1182 36.7305 20.1198C36.4586 20.1187 36.1896 20.1734 35.9421 20.28C35.6703 20.3993 35.4262 20.5686 35.224 20.7779C34.9725 21.0374 34.7628 21.3306 34.6017 21.6481C34.391 22.0552 34.2245 22.4815 34.1047 22.9204C33.9753 23.3391 33.8928 23.7696 33.8587 24.2048C33.8306 24.5049 33.8665 24.8073 33.9643 25.0941C34.0349 25.3061 34.1809 25.4884 34.3774 25.61C34.5812 25.7265 34.8162 25.7845 35.0541 25.7769C35.2819 25.7804 35.5088 25.7476 35.7252 25.6798C35.9607 25.6033 36.1773 25.4823 36.3619 25.3241C36.5968 25.1185 36.7963 24.8793 36.9532 24.6152C37.1727 24.2485 37.3538 23.8622 37.494 23.4621H36.5473C36.4781 23.6642 36.3813 23.8569 36.2595 24.0353C36.1606 24.1802 36.0345 24.3066 35.8874 24.4083C35.7694 24.4906 35.6277 24.5367 35.4812 24.5406C35.3984 24.5453 35.3156 24.5303 35.2404 24.4971C35.1653 24.4639 35.1 24.4134 35.0506 24.3503C34.9408 24.1859 34.8888 23.9928 34.902 23.7987C34.9095 23.5012 34.9583 23.2059 35.0471 22.9204C35.129 22.6175 35.248 22.3247 35.4017 22.048C35.5134 21.8394 35.6693 21.6548 35.8595 21.5056C36.0092 21.3878 36.1971 21.3221 36.3918 21.3196C36.5081 21.3086 36.6244 21.3411 36.716 21.41C36.8075 21.479 36.867 21.5791 36.8818 21.6889C36.9165 21.8694 36.9196 22.054 36.8911 22.2354H37.8335ZM37.951 22.9204C37.8279 23.3396 37.7535 23.7703 37.7291 24.2048C37.7068 24.5067 37.7519 24.8097 37.8614 25.0941C37.944 25.3085 38.1005 25.4902 38.3056 25.61C38.5234 25.7264 38.7707 25.7841 39.0206 25.7769C39.2979 25.7775 39.5719 25.7206 39.8233 25.61C40.0989 25.4869 40.3447 25.3113 40.5454 25.0941C40.795 24.8283 41.0011 24.5285 41.1568 24.2048C41.359 23.7926 41.5171 23.3623 41.6289 22.9204C41.7456 22.5049 41.813 22.0785 41.8299 21.6489C41.8477 21.3523 41.7993 21.0556 41.6879 20.7779C41.6024 20.57 41.4465 20.3949 41.2445 20.28C41.0308 20.1672 40.7887 20.1118 40.5442 20.1198C40.272 20.1186 40.0028 20.1732 39.7551 20.28C39.4856 20.3998 39.2439 20.5691 39.0439 20.7779C38.7954 21.0377 38.5894 21.3312 38.4329 21.6489C38.228 22.0565 38.0666 22.4824 37.951 22.9204ZM38.8957 22.9204C38.9734 22.6179 39.0884 22.3251 39.2383 22.048C39.348 21.84 39.5014 21.6554 39.6891 21.5056C39.8386 21.3876 40.0264 21.3219 40.221 21.3196C40.3032 21.3152 40.3852 21.3298 40.4601 21.3622C40.5349 21.3946 40.6003 21.4438 40.6505 21.5056C40.7619 21.6662 40.8174 21.8559 40.8092 22.048C40.8082 22.3429 40.7654 22.6363 40.6819 22.9204C40.6063 23.225 40.4922 23.5199 40.3421 23.7987C40.2329 24.0102 40.0788 24.198 39.8893 24.3503C39.7396 24.471 39.5501 24.5383 39.3535 24.5406C39.2701 24.5451 39.1867 24.5301 39.1108 24.4969C39.0349 24.4637 38.9688 24.4133 38.9182 24.3503C38.8075 24.186 38.753 23.9934 38.7623 23.7987C38.7657 23.5016 38.8105 23.2063 38.8957 22.9204ZM45.7996 25.5762H46.7218C46.8685 24.9724 47.0145 24.3715 47.1598 23.7733C47.3049 23.1773 47.4493 22.583 47.5928 21.9906C47.6684 21.7088 47.7076 21.4193 47.7096 21.1285C47.7153 20.9371 47.6772 20.7468 47.5978 20.5707C47.5422 20.4449 47.4459 20.339 47.3228 20.2682C47.2054 20.2065 47.0729 20.1753 46.9387 20.1778C46.6732 20.1838 46.4174 20.274 46.2124 20.434C45.9497 20.6349 45.7274 20.879 45.556 21.1546C45.5635 20.9802 45.5423 20.8058 45.4931 20.6376C45.4566 20.506 45.3784 20.3882 45.2689 20.3002C45.1479 20.2148 44.9995 20.1716 44.8487 20.1778C44.7132 20.1801 44.5793 20.2061 44.4538 20.2546C44.3194 20.3079 44.1925 20.3766 44.0759 20.4593C43.9574 20.5443 43.8476 20.6396 43.748 20.7441C43.6535 20.8445 43.5684 20.9525 43.4935 21.0668H43.4842C43.549 20.8151 43.6138 20.5638 43.6786 20.3131H42.8018C42.576 21.177 42.3489 22.0464 42.1205 22.9211C41.8908 23.8001 41.6596 24.6854 41.4268 25.5769H42.3514C42.4759 25.0941 42.6 24.613 42.7238 24.1338C42.8468 23.6554 42.9698 23.1802 43.0924 22.7047C43.1387 22.5207 43.2026 22.3411 43.2833 22.1681C43.3489 22.0331 43.4322 21.9065 43.5312 21.7911C43.6093 21.7008 43.7041 21.6247 43.8109 21.5666C43.8999 21.5199 43.9998 21.495 44.1015 21.4942C44.165 21.4933 44.2277 21.5071 44.2842 21.5346C44.3454 21.5682 44.3942 21.6187 44.4243 21.6794C44.4643 21.7659 44.4844 21.8595 44.4832 21.9539C44.4819 22.1015 44.4615 22.2483 44.4227 22.3912C44.2893 22.9174 44.1552 23.4458 44.0204 23.9762C43.8858 24.5076 43.7505 25.0412 43.6146 25.5769H44.5364C44.6574 25.0941 44.778 24.613 44.898 24.1338C45.0179 23.6554 45.137 23.1802 45.2561 22.7047C45.3002 22.5203 45.3636 22.3406 45.4454 22.1681C45.5089 22.0332 45.5904 21.9065 45.6879 21.7911C45.7639 21.7004 45.8574 21.6242 45.9633 21.5666C46.0495 21.5199 46.1469 21.495 46.2462 21.4942C46.3121 21.4933 46.3774 21.5071 46.4367 21.5346C46.4986 21.5683 46.5486 21.6187 46.5802 21.6794C46.6219 21.7654 46.6427 21.8592 46.6411 21.9539C46.6422 22.1014 46.6229 22.2484 46.5837 22.3912C46.4541 22.9175 46.3238 23.4466 46.1938 23.9754C46.063 24.5076 45.9317 25.0412 45.7996 25.5762ZM48.8681 22.9502C48.9197 22.7238 48.9955 22.5031 49.0942 22.2912C49.1721 22.1219 49.2727 21.9627 49.3934 21.8176C49.4874 21.7036 49.6024 21.6068 49.7328 21.5317C49.8377 21.4717 49.9573 21.4388 50.0797 21.4361C50.1904 21.4346 50.2984 21.4682 50.3866 21.5317C50.4822 21.6067 50.5535 21.7058 50.5922 21.8176C50.6482 21.9697 50.6748 22.1302 50.671 22.2912C50.6678 22.5131 50.6399 22.7339 50.5875 22.9502C50.536 23.1771 50.4613 23.3988 50.3645 23.612C50.2867 23.7841 50.1853 23.9457 50.063 24.0927C49.9684 24.2082 49.8525 24.3066 49.7208 24.383C49.6135 24.4449 49.4907 24.4787 49.3651 24.4807C49.2547 24.4823 49.1471 24.4477 49.0605 24.383C48.9643 24.3065 48.8929 24.2059 48.8545 24.0927C48.8017 23.9375 48.7767 23.775 48.7808 23.612C48.784 23.389 48.8133 23.167 48.8681 22.9502ZM46.8685 27.5797H47.7992C47.9028 27.1443 48.0068 26.7077 48.1096 26.2741C48.2124 25.8412 48.3151 25.409 48.4176 24.9776H48.4273C48.444 25.1255 48.4933 25.2685 48.572 25.3972C48.6434 25.5142 48.7468 25.6108 48.8712 25.6769C49.0088 25.7448 49.1621 25.7791 49.3173 25.7769C49.556 25.7705 49.7878 25.6994 49.985 25.5718C50.2296 25.4141 50.4429 25.2168 50.6151 24.989C50.8324 24.7104 51.0128 24.4077 51.1524 24.0875C51.3212 23.7113 51.4507 23.3204 51.5392 22.9204C51.6357 22.525 51.6864 22.1208 51.6905 21.715C51.6957 21.4239 51.6468 21.1342 51.5462 20.8592C51.4705 20.6569 51.3347 20.4796 51.1551 20.3487C50.9829 20.2332 50.776 20.1733 50.565 20.1778C50.4375 20.1761 50.3109 20.1974 50.1918 20.2407C50.0446 20.2999 49.9106 20.3852 49.7972 20.492C49.6249 20.6517 49.4706 20.8281 49.3371 21.0183H49.3274C49.3833 20.7831 49.4391 20.5483 49.495 20.3138H48.6182C48.3327 21.4997 48.0447 22.6954 47.7542 23.9008C47.4617 25.1172 47.1664 26.3435 46.8685 27.5797ZM51.431 25.5762H52.3532C52.4389 25.1926 52.525 24.8074 52.6104 24.4263C52.6954 24.0449 52.7803 23.6643 52.8653 23.2846C52.9284 22.9837 53.0277 22.6908 53.1613 22.4114C53.2587 22.2005 53.4042 22.0127 53.5873 21.8613C53.7432 21.7378 53.94 21.67 54.1433 21.6698C54.2258 21.67 54.3075 21.6853 54.3838 21.715C54.4632 21.7444 54.5391 21.7814 54.6104 21.8256C54.7275 21.2906 54.8442 20.7572 54.9603 20.2256C54.9098 20.2059 54.8567 20.1929 54.8024 20.187C54.7487 20.1811 54.6947 20.1781 54.6406 20.1778C54.518 20.1766 54.3964 20.1998 54.2837 20.2458C54.1635 20.2969 54.0537 20.3677 53.9594 20.4549C53.8409 20.5652 53.733 20.6852 53.637 20.8136C53.5256 20.9591 53.4088 21.1307 53.2812 21.3295H53.2715C53.3475 20.99 53.4233 20.6514 53.4988 20.3138H52.6244C52.4284 21.1778 52.2314 22.0469 52.0331 22.9211C51.8337 23.8009 51.633 24.6859 51.431 25.5762ZM56.9875 23.4227C56.955 23.5869 56.9021 23.7469 56.8299 23.8994C56.7698 24.0315 56.6921 24.1559 56.5987 24.2694C56.518 24.3679 56.4241 24.456 56.3194 24.5314C56.2286 24.5972 56.1281 24.6498 56.021 24.6876C55.928 24.7205 55.8297 24.738 55.7304 24.7391C55.6273 24.7424 55.5262 24.7112 55.4449 24.6509C55.366 24.5863 55.3134 24.4977 55.2963 24.4003C55.2715 24.2658 55.2756 24.1279 55.3083 23.9949C55.3339 23.8632 55.3799 23.7357 55.4449 23.6168C55.4933 23.5288 55.5646 23.454 55.6521 23.3996C55.7405 23.3493 55.8391 23.317 55.9415 23.3048C56.1227 23.2757 56.307 23.2456 56.4909 23.2158C56.5885 23.2017 56.6847 23.1797 56.7783 23.1501C56.8873 23.1135 56.9888 23.0592 57.0782 22.9898C57.048 23.1346 57.0177 23.2789 56.9875 23.4227ZM55.8406 21.9032C55.8952 21.7564 55.9632 21.6143 56.0439 21.4787C56.0953 21.3896 56.1631 21.31 56.2441 21.2435C56.3084 21.1954 56.3833 21.1617 56.4633 21.1451C56.5494 21.1299 56.6369 21.1234 56.7244 21.1256C56.8633 21.1192 57.0019 21.1427 57.1298 21.1943C57.174 21.2141 57.2131 21.2429 57.2443 21.2786C57.2754 21.3143 57.298 21.356 57.3102 21.4008C57.3382 21.5149 57.3372 21.6337 57.3071 21.7474C57.287 21.8574 57.2524 21.9647 57.2043 22.0667C57.1724 22.1342 57.1196 22.1909 57.053 22.2295C56.9804 22.2653 56.901 22.2873 56.8195 22.2942C56.4874 22.3376 56.1553 22.3798 55.8232 22.421C55.705 22.4345 55.5885 22.4585 55.4752 22.4926C55.352 22.5312 55.2348 22.5852 55.1268 22.6532C55.004 22.732 54.8949 22.8285 54.8036 22.9391C54.6911 23.0771 54.5984 23.2286 54.5277 23.3897C54.435 23.6007 54.3647 23.8199 54.3179 24.0442C54.2558 24.3046 54.2285 24.5714 54.2368 24.8383C54.2402 25.0248 54.2878 25.2081 54.376 25.3748C54.4497 25.5062 54.5645 25.6128 54.7047 25.6798C54.8556 25.747 55.021 25.78 55.1877 25.7761C55.3034 25.7756 55.4187 25.7636 55.5318 25.7405C55.6656 25.714 55.7956 25.6724 55.919 25.6166C56.0589 25.553 56.1903 25.4735 56.3101 25.38C56.4456 25.2714 56.5652 25.1462 56.6658 25.0077C56.6507 25.1014 56.6371 25.1962 56.6282 25.2918C56.6193 25.3866 56.615 25.4814 56.61 25.5762H57.5368C57.5297 25.4216 57.5349 25.2667 57.5523 25.1128C57.5717 24.9368 57.6039 24.7314 57.6497 24.5002C57.7401 24.0607 57.8303 23.6226 57.9201 23.1861C58.0098 22.751 58.0992 22.3171 58.1886 21.8844C58.2289 21.7004 58.2545 21.5139 58.2654 21.3262C58.2755 21.1636 58.2611 21.0004 58.2227 20.8415C58.19 20.6955 58.1172 20.5602 58.0116 20.4494C57.906 20.3385 57.7714 20.256 57.6214 20.2102C57.414 20.1448 57.1962 20.1142 56.9778 20.1198C56.8275 20.1181 56.6775 20.129 56.5293 20.1525C56.3736 20.1761 56.2223 20.2212 56.0804 20.2862C55.9218 20.3616 55.7778 20.462 55.6548 20.5832C55.5016 20.7374 55.3733 20.9121 55.2738 21.1017C55.141 21.358 55.0364 21.6266 54.9615 21.9032H55.8406Z" fill="white"/>
<path d="M18.5821 19.7983C19.1008 19.7983 19.6199 19.7998 20.1402 19.7983C20.2137 19.7969 20.2867 19.81 20.3547 19.8366C20.4235 19.8659 20.4809 19.9148 20.5188 19.9766C20.5658 20.0607 20.5883 20.1552 20.584 20.2504C20.5803 20.3997 20.5526 20.5477 20.5017 20.6891C20.4553 20.8378 20.391 20.981 20.3101 21.1158C20.2479 21.2197 20.1705 21.3148 20.08 21.398C20.0106 21.4629 19.9297 21.5156 19.841 21.5538C19.771 21.584 19.6952 21.6001 19.6183 21.6012H17.9951C18.191 21.0004 18.3867 20.3994 18.5821 19.7983ZM17.1004 20.5943H7.33331V21.4623H16.8168L16.6597 21.9441L7.33331 21.9397V22.8121H16.3761L16.219 23.2942H7.33331V24.1623H15.9357L15.7468 24.7407H7.33642L7.33525 25.6079L15.4632 25.6083H16.6911L17.6071 22.9679C18.0956 22.9679 18.5844 22.969 19.074 22.9679C19.1597 22.9646 19.2446 22.9841 19.3192 23.0241C19.3918 23.0692 19.4429 23.1394 19.4616 23.2196C19.4907 23.3465 19.4938 23.4775 19.4709 23.6055C19.4385 23.8163 19.3875 24.0242 19.3184 24.2269C19.2579 24.4147 19.2063 24.5757 19.1636 24.7139C19.1214 24.8517 19.0876 24.9733 19.0624 25.0758C19.0387 25.1689 19.0202 25.2631 19.0069 25.3581C18.9954 25.441 18.9904 25.5247 18.9918 25.6083H20.3353C20.3113 25.4939 20.3062 25.3766 20.3202 25.2607C20.3348 25.1136 20.3585 24.9674 20.3912 24.823C20.4245 24.6705 20.4626 24.5239 20.5021 24.3857C20.5409 24.2497 20.5751 24.1365 20.6049 24.0454C20.6515 23.9021 20.6973 23.7507 20.7411 23.5868C20.7853 23.4236 20.8187 23.263 20.8459 23.1028C20.8724 22.9543 20.8857 22.804 20.8854 22.6534C20.8874 22.5348 20.8642 22.4171 20.8172 22.3072C20.7989 22.2635 20.7704 22.2244 20.7339 22.1927C20.6973 22.1609 20.6536 22.1375 20.6061 22.1242C20.6084 22.1176 20.6108 22.1109 20.6127 22.104C20.921 21.9524 21.1846 21.7305 21.3797 21.4583C21.6113 21.1261 21.7874 20.762 21.9019 20.379C21.9528 20.2207 21.9941 20.0599 22.0257 19.8972C22.0591 19.7265 22.0741 19.553 22.0703 19.3794C22.069 19.2183 22.0353 19.0589 21.971 18.9098C21.9074 18.7684 21.798 18.6497 21.6587 18.5709C21.4799 18.4762 21.2767 18.4305 21.0721 18.439C19.9815 18.4376 18.8921 18.4376 17.8038 18.439L17.1004 20.5943ZM24.3062 23.995C24.175 24.2047 23.9969 24.3846 23.7843 24.522C23.5981 24.6388 23.3796 24.7008 23.1562 24.7003C22.995 24.7065 22.8364 24.6602 22.707 24.5691C22.5965 24.485 22.515 24.3718 22.4726 24.2438C22.426 24.1073 22.4056 23.9639 22.4125 23.8205C22.4172 23.678 22.4413 23.5367 22.4843 23.4001C22.4866 23.3935 22.4885 23.3869 22.4909 23.3799H25.7552C25.7723 23.327 25.7894 23.2737 25.8064 23.2196C26.0229 22.5409 26.1275 21.9632 26.1203 21.4866C26.1137 21.0107 25.9897 20.6477 25.7482 20.3977C25.5061 20.1475 25.143 20.0203 24.6557 20.0188C24.3252 20.0171 23.9973 20.0734 23.6885 20.1849C23.3668 20.3036 23.0714 20.4785 22.8179 20.7005C22.5222 20.962 22.271 21.2654 22.0734 21.5998C21.8269 22.0133 21.6314 22.4522 21.4907 22.908C21.3439 23.3322 21.2563 23.7728 21.23 24.2185C21.2073 24.5275 21.2645 24.8372 21.3964 25.1207C21.5091 25.3471 21.6992 25.5309 21.9361 25.6421C22.2067 25.7604 22.5025 25.8179 22.8005 25.8101C23.1402 25.811 23.4767 25.7475 23.7902 25.6234C24.1304 25.485 24.4388 25.2851 24.6984 25.035C25.0168 24.7273 25.2857 24.3769 25.4965 23.995L24.3062 23.995ZM22.8268 22.3355C22.8288 22.3289 22.8315 22.3222 22.833 22.3153C22.8556 22.2554 22.883 22.1973 22.9149 22.1414C22.9719 22.0363 23.0358 21.9347 23.1062 21.8372C23.1933 21.7173 23.2924 21.6057 23.4022 21.5039C23.5174 21.3946 23.6498 21.3031 23.7948 21.2326C23.9435 21.1586 24.1091 21.12 24.2771 21.1202C24.4149 21.1145 24.5514 21.1476 24.6693 21.2154C24.7651 21.2748 24.8417 21.3583 24.8904 21.4564C24.9398 21.5544 24.9714 21.6595 24.9839 21.7673C24.9967 21.8709 24.9982 21.9755 24.9886 22.0793C24.9824 22.1593 24.9672 22.2384 24.9432 22.3153C24.9409 22.3219 24.9389 22.3289 24.9366 22.3355L22.8268 22.3355ZM27.4584 22.9378C27.5309 22.7023 27.6312 22.4754 27.7575 22.2612C27.8619 22.0836 27.9906 21.9199 28.1405 21.7743C28.2639 21.6536 28.4084 21.5539 28.5676 21.4796C28.7022 21.4165 28.85 21.3829 29.0002 21.3811C29.1302 21.3781 29.2582 21.4124 29.3672 21.4796C29.4764 21.5526 29.5595 21.6554 29.6054 21.7743C29.6651 21.9301 29.6906 22.0958 29.6803 22.2612C29.6683 22.4911 29.6249 22.7185 29.5511 22.9378C29.4793 23.1731 29.3794 23.4 29.2535 23.614C29.149 23.7926 29.02 23.9573 28.8698 24.1038C28.7468 24.2244 28.603 24.3241 28.4446 24.3989C28.3109 24.4625 28.1636 24.4967 28.014 24.4989C27.8825 24.5018 27.7532 24.4669 27.6431 24.3989C27.532 24.3269 27.4476 24.2237 27.4018 24.1038C27.343 23.9468 27.3181 23.7802 27.3284 23.614C27.3407 23.3842 27.3844 23.1569 27.4584 22.9378ZM28.7084 25.6083H29.7885C30.1726 24.3879 30.5559 23.1698 30.9385 21.954C31.3199 20.7402 31.701 19.5284 32.0818 18.3185H30.9711C30.8368 18.7455 30.7023 19.1722 30.5676 19.5984C30.433 20.0247 30.2979 20.4532 30.1633 20.8795H30.1505C30.1341 20.7286 30.0789 20.5838 29.9899 20.4576C29.9016 20.3363 29.7801 20.24 29.6384 20.1791C29.4697 20.1088 29.2868 20.0745 29.1026 20.0787C28.8192 20.0833 28.5413 20.1537 28.2933 20.2838C28.0002 20.4361 27.7357 20.6331 27.5104 20.867C27.2419 21.1425 27.0104 21.4485 26.8214 21.778C26.6014 22.1554 26.4255 22.5544 26.2968 22.9679C26.1615 23.3696 26.0787 23.7856 26.0501 24.2064C26.0261 24.5074 26.0672 24.8099 26.1711 25.0953C26.2512 25.3126 26.4025 25.5 26.6029 25.63C26.8074 25.7527 27.0457 25.8153 27.2877 25.8101C27.4629 25.8106 27.6372 25.7863 27.8049 25.738C27.9995 25.6781 28.1818 25.5871 28.3441 25.469C28.5564 25.3141 28.7463 25.1335 28.909 24.9318H28.9218C28.8504 25.1581 28.7793 25.3837 28.7084 25.6083" fill="white"/>
</svg>
