<svg width="70" height="45" viewBox="0 0 70 45" fill="none" xmlns="http://www.w3.org/2000/svg">
<path d="M1.08993 5.46009C0 7.59921 0 10.3995 0 16V29C0 34.6005 0 37.4008 1.08993 39.5399C2.04867 41.4215 3.57847 42.9513 5.46009 43.9101C7.59921 45 10.3995 45 16 45H54C59.6005 45 62.4008 45 64.5399 43.9101C66.4215 42.9513 67.9513 41.4215 68.9101 39.5399C70 37.4008 70 34.6005 70 29V16C70 10.3995 70 7.59921 68.9101 5.46009C67.9513 3.57847 66.4215 2.04867 64.5399 1.08993C62.4008 0 59.6005 0 54 0H16C10.3995 0 7.59921 0 5.46009 1.08993C3.57847 2.04867 2.04867 3.57847 1.08993 5.46009Z" fill="white"/>
<path fill-rule="evenodd" clip-rule="evenodd" d="M44.5352 18.2966C45.5646 18.2966 46.3991 17.4362 46.3991 16.3753C46.3991 15.3137 45.5646 14.4525 44.5352 14.4525C43.5069 14.4525 42.6729 15.3137 42.6729 16.3753C42.6729 17.4362 43.5069 18.2966 44.5352 18.2966ZM30.2601 19.3342C30.176 19.5521 29.5707 21.316 28.1066 23.1441V15.3273L24.2058 16.1226V30.2914H28.1066V25.9117C29.2364 27.6597 29.7943 30.2914 29.7943 30.2914H34.4667C34.0045 28.3094 31.9828 24.6547 31.9828 24.6547C33.7973 22.2817 34.5943 19.7531 34.721 19.3342H30.2601ZM40.5152 19.1862C37.0213 19.3019 35.2477 20.9189 35.2477 24.1334V30.2914H39.0594V25.2697C39.0594 23.3449 39.3037 22.5199 41.5178 22.4412V19.2426C41.1452 19.161 40.5152 19.1862 40.5152 19.1862ZM17.6637 20.8944C17.1859 20.8619 16.0798 20.7882 16.0798 19.7609C16.0798 18.5213 17.6723 18.5213 18.2697 18.5213C19.32 18.5213 20.6803 18.8415 21.6517 19.1412C21.6517 19.1412 22.1935 19.3383 22.6547 19.5401L22.6976 19.5521V16.1571L22.6387 16.1391C21.4923 15.7254 20.1592 15.3273 17.6878 15.3273C13.4265 15.3273 11.9166 17.8882 11.9166 20.0819C11.9166 21.3465 12.4421 24.3228 17.3223 24.6661C17.736 24.6923 18.834 24.7576 18.834 25.8192C18.834 26.6956 17.9351 27.2125 16.4232 27.2125C14.7663 27.2125 13.1592 26.7766 12.183 26.3633V29.8599C13.6444 30.255 15.2918 30.4525 17.2226 30.4525C21.3891 30.4525 23.2552 28.0297 23.2552 25.6283C23.2552 22.9055 21.1671 21.1365 17.6637 20.8944ZM42.6456 30.2914H46.4265V19.3465H42.6456V30.2914ZM53.5457 16.0251V30.2914H57.3272V15.3273L53.5457 16.0251ZM48.0281 16.0251L51.8059 15.3273V30.2914H48.0281V16.0251Z" fill="url(#paint0_linear_261:23194)"/>
<defs>
<linearGradient id="paint0_linear_261:23194" x1="24.1974" y1="14.4525" x2="27.8213" y2="34.1487" gradientUnits="userSpaceOnUse">
<stop stop-color="#6B195F"/>
<stop offset="1" stop-color="#4C255B"/>
</linearGradient>
</defs>
</svg>
