<svg width="70" height="45" viewBox="0 0 70 45" fill="none" xmlns="http://www.w3.org/2000/svg">
<path d="M1.08993 5.46009C0 7.59921 0 10.3995 0 16V29C0 34.6005 0 37.4008 1.08993 39.5399C2.04867 41.4215 3.57847 42.9513 5.46009 43.9101C7.59921 45 10.3995 45 16 45H54C59.6005 45 62.4008 45 64.5399 43.9101C66.4215 42.9513 67.9513 41.4215 68.9101 39.5399C70 37.4008 70 34.6005 70 29V16C70 10.3995 70 7.59921 68.9101 5.46009C67.9513 3.57847 66.4215 2.04867 64.5399 1.08993C62.4008 0 59.6005 0 54 0H16C10.3995 0 7.59921 0 5.46009 1.08993C3.57847 2.04867 2.04867 3.57847 1.08993 5.46009Z" fill="white"/>
<path d="M18.4785 34.9201V27.6843H15.8857V25.9651H22.937V27.6843H20.3442V34.9201H18.4785Z" fill="#0EE06E"/>
<path d="M22.6376 34.9202V28.4235H24.3536V29.4518C24.7599 28.5788 25.2838 28.4235 25.8451 28.4235H26.508V30.1641H25.9467C25.1395 30.1641 24.4178 30.6301 24.4178 32.0548V34.9255H22.6376V34.9202Z" fill="#0EE06E"/>
<path d="M27.3152 32.5421V28.4235H29.0901V32.1404C29.0901 32.901 29.4589 33.4633 30.218 33.4633C30.9504 33.4633 31.4155 32.901 31.4155 32.1512V28.4235H33.1904V34.9255H31.5011V34.1007C31.0734 34.7488 30.4372 35.0701 29.63 35.0701C28.208 35.0701 27.3152 34.09 27.3152 32.5421Z" fill="#0EE06E"/>
<path d="M33.9495 33.0938L35.4945 32.7403C35.5693 33.2438 35.9702 33.624 36.7454 33.624C37.3441 33.624 37.6756 33.3777 37.6756 33.0724C37.6756 32.826 37.5419 32.6439 36.9272 32.51L35.9114 32.2904C34.6124 32.0066 34.0618 31.4067 34.0618 30.3141C34.0618 29.2001 34.9813 28.3003 36.708 28.3003C38.5416 28.3003 39.2794 29.4036 39.3542 30.1266L37.7985 30.4694C37.7237 30.0892 37.4457 29.6714 36.6706 29.6714C36.1787 29.6714 35.8152 29.891 35.8152 30.2123C35.8152 30.4801 35.997 30.6301 36.3177 30.7051L37.7985 31.0479C38.9265 31.3049 39.4504 31.9798 39.4504 32.9385C39.4504 33.9668 38.6325 35.0487 36.7561 35.0487C34.6979 35.0433 34.0243 33.8061 33.9495 33.0938Z" fill="#0EE06E"/>
<path d="M42.8611 34.9201C41.7117 34.9201 40.9419 34.2827 40.9419 33.0187V29.9766H39.8513V28.4234H40.9419V26.9773L42.7167 26.4631V28.4234H44.0265V29.982H42.7167V32.7027C42.7167 33.1794 42.9626 33.3669 43.4384 33.3669H44.1227V34.9254H42.8611V34.9201Z" fill="#0EE06E"/>
<path d="M45.0903 34.9201V25.9705H46.8652V34.9255H45.0903V34.9201Z" fill="#0EE06E"/>
<path d="M52.2164 28.4235H54.1142L51.4092 37.25H49.5114L50.2598 34.9202H49.2815L47.4907 28.4235H49.3885L50.7249 33.4526L52.2164 28.4235Z" fill="#0EE06E"/>
<path d="M25.8505 15.77H32.2495V10.6551L37.3602 15.77L32.2495 20.8902V23.5039H38.4508V15.77H44.1441V9.75H25.8505V15.77Z" fill="#0EE06E"/>
</svg>
