<svg width="70" height="45" viewBox="0 0 70 45" fill="none" xmlns="http://www.w3.org/2000/svg">
<path d="M1.08993 5.46009C0 7.59921 0 10.3995 0 16V29C0 34.6005 0 37.4008 1.08993 39.5399C2.04867 41.4215 3.57847 42.9513 5.46009 43.9101C7.59921 45 10.3995 45 16 45H54C59.6005 45 62.4008 45 64.5399 43.9101C66.4215 42.9513 67.9513 41.4215 68.9101 39.5399C70 37.4008 70 34.6005 70 29V16C70 10.3995 70 7.59921 68.9101 5.46009C67.9513 3.57847 66.4215 2.04867 64.5399 1.08993C62.4008 0 59.6005 0 54 0H16C10.3995 0 7.59921 0 5.46009 1.08993C3.57847 2.04867 2.04867 3.57847 1.08993 5.46009Z" fill="white"/>
<path d="M22.4532 9.19104H32.749C34.1863 9.19104 35.0801 10.3995 34.7449 11.887L29.9514 33.1172C29.6131 34.5995 28.1742 35.809 26.736 35.809H16.4412C15.006 35.809 14.1101 34.5995 14.4453 33.1172L19.2408 11.887C19.5761 10.3995 21.0143 9.19104 22.4532 9.19104Z" fill="#E21836"/>
<path d="M31.8923 9.19104H43.7323C45.1692 9.19104 44.5213 10.3995 44.1832 11.887L39.3905 33.1172C39.0543 34.5995 39.1592 35.809 37.7192 35.809H25.8793C24.4393 35.809 23.5482 34.5995 23.8865 33.1172L28.6789 11.887C29.0192 10.3995 30.4544 9.19104 31.8923 9.19104Z" fill="#00447C"/>
<path d="M43.2626 9.19104H53.5585C54.9977 9.19104 55.8916 10.3995 55.5535 11.887L50.7609 33.1172C50.4226 34.5995 48.9826 35.809 47.5436 35.809H37.2526C35.8126 35.809 34.9195 34.5995 35.2568 33.1172L40.0502 11.887C40.3855 10.3995 41.8227 9.19104 43.2626 9.19104Z" fill="#007B84"/>
<path d="M25.1422 15.9948C24.0834 16.0059 23.7707 15.9948 23.6708 15.9704C23.6324 16.1586 22.918 19.5585 22.916 19.5613C22.7621 20.2492 22.6502 20.7395 22.27 21.0561C22.0542 21.2402 21.8022 21.329 21.5101 21.329C21.0406 21.329 20.7671 21.0885 20.7211 20.6323L20.7124 20.4757C20.7124 20.4757 20.8554 19.5544 20.8554 19.5492C20.8554 19.5492 21.6052 16.4509 21.7395 16.0414C21.7465 16.0181 21.7485 16.0059 21.7503 15.9948C20.2908 16.008 20.032 15.9948 20.0142 15.9704C20.0044 16.0038 19.9683 16.1959 19.9683 16.1959L19.2026 19.6879L19.1369 19.9841L19.0096 20.9528C19.0096 21.2402 19.0644 21.4747 19.1733 21.673C19.5221 22.3018 20.5171 22.3961 21.08 22.3961C21.8053 22.3961 22.4856 22.2371 22.9453 21.9469C23.7434 21.4605 23.9522 20.7002 24.1384 20.0245L24.2247 19.6778C24.2247 19.6778 24.9971 16.46 25.1284 16.0414C25.1334 16.0181 25.1354 16.0059 25.1422 15.9948ZM27.7703 18.5906C27.5841 18.5906 27.2438 18.6372 26.9382 18.7918C26.8272 18.8506 26.7223 18.9184 26.6117 18.986L26.7115 18.6139L26.6568 18.5513C26.0086 18.6867 25.8636 18.7048 25.2648 18.7918L25.2146 18.8262C25.1451 19.4209 25.0834 19.868 24.8256 21.0368C24.7275 21.4676 24.6256 21.9025 24.5235 22.3322L24.5511 22.3869C25.1647 22.3535 25.3509 22.3535 25.8842 22.3625L25.9273 22.3141C25.9951 21.9561 26.0039 21.8722 26.1539 21.1471C26.2245 20.8033 26.3715 20.0479 26.444 19.7789C26.5773 19.7152 26.7088 19.6526 26.8343 19.6526C27.1331 19.6526 27.0968 19.9215 27.0852 20.0287C27.0724 20.2086 26.9635 20.7963 26.8518 21.3009L26.7773 21.6265C26.7254 21.867 26.6684 22.1008 26.6164 22.3392L26.639 22.3869C27.2438 22.3535 27.4283 22.3535 27.9447 22.3625L28.0055 22.3141C28.0988 21.7549 28.1262 21.6053 28.2918 20.7911L28.3751 20.417C28.537 19.6849 28.6183 19.3137 28.4958 19.0113C28.3663 18.6725 28.0557 18.5906 27.7703 18.5906ZM30.7063 19.3572C30.3848 19.4208 30.1798 19.4633 29.976 19.4907C29.774 19.5241 29.577 19.5544 29.2663 19.599L29.2417 19.622L29.2191 19.6404C29.1867 19.8791 29.1642 20.0854 29.1212 20.328C29.0849 20.5788 29.0289 20.8638 28.9378 21.2734C28.8673 21.5869 28.8309 21.6961 28.7907 21.8064C28.7516 21.9167 28.7084 22.0239 28.6291 22.3322L28.6477 22.3607L28.6633 22.3868C28.9536 22.3726 29.1436 22.3625 29.3388 22.3607C29.5338 22.3534 29.7358 22.3607 30.0485 22.3625L30.0759 22.3395L30.1052 22.3141C30.1504 22.036 30.1572 21.9612 30.1848 21.8256C30.2121 21.6801 30.2593 21.4787 30.375 20.9407C30.4297 20.6881 30.4907 20.4362 30.5474 20.1783C30.6064 19.9215 30.6681 19.6686 30.7268 19.4159L30.7181 19.3854L30.7063 19.3572ZM30.7131 18.3237C30.421 18.1458 29.9083 18.2023 29.5632 18.4479C29.2192 18.6887 29.18 19.0304 29.4711 19.2106C29.7582 19.3835 30.2729 19.332 30.615 19.0843C30.9583 18.8383 31.0012 18.4997 30.7131 18.3237ZM32.4797 22.4426C33.0707 22.4426 33.6765 22.2746 34.1325 21.7759C34.4833 21.3716 34.6442 20.7699 34.6999 20.5222C34.8813 19.701 34.74 19.3176 34.5626 19.0841C34.2931 18.7282 33.8168 18.614 33.3226 18.614C33.0255 18.614 32.3178 18.6443 31.765 19.1701C31.368 19.5493 31.1845 20.064 31.0739 20.5574C30.9622 21.0601 30.8337 21.9652 31.6405 22.302C31.8895 22.4123 32.2483 22.4426 32.4797 22.4426ZM32.4335 20.5949C32.5698 19.9731 32.7306 19.4512 33.1412 19.4512C33.4629 19.4512 33.4863 19.8395 33.3432 20.4634C33.3176 20.6019 33.2002 21.1168 33.0413 21.3361C32.9304 21.4979 32.7992 21.596 32.6541 21.596C32.6109 21.596 32.3542 21.596 32.3502 21.2028C32.3482 21.0086 32.3866 20.8103 32.4335 20.5949ZM36.1772 22.3626L36.2234 22.3142C36.2889 21.9562 36.2997 21.872 36.4447 21.1472C36.5173 20.8034 36.6673 20.048 36.7379 19.779C36.8714 19.715 37.0006 19.6524 37.1301 19.6524C37.427 19.6524 37.3908 19.9214 37.379 20.0285C37.3682 20.2087 37.2593 20.7961 37.1457 21.3007L37.0751 21.6263C37.0212 21.8671 36.9625 22.1006 36.9105 22.3393L36.9331 22.3869C37.5399 22.3535 37.7173 22.3535 38.2368 22.3626L38.2995 22.3142C38.3906 21.7547 38.4152 21.6051 38.5859 20.7912L38.6672 20.4169C38.8298 19.6847 38.9121 19.3138 38.7916 19.0114C38.6584 18.6725 38.3457 18.5907 38.0644 18.5907C37.8779 18.5907 37.5359 18.6371 37.232 18.7919C37.1233 18.8506 37.0144 18.9182 36.9075 18.986L37.0006 18.614L36.9507 18.5511C36.3027 18.6868 36.1546 18.7049 35.5566 18.7919L35.5107 18.8263C35.4382 19.421 35.3792 19.8678 35.1215 21.0369C35.0233 21.4677 34.9215 21.9026 34.8196 22.3323L34.8469 22.3869C35.4615 22.3535 35.645 22.3535 36.1772 22.3626ZM40.6355 22.3868C40.6737 22.1947 40.9003 21.0562 40.9023 21.0562C40.9023 21.0562 41.0953 20.2208 41.1071 20.1905C41.1071 20.1905 41.1678 20.1035 41.2285 20.0691H41.3179C42.1608 20.0691 43.1127 20.0691 43.8588 19.5029C44.3664 19.1146 44.7135 18.5411 44.8683 17.8442C44.9085 17.6734 44.9381 17.4702 44.9381 17.2669C44.9381 17 44.8862 16.736 44.7361 16.5297C44.3556 15.9806 43.598 15.9705 42.7234 15.9663C42.7207 15.9663 42.2923 15.9705 42.2923 15.9705C41.1728 15.9847 40.7239 15.9806 40.5394 15.9573C40.5238 16.0414 40.4945 16.191 40.4945 16.191C40.4945 16.191 40.0935 18.1083 40.0935 18.1114C40.0935 18.1114 39.1338 22.1877 39.0887 22.3798C40.0661 22.3676 40.4669 22.3676 40.6355 22.3868ZM41.3786 18.981C41.3786 18.981 41.805 17.0676 41.803 17.0749L41.8168 16.9767L41.8228 16.9019L41.9932 16.92C41.9932 16.92 42.8725 16.998 42.8931 17C43.2402 17.1385 43.3832 17.4955 43.2833 17.9615C43.1922 18.3874 42.9245 18.7454 42.5804 18.9183C42.2971 19.0649 41.95 19.077 41.5924 19.077H41.361L41.3786 18.981ZM44.0333 20.6304C43.9206 21.1259 43.7911 22.0309 44.5939 22.3535C44.8499 22.4658 45.0792 22.4992 45.3124 22.4871C45.5586 22.4733 45.7867 22.346 45.998 22.1627C45.9789 22.238 45.9598 22.3134 45.9408 22.3889L45.9771 22.4374C46.5546 22.4122 46.7338 22.4122 47.3594 22.4172L47.4161 22.3726C47.5075 21.8186 47.5935 21.2807 47.8309 20.2208C47.9466 19.7132 48.0621 19.2104 48.1808 18.7048L48.1622 18.6492C47.5162 18.7727 47.3436 18.7991 46.7222 18.8899L46.675 18.9295C46.6688 18.9811 46.6622 19.0305 46.6562 19.08C46.5596 18.9189 46.4196 18.7815 46.2035 18.6958C45.9272 18.5837 45.2782 18.7281 44.7204 19.2521C44.3284 19.6262 44.1402 20.1388 44.0333 20.6304ZM45.3899 20.6607C45.5282 20.05 45.687 19.5333 46.0986 19.5333C46.3588 19.5333 46.4959 19.781 46.468 20.2035C46.4459 20.3089 46.4221 20.4199 46.3937 20.5455C46.3526 20.7269 46.3079 20.9069 46.2645 21.087C46.2203 21.2103 46.1689 21.3265 46.1124 21.4039C46.0065 21.5587 45.7545 21.6548 45.6095 21.6548C45.5683 21.6548 45.3144 21.6548 45.3056 21.2685C45.3036 21.0762 45.342 20.8781 45.3899 20.6607ZM52.4744 18.6442L52.4245 18.5855C51.7853 18.7191 51.6696 18.7403 51.0824 18.8221L51.0392 18.8666C51.0372 18.8739 51.0355 18.885 51.0325 18.8951L51.0304 18.885C50.5933 19.9254 50.6061 19.701 50.2502 20.5201C50.2482 20.4828 50.2482 20.4595 50.2462 20.4199L50.1571 18.6442L50.1012 18.5855C49.4316 18.7191 49.4158 18.7403 48.7975 18.8221L48.7493 18.8666C48.7425 18.8878 48.7425 18.9111 48.7385 18.9365L48.7425 18.9456C48.8198 19.353 48.8012 19.2622 48.8788 19.9052C48.9149 20.2208 48.9631 20.5382 48.9992 20.8499C49.0602 21.3715 49.0943 21.6283 49.1689 22.4244C48.7513 23.1353 48.6524 23.4042 48.2504 24.0281L48.2532 24.0344L47.9701 24.4962C47.9377 24.5449 47.9083 24.5783 47.8672 24.5925C47.822 24.6155 47.7633 24.6197 47.6817 24.6197H47.5249L47.2918 25.4196L48.0915 25.4339C48.5611 25.4318 48.8562 25.2053 49.015 24.9008L49.518 24.0118H49.5099L49.5629 23.9492C49.9012 23.1979 52.4744 18.6442 52.4744 18.6442ZM44.0332 29.1502H43.694L44.9497 24.8655H45.3663L45.4986 24.4241L45.5113 24.9149C45.4958 25.2183 45.7272 25.4873 46.335 25.4428H47.0379L47.2798 24.6177H47.0153C46.8632 24.6177 46.7927 24.5781 46.8015 24.4932L46.7887 23.9938H45.487V23.9964C45.0662 24.0055 43.8094 24.0381 43.5549 24.108C43.247 24.1898 42.9225 24.4306 42.9225 24.4306L43.05 23.9887H41.8324L41.5787 24.8655L40.3061 29.2157H40.0592L39.817 30.0348H42.2422L42.1609 30.3079H43.3559L43.4352 30.0348H43.7705L44.0332 29.1502ZM43.0382 25.7361C42.8432 25.7918 42.4803 25.9606 42.4803 25.9606L42.8031 24.8655H43.7705L43.5371 25.6634C43.5371 25.6634 43.2382 25.6815 43.0382 25.7361ZM43.0568 27.3005C43.0568 27.3005 42.7529 27.3399 42.5529 27.3865C42.3559 27.4481 41.9865 27.6422 41.9865 27.6422L42.3197 26.5026H43.2922L43.0568 27.3005ZM42.5147 29.1603H41.5443L41.8256 28.1986H42.793L42.5147 29.1603ZM44.8517 26.5026H46.2506L46.0495 27.1742H44.6322L44.4194 27.9084H45.6596L44.7205 29.2724C44.6548 29.3726 44.5958 29.408 44.5303 29.4363C44.4645 29.4707 44.3782 29.5111 44.2783 29.5111H43.9343L43.6979 30.3152H44.5978C45.0656 30.3152 45.3419 30.0956 45.5459 29.8075L46.1898 28.8983L46.3281 29.8215C46.3575 29.9944 46.4779 30.0956 46.5595 30.135C46.6496 30.1816 46.7427 30.2616 46.8742 30.2735C47.0152 30.2797 47.1171 30.2846 47.1849 30.2846H47.627L47.8925 29.3847H47.7181C47.618 29.3847 47.4456 29.3674 47.4162 29.335C47.3869 29.2957 47.3869 29.2351 47.3711 29.143L47.2308 28.2177H46.6563L46.9083 27.9084H48.3229L48.5405 27.1742H47.2308L47.4348 26.5026H48.7405L48.9827 25.6745H45.0899L44.8517 26.5026ZM33.0374 29.3473L33.3638 28.2269H34.7057L34.9509 27.3935H33.6078L33.8128 26.7039H35.1253L35.3685 25.8969H32.0845L31.8463 26.7039H32.5924L32.3934 27.3935H31.6453L31.3974 28.2411H32.1432L31.7081 29.7234C31.6493 29.9197 31.7357 29.9945 31.7904 30.0856C31.8463 30.1744 31.9031 30.2332 32.0305 30.2666C32.162 30.2969 32.2521 30.315 32.3746 30.315H33.8873L34.1569 29.3918L33.4863 29.4868C33.3568 29.4868 32.9982 29.4708 33.0374 29.3473ZM33.1913 23.9836L32.8512 24.6176C32.7785 24.7561 32.713 24.8421 32.654 24.8817C32.602 24.9151 32.4991 24.929 32.3501 24.929H32.1727L31.9355 25.7401H32.5247C32.8081 25.7401 33.0256 25.6329 33.1295 25.5794C33.2412 25.5177 33.2706 25.5529 33.3569 25.467L33.5559 25.2891H35.3959L35.6401 24.4447H34.2932L34.5283 23.9836H33.1913ZM35.9077 29.3636C35.8763 29.317 35.8989 29.2349 35.9468 29.0641L36.4497 27.3469H38.2388C38.4995 27.343 38.6877 27.3399 38.8102 27.3309C38.9417 27.3166 39.0847 27.2682 39.2406 27.1812C39.4014 27.0901 39.4838 26.9941 39.5533 26.8838C39.6308 26.7737 39.7553 26.533 39.8622 26.1618L40.4943 23.9887L38.6378 23.9999C38.6378 23.9999 38.0661 24.0868 37.8144 24.1829C37.5604 24.2901 37.1976 24.5893 37.1976 24.5893L37.3652 23.9936H36.2184L34.6128 29.4868C34.5558 29.7001 34.5177 29.8549 34.5089 29.9479C34.5059 30.0481 34.6313 30.1472 34.7126 30.222C34.8088 30.2968 34.9508 30.2847 35.0871 30.2968C35.2304 30.308 35.4341 30.315 35.7154 30.315H36.5968L36.8673 29.3726L36.0783 29.4495C35.994 29.4495 35.933 29.4029 35.9077 29.3636ZM36.7742 26.1871H38.6533L38.5339 26.5734C38.5171 26.5824 38.4769 26.5542 38.2857 26.5775H36.6585L36.7742 26.1871ZM37.1506 24.8917H39.0456L38.9093 25.3569C38.9093 25.3569 38.0162 25.3478 37.8731 25.375C37.2437 25.4874 36.8761 25.8343 36.8761 25.8343L37.1506 24.8917ZM38.576 27.8668C38.5604 27.9245 38.5358 27.9597 38.5014 27.9862C38.4633 28.0115 38.4015 28.0206 38.3094 28.0206H38.0417L38.0575 27.5502H36.9438L36.8986 29.8498C36.8968 30.0158 36.9124 30.1118 37.0301 30.1887C37.1478 30.2847 37.5104 30.2969 37.9985 30.2969H38.6964L38.9484 29.4361L38.3408 29.4706L38.1388 29.4827C38.1112 29.4706 38.0848 29.4594 38.0555 29.4291C38.0299 29.403 37.9867 29.4191 37.9937 29.2531L37.9985 28.6636L38.6357 28.6365C38.9797 28.6365 39.1268 28.521 39.2523 28.411C39.372 28.3056 39.4111 28.1845 39.4563 28.0206L39.5632 27.4987H38.6876L38.576 27.8668Z" fill="#FEFEFE"/>
</svg>
