<svg width="70" height="45" viewBox="0 0 70 45" fill="none" xmlns="http://www.w3.org/2000/svg">
<path d="M1.08993 5.46009C0 7.59921 0 10.3995 0 16V29C0 34.6005 0 37.4008 1.08993 39.5399C2.04867 41.4215 3.57847 42.9513 5.46009 43.9101C7.59921 45 10.3995 45 16 45H54C59.6005 45 62.4008 45 64.5399 43.9101C66.4215 42.9513 67.9513 41.4215 68.9101 39.5399C70 37.4008 70 34.6005 70 29V16C70 10.3995 70 7.59921 68.9101 5.46009C67.9513 3.57847 66.4215 2.04867 64.5399 1.08993C62.4008 0 59.6005 0 54 0H16C10.3995 0 7.59921 0 5.46009 1.08993C3.57847 2.04867 2.04867 3.57847 1.08993 5.46009Z" fill="white"/>
<path fill-rule="evenodd" clip-rule="evenodd" d="M44.8672 24.6696C44.8773 22.5317 42.9145 21.6023 41.344 20.8586C40.2896 20.3593 39.412 19.9438 39.4272 19.3025C39.4393 18.8169 39.9522 18.3009 41.0742 18.1684C42.3872 18.0559 43.7099 18.2652 44.902 18.774L45.5841 15.9032C44.4229 15.5096 43.1926 15.3065 41.9516 15.3025C38.1142 15.3025 35.4128 17.1432 35.391 19.7783C35.3654 21.7287 37.3189 22.8151 38.7905 23.4636C40.3027 24.1273 40.8098 24.5527 40.804 25.1463C40.7933 26.0554 39.5978 26.4558 38.4806 26.4719C36.5868 26.4983 35.4637 26.0252 34.5743 25.6506L34.4928 25.6163L33.7899 28.5835C34.6963 28.9588 36.3704 29.2864 38.1074 29.3025C42.1866 29.3025 44.8542 27.4855 44.8672 24.6696ZM28.7849 15.5502L22.494 29.0905H18.3902L15.2943 18.2844C15.1062 17.6194 14.9433 17.3748 14.3724 17.0954C13.4389 16.6379 11.8972 16.2094 10.5417 15.943L10.6331 15.5502H17.2401C18.133 15.5489 18.893 16.1353 19.0307 16.9307L20.6657 24.766L24.7067 15.5502H28.7849ZM58.5923 29.0905H55.0014L54.5325 27.0677H49.5512L48.741 29.0905H44.6651L50.491 16.5433C50.7641 15.9381 51.4192 15.5444 52.1438 15.5502H55.4577L58.5923 29.0905ZM50.6689 24.2929L52.7128 19.2088L53.8895 24.2929H50.6689ZM31.1228 29.0905L34.3333 15.5502H30.4513L27.2394 29.0905H31.1228Z" fill="url(#paint0_linear_261:23185)"/>
<defs>
<linearGradient id="paint0_linear_261:23185" x1="10.3955" y1="20.2941" x2="58.7378" y2="19.7705" gradientUnits="userSpaceOnUse">
<stop stop-color="#131D60"/>
<stop offset="1" stop-color="#002B98"/>
</linearGradient>
</defs>
</svg>
