<svg width="70" height="45" viewBox="0 0 70 45" fill="none" xmlns="http://www.w3.org/2000/svg">
<path d="M1.08993 5.46009C0 7.59921 0 10.3995 0 16V29C0 34.6005 0 37.4008 1.08993 39.5399C2.04867 41.4215 3.57847 42.9513 5.46009 43.9101C7.59921 45 10.3995 45 16 45H54C59.6005 45 62.4008 45 64.5399 43.9101C66.4215 42.9513 67.9513 41.4215 68.9101 39.5399C70 37.4008 70 34.6005 70 29V16C70 10.3995 70 7.59921 68.9101 5.46009C67.9513 3.57847 66.4215 2.04867 64.5399 1.08993C62.4008 0 59.6005 0 54 0H16C10.3995 0 7.59921 0 5.46009 1.08993C3.57847 2.04867 2.04867 3.57847 1.08993 5.46009Z" fill="white"/>
<path fill-rule="evenodd" clip-rule="evenodd" d="M28.2951 32.2329C27.794 32.2329 27.3219 32.4287 27.0437 32.5772V29.9331L26.0794 30.1658V36.6392C26.6358 36.9372 27.3958 37.0953 27.8872 37.0953C29.2309 37.0953 30.0658 36.2504 30.0658 34.5157C30.0658 33.0312 29.4447 32.2329 28.2951 32.2329ZM34.285 35.5684H34.2392L32.1631 30.3818H31.04V36.9602H31.8746V32.3033H31.9585L33.8499 36.9602H34.4428L36.3335 32.1914H36.4171V36.9602H37.4185V30.3818H36.2686L34.285 35.5684ZM40.3709 32.1787C39.1473 32.1787 38.2573 32.9856 38.2573 34.6094L38.2579 34.6091C38.2579 36.1946 39.1005 37.0398 40.3712 37.0398C41.6418 37.0398 42.4851 36.1946 42.4851 34.6091C42.4851 32.985 41.5954 32.1787 40.3709 32.1787ZM43.2179 32.8658C43.6353 32.6153 44.5164 32.179 45.5812 32.179C46.6943 32.179 47.1111 32.6143 47.1111 33.5695V36.9289H46.1475V33.7846C46.1475 33.0513 45.7864 32.9216 45.3132 32.9216C44.9422 32.9216 44.469 33.0889 44.1815 33.2556V36.9296H43.2179V32.8658ZM52.0154 36.614C51.5992 36.8553 51.0425 37.0408 50.3747 37.0408C48.8185 37.0408 48.1785 36.0754 48.1785 34.6097C48.1785 33.1992 48.8914 32.179 50.2825 32.179C51.4411 32.179 52.1563 32.9302 52.1563 34.4424V34.7857H49.1335C49.1335 35.8986 49.5874 36.3906 50.5424 36.3906C51.0425 36.3906 51.5076 36.2131 52.0154 35.9078V36.614ZM56.0076 32.1793H57L55.3212 36.8158C54.857 38.096 54.2932 38.7646 53.2265 38.7646V38.0052C53.8568 38.0052 54.2458 37.5045 54.4683 36.8167L52.6886 32.1793H53.7083L54.8951 35.5926H54.9508L56.0076 32.1793ZM51.2746 34.1639H49.1514C49.2538 33.2368 49.6896 32.7998 50.2546 32.7998C50.756 32.7998 51.2291 33.1899 51.2746 34.1639ZM41.5096 34.6097C41.5096 33.3579 41.0006 32.8292 40.3705 32.8292C39.7584 32.8292 39.2299 33.3576 39.2299 34.6097C39.2299 35.881 39.712 36.3906 40.3705 36.3906C41.0284 36.3906 41.5102 35.881 41.5102 34.6094L41.5096 34.6097ZM27.8872 36.4458C27.6558 36.4458 27.3308 36.427 27.0344 36.2973L27.0347 33.2632C27.4051 33.0593 27.6743 32.9573 28.0451 32.9573C28.6658 32.9573 29.0926 33.3375 29.0926 34.5157C29.0926 36.0187 28.5749 36.4458 27.8872 36.4458ZM24.7383 35.9084V36.614C24.3209 36.8553 23.7648 37.0408 23.0963 37.0408C21.5385 37.0408 20.8995 36.0754 20.8995 34.6097C20.8995 33.1992 21.6141 32.179 23.0038 32.179C24.1627 32.179 24.8769 32.9302 24.8769 34.4424V34.7857H21.8545C21.8545 35.8989 22.3081 36.3906 23.2638 36.3906C23.7648 36.3906 24.2283 36.2138 24.738 35.9078L24.7383 35.9084ZM23.9969 34.1639H21.874C21.9749 33.2368 22.4109 32.7998 22.9759 32.7998C23.4773 32.7998 23.9505 33.1899 23.9969 34.1639ZM16.7918 32.3342H16.7268L15.5029 36.9643H14.5024L13 30.3866H14.0385L15.0768 35.2943H15.1418L16.3461 30.3866H17.1715L18.4603 35.2943H18.526L19.4717 30.3866H20.5566L19.0539 36.9643H18.0525L16.7918 32.3342Z" fill="#006AAC"/>
<path d="M34.9571 8.23654C36.3698 8.23654 37.7146 8.55872 38.921 9.13475C39.1101 9.21977 39.3005 9.32147 39.4888 9.42356L38.6624 10.1537L37.4221 8.8809L35.2856 10.7464L34.0273 9.40688L30.0974 12.8845L32.6135 15.6153L31.631 16.4626L34.1135 19.1934L33.131 20.0416L36.6819 23.9264L38.7833 22.0259L40.6102 24.0623C40.2486 24.3336 39.8528 24.6057 39.4214 24.8425C38.1117 25.5731 36.5957 25.995 34.9751 25.995C29.9945 25.995 25.944 22.01 25.944 17.1082C25.9273 12.2398 29.9773 8.23535 34.9575 8.23535L34.9571 8.23654Z" fill="#006AAC"/>
<path d="M39.2654 11.2041L40.334 10.2379L41.3002 11.307L40.2307 12.2568L39.2658 11.2049L39.2654 11.2041Z" fill="#006AAC"/>
<path d="M37.1982 15.1227L38.8009 13.6985L40.2482 15.2756L38.646 16.7006L37.1982 15.1235V15.1227Z" fill="#006AAC"/>
<path d="M43.0744 16.531L42.0061 17.4816L42.9694 18.5324L44.0561 17.5833L43.0744 16.531Z" fill="#006AAC"/>
<path d="M41.7132 13.393L40.6437 14.3421L41.6094 15.3944L42.6773 14.4446L41.7132 13.393Z" fill="#006AAC"/>
<path d="M39.9893 21.6712L41.5915 20.2458L43.0385 21.8229L41.4366 23.265L39.9893 21.6712Z" fill="#006AAC"/>
<path d="M40.178 17.0399L38.5766 18.4652H38.5758L40.0232 20.0595L41.6262 18.6337L40.178 17.0399Z" fill="#006AAC"/>
<path d="M35.7157 11.9343L37.318 10.5093L38.7653 12.0864L37.1619 13.5281L35.7145 11.9343H35.7157Z" fill="#006AAC"/>
<path d="M33.9232 11.0519L31.7695 12.9513L33.6993 15.0726L35.8538 13.1721L33.9232 11.0519Z" fill="#006AAC"/>
<path d="M34.8358 20.2291L36.974 18.3119L38.921 20.4325L36.7653 22.333L34.8366 20.2291H34.8358Z" fill="#006AAC"/>
<path d="M35.2325 18.6845L33.3026 16.5643L35.4567 14.6642L37.3874 16.7852L35.2325 18.6845Z" fill="#006AAC"/>
</svg>
