<svg width="70" height="45" viewBox="0 0 70 45" fill="none" xmlns="http://www.w3.org/2000/svg">
<path d="M1.08993 5.46009C0 7.59921 0 10.3995 0 16V29C0 34.6005 0 37.4008 1.08993 39.5399C2.04867 41.4215 3.57847 42.9513 5.46009 43.9101C7.59921 45 10.3995 45 16 45H54C59.6005 45 62.4008 45 64.5399 43.9101C66.4215 42.9513 67.9513 41.4215 68.9101 39.5399C70 37.4008 70 34.6005 70 29V16C70 10.3995 70 7.59921 68.9101 5.46009C67.9513 3.57847 66.4215 2.04867 64.5399 1.08993C62.4008 0 59.6005 0 54 0H16C10.3995 0 7.59921 0 5.46009 1.08993C3.57847 2.04867 2.04867 3.57847 1.08993 5.46009Z" fill="white"/>
<path fill-rule="evenodd" clip-rule="evenodd" d="M48.5 22.5C48.5 21.1802 48.2347 18.3348 47.2144 16.8315C46.1085 15.2022 44.0005 14.5417 42.2098 15.4506C40.3111 16.4141 39.553 18.7344 40.5166 20.633C41.0871 21.7573 42.133 22.4812 43.2856 22.6852C43.1844 27.1284 39.5079 30.7129 34.9999 30.7129C30.4287 30.7129 26.7096 27.0276 26.7096 22.4979C26.7096 19.0246 28.8539 16.0096 32.0463 14.8164C32.663 14.5861 33.0242 13.9468 32.878 13.3049L32.8688 13.2641C32.6933 12.4941 33.2407 11.7531 34.027 11.6812C34.3496 11.6517 34.6743 11.6367 34.9999 11.6367C35.4037 11.6367 35.8097 11.6588 36.2072 11.7028C36.9542 11.7842 37.6269 11.2249 37.6686 10.4627C37.7076 9.74734 37.1394 9.14963 36.4269 9.07465C35.9561 9.02505 35.4765 9 34.9999 9C31.8715 9 28.8215 10.0949 26.4122 12.0833C23.2903 14.6592 21.5 18.4561 21.5 22.5C21.5 29.944 27.556 36 34.9999 36C42.4438 36 48.5 29.944 48.5 22.5ZM40.1469 12.8813C40.9391 12.8813 41.5812 12.2391 41.5812 11.4469C41.5812 10.6546 40.9391 10.0125 40.1469 10.0125C39.3547 10.0125 38.7125 10.6546 38.7125 11.4469C38.7125 12.2391 39.3547 12.8813 40.1469 12.8813Z" fill="#222222"/>
</svg>
