<svg width="70" height="45" viewBox="0 0 70 45" fill="none" xmlns="http://www.w3.org/2000/svg">
<path d="M1.08993 5.46009C0 7.59921 0 10.3995 0 16V29C0 34.6005 0 37.4008 1.08993 39.5399C2.04867 41.4215 3.57847 42.9513 5.46009 43.9101C7.59921 45 10.3995 45 16 45H54C59.6005 45 62.4008 45 64.5399 43.9101C66.4215 42.9513 67.9513 41.4215 68.9101 39.5399C70 37.4008 70 34.6005 70 29V16C70 10.3995 70 7.59921 68.9101 5.46009C67.9513 3.57847 66.4215 2.04867 64.5399 1.08993C62.4008 0 59.6005 0 54 0H16C10.3995 0 7.59921 0 5.46009 1.08993C3.57847 2.04867 2.04867 3.57847 1.08993 5.46009Z" fill="white"/>
<path fill-rule="evenodd" clip-rule="evenodd" d="M40.0067 26.0693C40.0975 26.1483 40.1692 26.247 40.2165 26.3579C40.2638 26.4688 40.2854 26.5891 40.2797 26.7097C40.2797 27.4008 39.8819 27.7464 39.0865 27.7465H32.2511C31.9986 27.762 31.7504 27.676 31.5609 27.5076C31.3715 27.3391 31.2564 27.1018 31.2409 26.848C31.2389 26.8155 31.2386 26.7828 31.24 26.7502C31.2404 26.5749 31.2764 26.4014 31.346 26.2406C31.4155 26.0798 31.5171 25.935 31.6444 25.8151L37.2866 19.716H32.9184C32.633 19.7364 32.3497 19.6535 32.1198 19.4823C32.0276 19.4 31.9551 19.2978 31.9078 19.1834C31.8605 19.0689 31.8396 18.9452 31.8467 18.8214C31.8467 18.1437 32.2443 17.8049 33.0397 17.8049H39.5719C39.7087 17.7983 39.8454 17.8212 39.9727 17.8721C40.1 17.9229 40.215 18.0005 40.3101 18.0997C40.489 18.2885 40.587 18.5404 40.583 18.8012C40.5749 19.1599 40.4301 19.5019 40.1785 19.7565L34.5564 25.8354H39.2079C39.4933 25.8154 39.7766 25.8983 40.0067 26.0693" fill="#222222"/>
<path fill-rule="evenodd" clip-rule="evenodd" d="M50.1384 22.9993C50.0601 23.0771 49.9668 23.138 49.8642 23.1782C49.7616 23.2184 49.6518 23.2371 49.5418 23.233H43.5357C43.5199 23.9834 43.7913 24.7112 44.294 25.2661C44.5602 25.5077 44.8718 25.6934 45.2104 25.8122C45.549 25.9309 45.9078 25.9803 46.2657 25.9576C46.6999 25.9627 47.1324 25.9044 47.55 25.7846C47.9514 25.6618 48.3354 25.4875 48.6926 25.2661C48.8468 25.1773 49.0205 25.1284 49.1982 25.1239C49.3013 25.1193 49.404 25.1401 49.4973 25.1844C49.5907 25.2287 49.6719 25.2951 49.734 25.378C49.8651 25.5574 49.9328 25.7756 49.9263 25.9981C49.9273 26.1898 49.8817 26.3789 49.7936 26.549C49.7055 26.7191 49.5774 26.865 49.4205 26.974C48.9812 27.2808 48.4918 27.5078 47.9746 27.6447C47.3668 27.8221 46.7369 27.9111 46.104 27.909C45.1854 27.9306 44.2756 27.7247 43.4547 27.3095C42.7187 26.9283 42.1103 26.3379 41.7054 25.6117C41.2808 24.8266 41.0681 23.9435 41.0885 23.0501C41.0716 22.0682 41.2865 21.0964 41.7155 20.2142C42.1069 19.4097 42.7169 18.733 43.4749 18.2624C44.2547 17.7878 45.1521 17.5446 46.0635 17.5608C46.652 17.5245 47.2413 17.6165 47.7911 17.8306C48.3409 18.0447 48.8381 18.3758 49.2487 18.8012C50.0538 19.7955 50.4548 21.0592 50.371 22.3385C50.3785 22.4587 50.3618 22.5792 50.3218 22.6928C50.2818 22.8063 50.2194 22.9106 50.1384 22.9993L50.1384 22.9993ZM43.6165 21.871H48.2273C48.2872 21.2005 48.1001 20.5312 47.7014 19.9903C47.5096 19.7743 47.2719 19.6045 47.0058 19.4936C46.7397 19.3828 46.4522 19.3337 46.1646 19.35C44.7354 19.35 43.886 20.1903 43.6164 21.871" fill="#222222"/>
<path fill-rule="evenodd" clip-rule="evenodd" d="M60.5472 18.4656C61.1692 19.2101 61.4776 20.1693 61.4067 21.1389C61.4067 21.3966 61.4 21.5932 61.3865 21.7287L60.9819 26.6484C60.9774 26.8171 60.9393 26.9832 60.8699 27.1368C60.8004 27.2905 60.701 27.4286 60.5776 27.543C60.3193 27.7653 59.9871 27.8815 59.6473 27.8685C59.4816 27.8787 59.3156 27.8551 59.1592 27.7992C59.0028 27.7432 58.8593 27.6561 58.7373 27.543C58.6267 27.4245 58.5439 27.2827 58.4949 27.1279C58.4459 26.9731 58.4319 26.8093 58.4541 26.6484L58.8587 21.8303C58.9663 20.3257 58.373 19.5733 57.0788 19.5733C56.7582 19.5552 56.4374 19.6057 56.1376 19.7214C55.8378 19.837 55.5658 20.0153 55.3396 20.2445C54.8915 20.766 54.6345 21.4261 54.6117 22.1148L54.2274 26.6484C54.2229 26.8171 54.1848 26.9832 54.1153 27.1368C54.0459 27.2905 53.9465 27.4286 53.8231 27.543C53.5648 27.7653 53.2326 27.8816 52.8927 27.8685C52.7285 27.8794 52.5639 27.8561 52.409 27.8001C52.2542 27.7441 52.1125 27.6566 51.9928 27.543C51.8848 27.4225 51.8029 27.2808 51.7524 27.1267C51.7019 26.9727 51.6839 26.8098 51.6996 26.6484L52.3469 18.7603C52.3477 18.5983 52.3844 18.4385 52.4543 18.2926C52.5242 18.1466 52.6257 18.0182 52.7512 17.9167C53.021 17.702 53.3577 17.5903 53.7017 17.6014C53.8564 17.5921 54.0113 17.6142 54.1573 17.6666C54.3033 17.719 54.4372 17.8005 54.551 17.9062C54.6528 18.0127 54.7278 18.1421 54.77 18.2835C54.8122 18.425 54.8203 18.5745 54.7936 18.7197L54.7734 19.1057C55.117 18.6126 55.5845 18.2199 56.1282 17.9675C56.7235 17.69 57.3734 17.551 58.0295 17.5607C58.4886 17.528 58.9495 17.5915 59.3829 17.7473C59.8163 17.9031 60.2128 18.1477 60.5472 18.4656" fill="#222222"/>
<path fill-rule="evenodd" clip-rule="evenodd" d="M27.0296 18.3389C26.6492 17.7497 26.0671 17.3211 25.3936 17.1343C24.7201 16.9474 24.0018 17.0152 23.3746 17.3249C22.8478 17.5937 22.4184 18.0223 22.1473 18.55C21.8762 19.0777 21.777 19.6777 21.864 20.2652C21.9509 20.8527 22.2194 21.3978 22.6316 21.8233C23.0437 22.2488 23.5786 22.5333 24.1604 22.6363C24.1103 24.2282 23.4414 25.737 22.2973 26.8388C21.1532 27.9406 19.6251 28.5476 18.0408 28.5296C16.4566 28.5117 14.9425 27.8701 13.8234 26.7426C12.7044 25.6151 12.0695 24.0916 12.0551 22.4989C12.0522 21.2709 12.4244 20.0715 13.1214 19.063C13.8184 18.0544 14.8066 17.2853 15.9524 16.8595C16.1704 16.7802 16.3523 16.6239 16.4641 16.4197C16.5758 16.2155 16.6099 15.9774 16.5599 15.7498L16.5531 15.7196C16.5257 15.5971 16.5225 15.4704 16.5439 15.3468C16.5652 15.2231 16.6105 15.1049 16.6773 14.9988C16.744 14.8927 16.8309 14.8009 16.933 14.7286C17.035 14.6563 17.1502 14.605 17.272 14.5774C17.3138 14.568 17.3562 14.5614 17.3989 14.5576C17.6345 14.5359 17.8713 14.525 18.1095 14.5249C18.404 14.5249 18.6983 14.5412 18.9911 14.5735C19.1169 14.5874 19.2442 14.5761 19.3658 14.5405C19.4873 14.5049 19.6006 14.4455 19.6993 14.3659C19.798 14.2862 19.8802 14.1878 19.941 14.0762C20.0019 13.9646 20.0403 13.8421 20.054 13.7156C20.0559 13.698 20.0574 13.6805 20.0582 13.663C20.0651 13.4089 19.975 13.1617 19.8064 12.9723C19.6378 12.7828 19.4035 12.6653 19.1515 12.644C17.1682 12.4321 15.1676 12.8298 13.4139 13.7847C11.6601 14.7396 10.2357 16.2067 9.32863 17.9924C8.42157 19.7781 8.07455 21.7983 8.33339 23.7864C8.59223 25.7745 9.44475 27.6369 10.7784 29.1277C12.112 30.6186 13.8641 31.6677 15.8032 32.1367C17.7423 32.6057 19.7773 32.4724 21.6395 31.7544C23.5017 31.0365 25.1036 29.7676 26.2335 28.1154C27.3635 26.4632 27.9684 24.5054 27.9684 22.5003C27.9684 21.5314 27.7746 19.4424 27.0296 18.3389" fill="#222222"/>
<path fill-rule="evenodd" clip-rule="evenodd" d="M21.828 13.3416C22.03 13.3415 22.2274 13.4017 22.3954 13.5145C22.5634 13.6274 22.6943 13.7877 22.7716 13.9753C22.8489 14.1629 22.8691 14.3694 22.8297 14.5685C22.7903 14.7677 22.693 14.9507 22.5502 15.0943C22.4074 15.2378 22.2254 15.3356 22.0273 15.3752C21.8292 15.4149 21.6238 15.3945 21.4372 15.3168C21.2506 15.2391 21.0911 15.1075 20.9788 14.9386C20.8666 14.7698 20.8067 14.5713 20.8068 14.3682C20.8068 14.0959 20.9144 13.8348 21.1059 13.6423C21.2974 13.4497 21.5571 13.3416 21.828 13.3416Z" fill="#222222"/>
</svg>
